<svg id="my-svg" width="100%" xmlns="http://www.w3.org/2000/svg" xmlns:xlink="http://www.w3.org/1999/xlink" class="classDiagram" style="max-width: 351.828px; background-color: transparent;" viewBox="0 0 351.828125 378" role="graphics-document document" aria-roledescription="class"><style>#my-svg{font-family:"trebuchet ms",verdana,arial,sans-serif;font-size:16px;fill:#000000;}@keyframes edge-animation-frame{from{stroke-dashoffset:0;}}@keyframes dash{to{stroke-dashoffset:0;}}#my-svg .edge-animation-slow{stroke-dasharray:9,5!important;stroke-dashoffset:900;animation:dash 50s linear infinite;stroke-linecap:round;}#my-svg .edge-animation-fast{stroke-dasharray:9,5!important;stroke-dashoffset:900;animation:dash 20s linear infinite;stroke-linecap:round;}#my-svg .error-icon{fill:#552222;}#my-svg .error-text{fill:#552222;stroke:#552222;}#my-svg .edge-thickness-normal{stroke-width:1px;}#my-svg .edge-thickness-thick{stroke-width:3.5px;}#my-svg .edge-pattern-solid{stroke-dasharray:0;}#my-svg .edge-thickness-invisible{stroke-width:0;fill:none;}#my-svg .edge-pattern-dashed{stroke-dasharray:3;}#my-svg .edge-pattern-dotted{stroke-dasharray:2;}#my-svg .marker{fill:#666;stroke:#666;}#my-svg .marker.cross{stroke:#666;}#my-svg svg{font-family:"trebuchet ms",verdana,arial,sans-serif;font-size:16px;}#my-svg p{margin:0;}#my-svg g.classGroup text{fill:#999;stroke:none;font-family:"trebuchet ms",verdana,arial,sans-serif;font-size:10px;}#my-svg g.classGroup text .title{font-weight:bolder;}#my-svg .cluster-label text{fill:#333;}#my-svg .cluster-label span{color:#333;}#my-svg .cluster-label span p{background-color:transparent;}#my-svg .cluster rect{fill:hsl(0, 0%, 98.9215686275%);stroke:#707070;stroke-width:1px;}#my-svg .cluster text{fill:#333;}#my-svg .cluster span{color:#333;}#my-svg .nodeLabel,#my-svg .edgeLabel{color:#111111;}#my-svg .noteLabel .nodeLabel,#my-svg .noteLabel .edgeLabel{color:#fff;}#my-svg .edgeLabel .label rect{fill:#eee;}#my-svg .label text{fill:#111111;}#my-svg .labelBkg{background:#eee;}#my-svg .edgeLabel .label span{background:#eee;}#my-svg .classTitle{font-weight:bolder;}#my-svg .node rect,#my-svg .node circle,#my-svg .node ellipse,#my-svg .node polygon,#my-svg .node path{fill:#eee;stroke:#999;stroke-width:1;}#my-svg .divider{stroke:#999;stroke-width:1;}#my-svg g.clickable{cursor:pointer;}#my-svg g.classGroup rect{fill:#eee;stroke:#999;}#my-svg g.classGroup line{stroke:#999;stroke-width:1;}#my-svg .classLabel .box{stroke:none;stroke-width:0;fill:#eee;opacity:0.5;}#my-svg .classLabel .label{fill:#999;font-size:10px;}#my-svg .relation{stroke:#666;stroke-width:1;fill:none;}#my-svg .dashed-line{stroke-dasharray:3;}#my-svg .dotted-line{stroke-dasharray:1 2;}#my-svg [id$="-compositionStart"],#my-svg .composition{fill:#666!important;stroke:#666!important;stroke-width:1;}#my-svg [id$="-compositionEnd"],#my-svg .composition{fill:#666!important;stroke:#666!important;stroke-width:1;}#my-svg [id$="-dependencyStart"],#my-svg .dependency{fill:#666!important;stroke:#666!important;stroke-width:1;}#my-svg [id$="-dependencyEnd"],#my-svg .dependency{fill:#666!important;stroke:#666!important;stroke-width:1;}#my-svg [id$="-extensionStart"],#my-svg .extension{fill:transparent!important;stroke:#666!important;stroke-width:1;}#my-svg [id$="-extensionEnd"],#my-svg .extension{fill:transparent!important;stroke:#666!important;stroke-width:1;}#my-svg [id$="-aggregationStart"],#my-svg .aggregation{fill:transparent!important;stroke:#666!important;stroke-width:1;}#my-svg [id$="-aggregationEnd"],#my-svg .aggregation{fill:transparent!important;stroke:#666!important;stroke-width:1;}#my-svg [id$="-lollipopStart"],#my-svg .lollipop{fill:#eee!important;stroke:#666!important;stroke-width:1;}#my-svg [id$="-lollipopEnd"],#my-svg .lollipop{fill:#eee!important;stroke:#666!important;stroke-width:1;}#my-svg .edgeTerminals{font-size:11px;line-height:initial;}#my-svg .classTitleText{text-anchor:middle;font-size:18px;fill:#000000;}#my-svg .edgeLabel[data-look="neo"]{background-color:white;text-align:center;}#my-svg .edgeLabel[data-look="neo"] p{background-color:white;}#my-svg .edgeLabel[data-look="neo"] rect{opacity:0.5;background-color:white;fill:white;}#my-svg .label-icon{display:inline-block;height:1em;overflow:visible;vertical-align:-0.125em;}#my-svg .node .label-icon path{fill:currentColor;stroke:revert;stroke-width:revert;}#my-svg .node .neo-node{stroke:#999;}#my-svg [data-look="neo"].node rect,#my-svg [data-look="neo"].cluster rect,#my-svg [data-look="neo"].node polygon{stroke:url(#my-svg-gradient);filter:drop-shadow( 1px 2px 2px rgba(185,185,185,1));}#my-svg [data-look="neo"].node path{stroke:url(#my-svg-gradient);stroke-width:1px;}#my-svg [data-look="neo"].node .outer-path{filter:drop-shadow( 1px 2px 2px rgba(185,185,185,1));}#my-svg [data-look="neo"].node .neo-line path{stroke:#999;filter:none;}#my-svg [data-look="neo"].node circle{stroke:url(#my-svg-gradient);filter:drop-shadow( 1px 2px 2px rgba(185,185,185,1));}#my-svg [data-look="neo"].node circle .state-start{fill:#000000;}#my-svg [data-look="neo"].icon-shape .icon{fill:url(#my-svg-gradient);filter:drop-shadow( 1px 2px 2px rgba(185,185,185,1));}#my-svg [data-look="neo"].icon-shape .icon-neo path{stroke:url(#my-svg-gradient);filter:drop-shadow( 1px 2px 2px rgba(185,185,185,1));}#my-svg :root{--mermaid-font-family:"trebuchet ms",verdana,arial,sans-serif;}</style><g><defs><marker id="my-svg_class-aggregationStart" class="marker aggregation class" refX="18" refY="7" markerWidth="190" markerHeight="240" orient="auto"><path d="M 18,7 L9,13 L1,7 L9,1 Z"/></marker></defs><defs><marker id="my-svg_class-aggregationEnd" class="marker aggregation class" refX="1" refY="7" markerWidth="20" markerHeight="28" orient="auto"><path d="M 18,7 L9,13 L1,7 L9,1 Z"/></marker></defs><defs><marker id="my-svg_class-aggregationStart-margin" class="marker aggregation class" refX="15" refY="7" markerWidth="190" markerHeight="240" orient="auto" markerUnits="userSpaceOnUse"><path d="M 18,7 L9,13 L1,7 L9,1 Z" style="stroke-width: 2;"/></marker></defs><defs><marker id="my-svg_class-aggregationEnd-margin" class="marker aggregation class" refX="1" refY="7" markerWidth="20" markerHeight="28" orient="auto" markerUnits="userSpaceOnUse"><path d="M 18,7 L9,13 L1,7 L9,1 Z" style="stroke-width: 2;"/></marker></defs><defs><marker id="my-svg_class-extensionStart" class="marker extension class" refX="18" refY="7" markerWidth="190" markerHeight="240" orient="auto" markerUnits="userSpaceOnUse"><path d="M 1,7 L18,13 V 1 Z"/></marker></defs><defs><marker id="my-svg_class-extensionEnd" class="marker extension class" refX="1" refY="7" markerWidth="20" markerHeight="28" orient="auto"><path d="M 1,1 V 13 L18,7 Z"/></marker></defs><marker id="my-svg_class-extensionStart-margin" class="marker extension class" refX="18" refY="7" markerWidth="20" markerHeight="28" orient="auto" markerUnits="userSpaceOnUse" viewBox="0 0 20 14"><polygon points="10,7 18,13 18,1" style="stroke-width: 2; stroke-dasharray: 0;"/></marker><defs><marker id="my-svg_class-extensionEnd-margin" class="marker extension class" refX="9" refY="7" markerWidth="20" markerHeight="28" orient="auto" markerUnits="userSpaceOnUse" viewBox="0 0 20 14"><polygon points="10,1 10,13 18,7" style="stroke-width: 2; stroke-dasharray: 0;"/></marker></defs><defs><marker id="my-svg_class-compositionStart" class="marker composition class" refX="18" refY="7" markerWidth="190" markerHeight="240" orient="auto"><path d="M 18,7 L9,13 L1,7 L9,1 Z"/></marker></defs><defs><marker id="my-svg_class-compositionEnd" class="marker composition class" refX="1" refY="7" markerWidth="20" markerHeight="28" orient="auto"><path d="M 18,7 L9,13 L1,7 L9,1 Z"/></marker></defs><defs><marker id="my-svg_class-compositionStart-margin" class="marker composition class" refX="15" refY="7" markerWidth="190" markerHeight="240" orient="auto" markerUnits="userSpaceOnUse"><path viewBox="0 0 15 15" d="M 18,7 L9,13 L1,7 L9,1 Z" style="stroke-width: 0;"/></marker></defs><defs><marker id="my-svg_class-compositionEnd-margin" class="marker composition class" refX="3.5" refY="7" markerWidth="20" markerHeight="28" orient="auto" markerUnits="userSpaceOnUse"><path d="M 18,7 L9,13 L1,7 L9,1 Z" style="stroke-width: 0;"/></marker></defs><defs><marker id="my-svg_class-dependencyStart" class="marker dependency class" refX="6" refY="7" markerWidth="190" markerHeight="240" orient="auto"><path d="M 5,7 L9,13 L1,7 L9,1 Z"/></marker></defs><defs><marker id="my-svg_class-dependencyEnd" class="marker dependency class" refX="13" refY="7" markerWidth="20" markerHeight="28" orient="auto"><path d="M 18,7 L9,13 L14,7 L9,1 Z"/></marker></defs><defs><marker id="my-svg_class-dependencyStart-margin" class="marker dependency class" refX="4" refY="7" markerWidth="190" markerHeight="240" orient="auto" markerUnits="userSpaceOnUse"><path d="M 5,7 L9,13 L1,7 L9,1 Z" style="stroke-width: 0;"/></marker></defs><defs><marker id="my-svg_class-dependencyEnd-margin" class="marker dependency class" refX="16" refY="7" markerWidth="20" markerHeight="28" orient="auto" markerUnits="userSpaceOnUse"><path d="M 18,7 L9,13 L14,7 L9,1 Z" style="stroke-width: 0;"/></marker></defs><defs><marker id="my-svg_class-lollipopStart" class="marker lollipop class" refX="13" refY="7" markerWidth="190" markerHeight="240" orient="auto"><circle fill="transparent" cx="7" cy="7" r="6"/></marker></defs><defs><marker id="my-svg_class-lollipopEnd" class="marker lollipop class" refX="1" refY="7" markerWidth="190" markerHeight="240" orient="auto"><circle fill="transparent" cx="7" cy="7" r="6"/></marker></defs><defs><marker id="my-svg_class-lollipopStart-margin" class="marker lollipop class" refX="13" refY="7" markerWidth="190" markerHeight="240" orient="auto" markerUnits="userSpaceOnUse"><circle fill="transparent" cx="7" cy="7" r="6" stroke-width="2"/></marker></defs><defs><marker id="my-svg_class-lollipopEnd-margin" class="marker lollipop class" refX="1" refY="7" markerWidth="190" markerHeight="240" orient="auto" markerUnits="userSpaceOnUse"><circle fill="transparent" cx="7" cy="7" r="6" stroke-width="2"/></marker></defs><g class="root"><g class="clusters"/><g class="edgePaths"><path d="M88.205,186.078L86.004,188.565C83.803,191.052,79.402,196.026,77.201,202.68C75,209.333,75,217.667,75,221.833L75,226" id="my-svg-id_Animal_Dog_1" class="edge-thickness-normal edge-pattern-solid relation" style=";;;" data-edge="true" data-et="edge" data-id="id_Animal_Dog_1" data-points="W3sieCI6OTkuNjM2NzE4NzUsInkiOjE3My4xNTk1OTk4ODY2MDc1NH0seyJ4Ijo3NSwieSI6MjAxfSx7IngiOjc1LCJ5IjoyMjZ9XQ==" data-look="classic" marker-start="url(#my-svg_class-extensionStart)"/><path d="M254.709,186.078L256.91,188.565C259.111,191.052,263.512,196.026,265.713,202.68C267.914,209.333,267.914,217.667,267.914,221.833L267.914,226" id="my-svg-id_Animal_Cat_2" class="edge-thickness-normal edge-pattern-solid relation" style=";;;" data-edge="true" data-et="edge" data-id="id_Animal_Cat_2" data-points="W3sieCI6MjQzLjI3NzM0Mzc1LCJ5IjoxNzMuMTU5NTk5ODg2NjA3NTR9LHsieCI6MjY3LjkxNDA2MjUsInkiOjIwMX0seyJ4IjoyNjcuOTE0MDYyNSwieSI6MjI2fV0=" data-look="classic" marker-start="url(#my-svg_class-extensionStart)"/></g><g class="edgeLabels"><g class="edgeLabel"><g class="label" data-id="id_Animal_Dog_1" transform="translate(0, 0)"><foreignObject width="0" height="0"><div xmlns="http://www.w3.org/1999/xhtml" class="labelBkg" style="display: table-cell; white-space: nowrap; line-height: 1.5; max-width: 200px; text-align: center;"><span class="edgeLabel"></span></div></foreignObject></g></g><g class="edgeLabel"><g class="label" data-id="id_Animal_Cat_2" transform="translate(0, 0)"><foreignObject width="0" height="0"><div xmlns="http://www.w3.org/1999/xhtml" class="labelBkg" style="display: table-cell; white-space: nowrap; line-height: 1.5; max-width: 200px; text-align: center;"><span class="edgeLabel"></span></div></foreignObject></g></g></g><g class="nodes"><g class="node default" id="my-svg-classId-Animal-0" data-look="classic" transform="translate(171.45703125, 92)"><g class="basic label-container outer-path"><path d="M-71.8203125 -84 L71.8203125 -84 L71.8203125 84 L-71.8203125 84" stroke="none" stroke-width="0" fill="#eee" style=""/><path d="M-71.8203125 -84 C-21.37572859251034 -84, 29.068855314979317 -84, 71.8203125 -84 M-71.8203125 -84 C-36.79360733747354 -84, -1.7669021749470772 -84, 71.8203125 -84 M71.8203125 -84 C71.8203125 -27.86905830879482, 71.8203125 28.26188338241036, 71.8203125 84 M71.8203125 -84 C71.8203125 -32.581631816511376, 71.8203125 18.83673636697725, 71.8203125 84 M71.8203125 84 C36.22374696897332 84, 0.6271814379466463 84, -71.8203125 84 M71.8203125 84 C32.37533478559793 84, -7.069642928804143 84, -71.8203125 84 M-71.8203125 84 C-71.8203125 44.812316835159805, -71.8203125 5.624633670319611, -71.8203125 -84 M-71.8203125 84 C-71.8203125 35.944342074520186, -71.8203125 -12.111315850959627, -71.8203125 -84" stroke="#999" stroke-width="1.3" fill="none" stroke-dasharray="0 0" style=""/></g><g class="annotation-group text" transform="translate(0, -60)"/><g class="label-group text" transform="translate(-25.671875, -60)"><g class="label" style="font-weight: bolder" transform="translate(0,-12)"><foreignObject width="51.34375" height="24"><div xmlns="http://www.w3.org/1999/xhtml" style="display: table-cell; white-space: nowrap; line-height: 1.5; max-width: 98px; text-align: center;"><span class="nodeLabel markdown-node-label" style=""><p>Animal</p></span></div></foreignObject></g></g><g class="members-group text" transform="translate(-59.8203125, -12)"><g class="label" style="" transform="translate(0,-12)"><foreignObject width="93.96875" height="24"><div xmlns="http://www.w3.org/1999/xhtml" style="display: table-cell; white-space: nowrap; line-height: 1.5; max-width: 141px; text-align: center;"><span class="nodeLabel markdown-node-label" style=""><p>+String name</p></span></div></foreignObject></g><g class="label" style="" transform="translate(0,12)"><foreignObject width="58.03125" height="24"><div xmlns="http://www.w3.org/1999/xhtml" style="display: table-cell; white-space: nowrap; line-height: 1.5; max-width: 107px; text-align: center;"><span class="nodeLabel markdown-node-label" style=""><p>+int age</p></span></div></foreignObject></g></g><g class="methods-group text" transform="translate(-59.8203125, 60)"><g class="label" style="" transform="translate(0,-12)"><foreignObject width="60.734375" height="24"><div xmlns="http://www.w3.org/1999/xhtml" style="display: table-cell; white-space: nowrap; line-height: 1.5; max-width: 111px; text-align: center;"><span class="nodeLabel markdown-node-label" style=""><p>+speak()</p></span></div></foreignObject></g></g><g class="divider" style=""><path d="M-71.8203125 -36 C-32.65976812137582 -35.9997273713869, 6.500776257248361 -35.9994547427738, 71.8203125 -35.999 M-71.8203125 -36 C-40.7028168339305 -35.999783365634435, -9.585321167860997 -35.99956673126887, 71.8203125 -35.999" stroke="#999" stroke-width="1.3" fill="none" stroke-dasharray="0 0" style=""/></g><g class="divider" style=""><path d="M-71.8203125 36 C-14.756428539594317 36.00039726841874, 42.307455420811365 36.000794536837475, 71.8203125 36.001 M-71.8203125 36 C-14.645942499019263 36.00039803760253, 42.528427501961474 36.00079607520506, 71.8203125 36.001" stroke="#999" stroke-width="1.3" fill="none" stroke-dasharray="0 0" style=""/></g></g><g class="node default" id="my-svg-classId-Dog-1" data-look="classic" transform="translate(75, 298)"><g class="basic label-container outer-path"><path d="M-67 -72 L67 -72 L67 72 L-67 72" stroke="none" stroke-width="0" fill="#eee" style=""/><path d="M-67 -72 C-15.101724109416217 -72, 36.796551781167565 -72, 67 -72 M-67 -72 C-24.619910135047803 -72, 17.760179729904394 -72, 67 -72 M67 -72 C67 -23.17043103780216, 67 25.65913792439568, 67 72 M67 -72 C67 -38.74136587356995, 67 -5.482731747139894, 67 72 M67 72 C29.907700770621 72, -7.184598458758003 72, -67 72 M67 72 C40.1685356229233 72, 13.337071245846602 72, -67 72 M-67 72 C-67 22.44823865841962, -67 -27.10352268316076, -67 -72 M-67 72 C-67 36.36302092681606, -67 0.7260418536321254, -67 -72" stroke="#999" stroke-width="1.3" fill="none" stroke-dasharray="0 0" style=""/></g><g class="annotation-group text" transform="translate(0, -48)"/><g class="label-group text" transform="translate(-13.6875, -48)"><g class="label" style="font-weight: bolder" transform="translate(0,-12)"><foreignObject width="27.375" height="24"><div xmlns="http://www.w3.org/1999/xhtml" style="display: table-cell; white-space: nowrap; line-height: 1.5; max-width: 78px; text-align: center;"><span class="nodeLabel markdown-node-label" style=""><p>Dog</p></span></div></foreignObject></g></g><g class="members-group text" transform="translate(-55, 0)"><g class="label" style="" transform="translate(0,-12)"><foreignObject width="96.3125" height="24"><div xmlns="http://www.w3.org/1999/xhtml" style="display: table-cell; white-space: nowrap; line-height: 1.5; max-width: 142px; text-align: center;"><span class="nodeLabel markdown-node-label" style=""><p>+String breed</p></span></div></foreignObject></g></g><g class="methods-group text" transform="translate(-55, 48)"><g class="label" style="" transform="translate(0,-12)"><foreignObject width="57.796875" height="24"><div xmlns="http://www.w3.org/1999/xhtml" style="display: table-cell; white-space: nowrap; line-height: 1.5; max-width: 106px; text-align: center;"><span class="nodeLabel markdown-node-label" style=""><p>+fetch()</p></span></div></foreignObject></g></g><g class="divider" style=""><path d="M-67 -24 C-21.755804967525854 -23.99966235675349, 23.48839006494829 -23.999324713506976, 67 -23.999 M-67 -24 C-23.402126009239247 -23.999674642731414, 20.195747981521507 -23.999349285462824, 67 -23.999" stroke="#999" stroke-width="1.3" fill="none" stroke-dasharray="0 0" style=""/></g><g class="divider" style=""><path d="M-67 24 C-31.1415685219022 24.00026760023491, 4.716862956195598 24.000535200469823, 67 24.001 M-67 24 C-38.473188003873034 24.000212886656687, -9.946376007746075 24.000425773313374, 67 24.001" stroke="#999" stroke-width="1.3" fill="none" stroke-dasharray="0 0" style=""/></g></g><g class="node default" id="my-svg-classId-Cat-2" data-look="classic" transform="translate(267.9140625, 298)"><g class="basic label-container outer-path"><path d="M-75.9140625 -72 L75.9140625 -72 L75.9140625 72 L-75.9140625 72" stroke="none" stroke-width="0" fill="#eee" style=""/><path d="M-75.9140625 -72 C-21.994571372044717 -72, 31.924919755910565 -72, 75.9140625 -72 M-75.9140625 -72 C-37.941547717517295 -72, 0.030967064965409463 -72, 75.9140625 -72 M75.9140625 -72 C75.9140625 -39.59448572775522, 75.9140625 -7.1889714555104405, 75.9140625 72 M75.9140625 -72 C75.9140625 -20.781893076788364, 75.9140625 30.43621384642327, 75.9140625 72 M75.9140625 72 C25.13727431151775 72, -25.6395138769645 72, -75.9140625 72 M75.9140625 72 C31.6754702508701 72, -12.563121998259803 72, -75.9140625 72 M-75.9140625 72 C-75.9140625 17.08594135843068, -75.9140625 -37.82811728313864, -75.9140625 -72 M-75.9140625 72 C-75.9140625 41.452326025109855, -75.9140625 10.904652050219717, -75.9140625 -72" stroke="#999" stroke-width="1.3" fill="none" stroke-dasharray="0 0" style=""/></g><g class="annotation-group text" transform="translate(0, -48)"/><g class="label-group text" transform="translate(-12.328125, -48)"><g class="label" style="font-weight: bolder" transform="translate(0,-12)"><foreignObject width="24.65625" height="24"><div xmlns="http://www.w3.org/1999/xhtml" style="display: table-cell; white-space: nowrap; line-height: 1.5; max-width: 72px; text-align: center;"><span class="nodeLabel markdown-node-label" style=""><p>Cat</p></span></div></foreignObject></g></g><g class="members-group text" transform="translate(-63.9140625, 0)"><g class="label" style="" transform="translate(0,-12)"><foreignObject width="115.5" height="24"><div xmlns="http://www.w3.org/1999/xhtml" style="display: table-cell; white-space: nowrap; line-height: 1.5; max-width: 160px; text-align: center;"><span class="nodeLabel markdown-node-label" style=""><p>+boolean indoor</p></span></div></foreignObject></g></g><g class="methods-group text" transform="translate(-63.9140625, 48)"><g class="label" style="" transform="translate(0,-12)"><foreignObject width="50.234375" height="24"><div xmlns="http://www.w3.org/1999/xhtml" style="display: table-cell; white-space: nowrap; line-height: 1.5; max-width: 101px; text-align: center;"><span class="nodeLabel markdown-node-label" style=""><p>+purr()</p></span></div></foreignObject></g></g><g class="divider" style=""><path d="M-75.9140625 -24 C-15.578599572524972 -23.999602606809987, 44.756863354950056 -23.999205213619973, 75.9140625 -23.999 M-75.9140625 -24 C-17.07750019457424 -23.999612479161517, 41.75906211085152 -23.99922495832303, 75.9140625 -23.999" stroke="#999" stroke-width="1.3" fill="none" stroke-dasharray="0 0" style=""/></g><g class="divider" style=""><path d="M-75.9140625 24 C-22.61156324752521 24.000351071313386, 30.690936004949577 24.00070214262677, 75.9140625 24.001 M-75.9140625 24 C-27.032285753257824 24.000321954688875, 21.849490993484352 24.00064390937775, 75.9140625 24.001" stroke="#999" stroke-width="1.3" fill="none" stroke-dasharray="0 0" style=""/></g></g></g></g></g><defs><filter id="my-svg-drop-shadow" height="130%" width="130%"><feDropShadow dx="4" dy="4" stdDeviation="0" flood-opacity="0.06" flood-color="#000000"/></filter></defs><defs><filter id="my-svg-drop-shadow-small" height="150%" width="150%"><feDropShadow dx="2" dy="2" stdDeviation="0" flood-opacity="0.06" flood-color="#000000"/></filter></defs><linearGradient id="my-svg-gradient" gradientUnits="objectBoundingBox" x1="0%" y1="0%" x2="100%" y2="0%"><stop offset="0%" stop-color="hsl(0, 0%, 83.3333333333%)" stop-opacity="1"/><stop offset="100%" stop-color="hsl(0, 0%, 88.9215686275%)" stop-opacity="1"/></linearGradient></svg>