<svg id="my-svg" width="100%" xmlns="http://www.w3.org/2000/svg" xmlns:xlink="http://www.w3.org/1999/xlink" class="classDiagram" style="max-width: 404.492px; background-color: transparent;" viewBox="0 0 404.4921875 384" role="graphics-document document" aria-roledescription="class"><style>#my-svg{font-family:"trebuchet ms",verdana,arial,sans-serif;font-size:16px;fill:#000000;}@keyframes edge-animation-frame{from{stroke-dashoffset:0;}}@keyframes dash{to{stroke-dashoffset:0;}}#my-svg .edge-animation-slow{stroke-dasharray:9,5!important;stroke-dashoffset:900;animation:dash 50s linear infinite;stroke-linecap:round;}#my-svg .edge-animation-fast{stroke-dasharray:9,5!important;stroke-dashoffset:900;animation:dash 20s linear infinite;stroke-linecap:round;}#my-svg .error-icon{fill:#552222;}#my-svg .error-text{fill:#552222;stroke:#552222;}#my-svg .edge-thickness-normal{stroke-width:1px;}#my-svg .edge-thickness-thick{stroke-width:3.5px;}#my-svg .edge-pattern-solid{stroke-dasharray:0;}#my-svg .edge-thickness-invisible{stroke-width:0;fill:none;}#my-svg .edge-pattern-dashed{stroke-dasharray:3;}#my-svg .edge-pattern-dotted{stroke-dasharray:2;}#my-svg .marker{fill:#666;stroke:#666;}#my-svg .marker.cross{stroke:#666;}#my-svg svg{font-family:"trebuchet ms",verdana,arial,sans-serif;font-size:16px;}#my-svg p{margin:0;}#my-svg g.classGroup text{fill:#999;stroke:none;font-family:"trebuchet ms",verdana,arial,sans-serif;font-size:10px;}#my-svg g.classGroup text .title{font-weight:bolder;}#my-svg .cluster-label text{fill:#333;}#my-svg .cluster-label span{color:#333;}#my-svg .cluster-label span p{background-color:transparent;}#my-svg .cluster rect{fill:hsl(0, 0%, 98.9215686275%);stroke:#707070;stroke-width:1px;}#my-svg .cluster text{fill:#333;}#my-svg .cluster span{color:#333;}#my-svg .nodeLabel,#my-svg .edgeLabel{color:#111111;}#my-svg .noteLabel .nodeLabel,#my-svg .noteLabel .edgeLabel{color:#fff;}#my-svg .edgeLabel .label rect{fill:#eee;}#my-svg .label text{fill:#111111;}#my-svg .labelBkg{background:#eee;}#my-svg .edgeLabel .label span{background:#eee;}#my-svg .classTitle{font-weight:bolder;}#my-svg .node rect,#my-svg .node circle,#my-svg .node ellipse,#my-svg .node polygon,#my-svg .node path{fill:#eee;stroke:#999;stroke-width:1;}#my-svg .divider{stroke:#999;stroke-width:1;}#my-svg g.clickable{cursor:pointer;}#my-svg g.classGroup rect{fill:#eee;stroke:#999;}#my-svg g.classGroup line{stroke:#999;stroke-width:1;}#my-svg .classLabel .box{stroke:none;stroke-width:0;fill:#eee;opacity:0.5;}#my-svg .classLabel .label{fill:#999;font-size:10px;}#my-svg .relation{stroke:#666;stroke-width:1;fill:none;}#my-svg .dashed-line{stroke-dasharray:3;}#my-svg .dotted-line{stroke-dasharray:1 2;}#my-svg [id$="-compositionStart"],#my-svg .composition{fill:#666!important;stroke:#666!important;stroke-width:1;}#my-svg [id$="-compositionEnd"],#my-svg .composition{fill:#666!important;stroke:#666!important;stroke-width:1;}#my-svg [id$="-dependencyStart"],#my-svg .dependency{fill:#666!important;stroke:#666!important;stroke-width:1;}#my-svg [id$="-dependencyEnd"],#my-svg .dependency{fill:#666!important;stroke:#666!important;stroke-width:1;}#my-svg [id$="-extensionStart"],#my-svg .extension{fill:transparent!important;stroke:#666!important;stroke-width:1;}#my-svg [id$="-extensionEnd"],#my-svg .extension{fill:transparent!important;stroke:#666!important;stroke-width:1;}#my-svg [id$="-aggregationStart"],#my-svg .aggregation{fill:transparent!important;stroke:#666!important;stroke-width:1;}#my-svg [id$="-aggregationEnd"],#my-svg .aggregation{fill:transparent!important;stroke:#666!important;stroke-width:1;}#my-svg [id$="-lollipopStart"],#my-svg .lollipop{fill:#eee!important;stroke:#666!important;stroke-width:1;}#my-svg [id$="-lollipopEnd"],#my-svg .lollipop{fill:#eee!important;stroke:#666!important;stroke-width:1;}#my-svg .edgeTerminals{font-size:11px;line-height:initial;}#my-svg .classTitleText{text-anchor:middle;font-size:18px;fill:#000000;}#my-svg .edgeLabel[data-look="neo"]{background-color:white;text-align:center;}#my-svg .edgeLabel[data-look="neo"] p{background-color:white;}#my-svg .edgeLabel[data-look="neo"] rect{opacity:0.5;background-color:white;fill:white;}#my-svg .label-icon{display:inline-block;height:1em;overflow:visible;vertical-align:-0.125em;}#my-svg .node .label-icon path{fill:currentColor;stroke:revert;stroke-width:revert;}#my-svg .node .neo-node{stroke:#999;}#my-svg [data-look="neo"].node rect,#my-svg [data-look="neo"].cluster rect,#my-svg [data-look="neo"].node polygon{stroke:url(#my-svg-gradient);filter:drop-shadow( 1px 2px 2px rgba(185,185,185,1));}#my-svg [data-look="neo"].node path{stroke:url(#my-svg-gradient);stroke-width:1px;}#my-svg [data-look="neo"].node .outer-path{filter:drop-shadow( 1px 2px 2px rgba(185,185,185,1));}#my-svg [data-look="neo"].node .neo-line path{stroke:#999;filter:none;}#my-svg [data-look="neo"].node circle{stroke:url(#my-svg-gradient);filter:drop-shadow( 1px 2px 2px rgba(185,185,185,1));}#my-svg [data-look="neo"].node circle .state-start{fill:#000000;}#my-svg [data-look="neo"].icon-shape .icon{fill:url(#my-svg-gradient);filter:drop-shadow( 1px 2px 2px rgba(185,185,185,1));}#my-svg [data-look="neo"].icon-shape .icon-neo path{stroke:url(#my-svg-gradient);filter:drop-shadow( 1px 2px 2px rgba(185,185,185,1));}#my-svg :root{--mermaid-font-family:"trebuchet ms",verdana,arial,sans-serif;}</style><g><defs><marker id="my-svg_class-aggregationStart" class="marker aggregation class" refX="18" refY="7" markerWidth="190" markerHeight="240" orient="auto"><path d="M 18,7 L9,13 L1,7 L9,1 Z"/></marker></defs><defs><marker id="my-svg_class-aggregationEnd" class="marker aggregation class" refX="1" refY="7" markerWidth="20" markerHeight="28" orient="auto"><path d="M 18,7 L9,13 L1,7 L9,1 Z"/></marker></defs><defs><marker id="my-svg_class-aggregationStart-margin" class="marker aggregation class" refX="15" refY="7" markerWidth="190" markerHeight="240" orient="auto" markerUnits="userSpaceOnUse"><path d="M 18,7 L9,13 L1,7 L9,1 Z" style="stroke-width: 2;"/></marker></defs><defs><marker id="my-svg_class-aggregationEnd-margin" class="marker aggregation class" refX="1" refY="7" markerWidth="20" markerHeight="28" orient="auto" markerUnits="userSpaceOnUse"><path d="M 18,7 L9,13 L1,7 L9,1 Z" style="stroke-width: 2;"/></marker></defs><defs><marker id="my-svg_class-extensionStart" class="marker extension class" refX="18" refY="7" markerWidth="190" markerHeight="240" orient="auto" markerUnits="userSpaceOnUse"><path d="M 1,7 L18,13 V 1 Z"/></marker></defs><defs><marker id="my-svg_class-extensionEnd" class="marker extension class" refX="1" refY="7" markerWidth="20" markerHeight="28" orient="auto"><path d="M 1,1 V 13 L18,7 Z"/></marker></defs><marker id="my-svg_class-extensionStart-margin" class="marker extension class" refX="18" refY="7" markerWidth="20" markerHeight="28" orient="auto" markerUnits="userSpaceOnUse" viewBox="0 0 20 14"><polygon points="10,7 18,13 18,1" style="stroke-width: 2; stroke-dasharray: 0;"/></marker><defs><marker id="my-svg_class-extensionEnd-margin" class="marker extension class" refX="9" refY="7" markerWidth="20" markerHeight="28" orient="auto" markerUnits="userSpaceOnUse" viewBox="0 0 20 14"><polygon points="10,1 10,13 18,7" style="stroke-width: 2; stroke-dasharray: 0;"/></marker></defs><defs><marker id="my-svg_class-compositionStart" class="marker composition class" refX="18" refY="7" markerWidth="190" markerHeight="240" orient="auto"><path d="M 18,7 L9,13 L1,7 L9,1 Z"/></marker></defs><defs><marker id="my-svg_class-compositionEnd" class="marker composition class" refX="1" refY="7" markerWidth="20" markerHeight="28" orient="auto"><path d="M 18,7 L9,13 L1,7 L9,1 Z"/></marker></defs><defs><marker id="my-svg_class-compositionStart-margin" class="marker composition class" refX="15" refY="7" markerWidth="190" markerHeight="240" orient="auto" markerUnits="userSpaceOnUse"><path viewBox="0 0 15 15" d="M 18,7 L9,13 L1,7 L9,1 Z" style="stroke-width: 0;"/></marker></defs><defs><marker id="my-svg_class-compositionEnd-margin" class="marker composition class" refX="3.5" refY="7" markerWidth="20" markerHeight="28" orient="auto" markerUnits="userSpaceOnUse"><path d="M 18,7 L9,13 L1,7 L9,1 Z" style="stroke-width: 0;"/></marker></defs><defs><marker id="my-svg_class-dependencyStart" class="marker dependency class" refX="6" refY="7" markerWidth="190" markerHeight="240" orient="auto"><path d="M 5,7 L9,13 L1,7 L9,1 Z"/></marker></defs><defs><marker id="my-svg_class-dependencyEnd" class="marker dependency class" refX="13" refY="7" markerWidth="20" markerHeight="28" orient="auto"><path d="M 18,7 L9,13 L14,7 L9,1 Z"/></marker></defs><defs><marker id="my-svg_class-dependencyStart-margin" class="marker dependency class" refX="4" refY="7" markerWidth="190" markerHeight="240" orient="auto" markerUnits="userSpaceOnUse"><path d="M 5,7 L9,13 L1,7 L9,1 Z" style="stroke-width: 0;"/></marker></defs><defs><marker id="my-svg_class-dependencyEnd-margin" class="marker dependency class" refX="16" refY="7" markerWidth="20" markerHeight="28" orient="auto" markerUnits="userSpaceOnUse"><path d="M 18,7 L9,13 L14,7 L9,1 Z" style="stroke-width: 0;"/></marker></defs><defs><marker id="my-svg_class-lollipopStart" class="marker lollipop class" refX="13" refY="7" markerWidth="190" markerHeight="240" orient="auto"><circle fill="transparent" cx="7" cy="7" r="6"/></marker></defs><defs><marker id="my-svg_class-lollipopEnd" class="marker lollipop class" refX="1" refY="7" markerWidth="190" markerHeight="240" orient="auto"><circle fill="transparent" cx="7" cy="7" r="6"/></marker></defs><defs><marker id="my-svg_class-lollipopStart-margin" class="marker lollipop class" refX="13" refY="7" markerWidth="190" markerHeight="240" orient="auto" markerUnits="userSpaceOnUse"><circle fill="transparent" cx="7" cy="7" r="6" stroke-width="2"/></marker></defs><defs><marker id="my-svg_class-lollipopEnd-margin" class="marker lollipop class" refX="1" refY="7" markerWidth="190" markerHeight="240" orient="auto" markerUnits="userSpaceOnUse"><circle fill="transparent" cx="7" cy="7" r="6" stroke-width="2"/></marker></defs><g class="root"><g class="clusters"/><g class="edgePaths"><path d="M103.544,169.625L101.101,171.855C98.657,174.084,93.77,178.542,91.326,186.938C88.883,195.333,88.883,207.667,88.883,213.833L88.883,220" id="my-svg-id_Shape_Circle_1" class="edge-thickness-normal edge-pattern-dashed relation" style=";;;" data-edge="true" data-et="edge" data-id="id_Shape_Circle_1" data-points="W3sieCI6MTE2LjI4ODU3NDIxODc1LCJ5IjoxNTh9LHsieCI6ODguODgyODEyNSwieSI6MTgzfSx7IngiOjg4Ljg4MjgxMjUsInkiOjIyMH1d" data-look="classic" marker-start="url(#my-svg_class-extensionStart)"/><path d="M293.467,169.625L295.911,171.855C298.354,174.084,303.242,178.542,305.685,184.938C308.129,191.333,308.129,199.667,308.129,203.833L308.129,208" id="my-svg-id_Shape_Rectangle_2" class="edge-thickness-normal edge-pattern-dashed relation" style=";;;" data-edge="true" data-et="edge" data-id="id_Shape_Rectangle_2" data-points="W3sieCI6MjgwLjcyMzE0NDUzMTI1LCJ5IjoxNTh9LHsieCI6MzA4LjEyODkwNjI1LCJ5IjoxODN9LHsieCI6MzA4LjEyODkwNjI1LCJ5IjoyMDh9XQ==" data-look="classic" marker-start="url(#my-svg_class-extensionStart)"/></g><g class="edgeLabels"><g class="edgeLabel"><g class="label" data-id="id_Shape_Circle_1" transform="translate(0, 0)"><foreignObject width="0" height="0"><div xmlns="http://www.w3.org/1999/xhtml" class="labelBkg" style="display: table-cell; white-space: nowrap; line-height: 1.5; max-width: 200px; text-align: center;"><span class="edgeLabel"></span></div></foreignObject></g></g><g class="edgeLabel"><g class="label" data-id="id_Shape_Rectangle_2" transform="translate(0, 0)"><foreignObject width="0" height="0"><div xmlns="http://www.w3.org/1999/xhtml" class="labelBkg" style="display: table-cell; white-space: nowrap; line-height: 1.5; max-width: 200px; text-align: center;"><span class="edgeLabel"></span></div></foreignObject></g></g></g><g class="nodes"><g class="node default" id="my-svg-classId-Shape-0" data-look="classic" transform="translate(198.505859375, 83)"><g class="basic label-container outer-path"><path d="M-90.59375 -75 L90.59375 -75 L90.59375 75 L-90.59375 75" stroke="none" stroke-width="0" fill="#eee" style=""/><path d="M-90.59375 -75 C-29.80800846343027 -75, 30.97773307313946 -75, 90.59375 -75 M-90.59375 -75 C-49.8454753566865 -75, -9.097200713372999 -75, 90.59375 -75 M90.59375 -75 C90.59375 -26.95897527640875, 90.59375 21.0820494471825, 90.59375 75 M90.59375 -75 C90.59375 -15.985963103697856, 90.59375 43.02807379260429, 90.59375 75 M90.59375 75 C37.31627140465002 75, -15.961207190699966 75, -90.59375 75 M90.59375 75 C35.58082683046872 75, -19.432096339062554 75, -90.59375 75 M-90.59375 75 C-90.59375 35.86546420113864, -90.59375 -3.2690715977227143, -90.59375 -75 M-90.59375 75 C-90.59375 25.73257085055858, -90.59375 -23.53485829888284, -90.59375 -75" stroke="#999" stroke-width="1.3" fill="none" stroke-dasharray="0 0" style=""/></g><g class="annotation-group text" transform="translate(-41.171875, -51)"><g class="label" style="" transform="translate(0,-12)"><foreignObject width="82.34375" height="24"><div xmlns="http://www.w3.org/1999/xhtml" style="display: table-cell; white-space: nowrap; line-height: 1.5; max-width: 122px; text-align: center;"><span class="nodeLabel markdown-node-label" style=""><p>«interface»</p></span></div></foreignObject></g></g><g class="label-group text" transform="translate(-22.3515625, -27)"><g class="label" style="font-weight: bolder" transform="translate(0,-12)"><foreignObject width="44.703125" height="24"><div xmlns="http://www.w3.org/1999/xhtml" style="display: table-cell; white-space: nowrap; line-height: 1.5; max-width: 89px; text-align: center;"><span class="nodeLabel markdown-node-label" style=""><p>Shape</p></span></div></foreignObject></g></g><g class="members-group text" transform="translate(-78.59375, 21)"/><g class="methods-group text" transform="translate(-78.59375, 51)"><g class="label" style="" transform="translate(0,-12)"><foreignObject width="116.015625" height="24"><div xmlns="http://www.w3.org/1999/xhtml" style="display: table-cell; white-space: nowrap; line-height: 1.5; max-width: 157px; text-align: center;"><span class="nodeLabel markdown-node-label" style=""><p>+area() : double</p></span></div></foreignObject></g></g><g class="divider" style=""><path d="M-90.59375 -3 C-41.42165600770859 -2.9997286121062863, 7.750437984582817 -2.999457224212572, 90.59375 -2.999 M-90.59375 -3 C-51.26503791935446 -2.999782939153746, -11.936325838708925 -2.999565878307492, 90.59375 -2.999" stroke="#999" stroke-width="1.3" fill="none" stroke-dasharray="0 0" style=""/></g><g class="divider" style=""><path d="M-90.59375 21 C-29.335778548626017 21.000338091598213, 31.922192902747966 21.00067618319643, 90.59375 21.001 M-90.59375 21 C-20.03667086213305 21.00038941471756, 50.5204082757339 21.00077882943512, 90.59375 21.001" stroke="#999" stroke-width="1.3" fill="none" stroke-dasharray="0 0" style=""/></g></g><g class="node default" id="my-svg-classId-Circle-1" data-look="classic" transform="translate(88.8828125, 292)"><g class="basic label-container outer-path"><path d="M-80.8828125 -72 L80.8828125 -72 L80.8828125 72 L-80.8828125 72" stroke="none" stroke-width="0" fill="#eee" style=""/><path d="M-80.8828125 -72 C-41.502357492319774 -72, -2.1219024846395484 -72, 80.8828125 -72 M-80.8828125 -72 C-19.374521241649603 -72, 42.133770016700794 -72, 80.8828125 -72 M80.8828125 -72 C80.8828125 -19.015178071377242, 80.8828125 33.969643857245515, 80.8828125 72 M80.8828125 -72 C80.8828125 -17.229748696445178, 80.8828125 37.540502607109644, 80.8828125 72 M80.8828125 72 C17.22093535161128 72, -46.44094179677744 72, -80.8828125 72 M80.8828125 72 C25.832547304600773 72, -29.217717890798454 72, -80.8828125 72 M-80.8828125 72 C-80.8828125 22.513438449253407, -80.8828125 -26.973123101493186, -80.8828125 -72 M-80.8828125 72 C-80.8828125 27.75768328176038, -80.8828125 -16.484633436479243, -80.8828125 -72" stroke="#999" stroke-width="1.3" fill="none" stroke-dasharray="0 0" style=""/></g><g class="annotation-group text" transform="translate(0, -48)"/><g class="label-group text" transform="translate(-21.75, -48)"><g class="label" style="font-weight: bolder" transform="translate(0,-12)"><foreignObject width="43.5" height="24"><div xmlns="http://www.w3.org/1999/xhtml" style="display: table-cell; white-space: nowrap; line-height: 1.5; max-width: 89px; text-align: center;"><span class="nodeLabel markdown-node-label" style=""><p>Circle</p></span></div></foreignObject></g></g><g class="members-group text" transform="translate(-68.8828125, 0)"><g class="label" style="" transform="translate(0,-12)"><foreignObject width="105.140625" height="24"><div xmlns="http://www.w3.org/1999/xhtml" style="display: table-cell; white-space: nowrap; line-height: 1.5; max-width: 150px; text-align: center;"><span class="nodeLabel markdown-node-label" style=""><p>+double radius</p></span></div></foreignObject></g></g><g class="methods-group text" transform="translate(-68.8828125, 48)"><g class="label" style="" transform="translate(0,-12)"><foreignObject width="116.015625" height="24"><div xmlns="http://www.w3.org/1999/xhtml" style="display: table-cell; white-space: nowrap; line-height: 1.5; max-width: 157px; text-align: center;"><span class="nodeLabel markdown-node-label" style=""><p>+area() : double</p></span></div></foreignObject></g></g><g class="divider" style=""><path d="M-80.8828125 -24 C-48.43771465639817 -23.999799431443833, -15.992616812796342 -23.999598862887666, 80.8828125 -23.999 M-80.8828125 -24 C-30.200026492365538 -23.999686690012123, 20.482759515268924 -23.999373380024245, 80.8828125 -23.999" stroke="#999" stroke-width="1.3" fill="none" stroke-dasharray="0 0" style=""/></g><g class="divider" style=""><path d="M-80.8828125 24 C-41.44390005060077 24.000243802800806, -2.0049876012015346 24.000487605601617, 80.8828125 24.001 M-80.8828125 24 C-38.84903707731746 24.000259843680773, 3.1847383453650764 24.00051968736155, 80.8828125 24.001" stroke="#999" stroke-width="1.3" fill="none" stroke-dasharray="0 0" style=""/></g></g><g class="node default" id="my-svg-classId-Rectangle-2" data-look="classic" transform="translate(308.12890625, 292)"><g class="basic label-container outer-path"><path d="M-88.36328125 -84 L88.36328125 -84 L88.36328125 84 L-88.36328125 84" stroke="none" stroke-width="0" fill="#eee" style=""/><path d="M-88.36328125 -84 C-40.62882968563365 -84, 7.1056218787327055 -84, 88.36328125 -84 M-88.36328125 -84 C-31.907584902271573 -84, 24.548111445456854 -84, 88.36328125 -84 M88.36328125 -84 C88.36328125 -22.70866110632909, 88.36328125 38.58267778734182, 88.36328125 84 M88.36328125 -84 C88.36328125 -26.270631087370155, 88.36328125 31.45873782525969, 88.36328125 84 M88.36328125 84 C23.56386555015584 84, -41.23555014968832 84, -88.36328125 84 M88.36328125 84 C18.149096665946956 84, -52.06508791810609 84, -88.36328125 84 M-88.36328125 84 C-88.36328125 26.87491348598776, -88.36328125 -30.250173028024477, -88.36328125 -84 M-88.36328125 84 C-88.36328125 34.45604137896519, -88.36328125 -15.087917242069622, -88.36328125 -84" stroke="#999" stroke-width="1.3" fill="none" stroke-dasharray="0 0" style=""/></g><g class="annotation-group text" transform="translate(0, -60)"/><g class="label-group text" transform="translate(-36.7109375, -60)"><g class="label" style="font-weight: bolder" transform="translate(0,-12)"><foreignObject width="73.421875" height="24"><div xmlns="http://www.w3.org/1999/xhtml" style="display: table-cell; white-space: nowrap; line-height: 1.5; max-width: 114px; text-align: center;"><span class="nodeLabel markdown-node-label" style=""><p>Rectangle</p></span></div></foreignObject></g></g><g class="members-group text" transform="translate(-76.36328125, -12)"><g class="label" style="" transform="translate(0,-12)"><foreignObject width="102.28125" height="24"><div xmlns="http://www.w3.org/1999/xhtml" style="display: table-cell; white-space: nowrap; line-height: 1.5; max-width: 147px; text-align: center;"><span class="nodeLabel markdown-node-label" style=""><p>+double width</p></span></div></foreignObject></g><g class="label" style="" transform="translate(0,12)"><foreignObject width="106.96875" height="24"><div xmlns="http://www.w3.org/1999/xhtml" style="display: table-cell; white-space: nowrap; line-height: 1.5; max-width: 151px; text-align: center;"><span class="nodeLabel markdown-node-label" style=""><p>+double height</p></span></div></foreignObject></g></g><g class="methods-group text" transform="translate(-76.36328125, 60)"><g class="label" style="" transform="translate(0,-12)"><foreignObject width="116.015625" height="24"><div xmlns="http://www.w3.org/1999/xhtml" style="display: table-cell; white-space: nowrap; line-height: 1.5; max-width: 157px; text-align: center;"><span class="nodeLabel markdown-node-label" style=""><p>+area() : double</p></span></div></foreignObject></g></g><g class="divider" style=""><path d="M-88.36328125 -36 C-27.69600915427334 -35.99965671673099, 32.97126294145332 -35.999313433461985, 88.36328125 -35.999 M-88.36328125 -36 C-18.15927357763438 -35.99960275350418, 52.04473409473124 -35.99920550700835, 88.36328125 -35.999" stroke="#999" stroke-width="1.3" fill="none" stroke-dasharray="0 0" style=""/></g><g class="divider" style=""><path d="M-88.36328125 36 C-19.279440134082805 36.000390908079346, 49.80440098183439 36.000781816158685, 88.36328125 36.001 M-88.36328125 36 C-25.9564937806066 36.00035312624535, 36.4502936887868 36.0007062524907, 88.36328125 36.001" stroke="#999" stroke-width="1.3" fill="none" stroke-dasharray="0 0" style=""/></g></g></g></g></g><defs><filter id="my-svg-drop-shadow" height="130%" width="130%"><feDropShadow dx="4" dy="4" stdDeviation="0" flood-opacity="0.06" flood-color="#000000"/></filter></defs><defs><filter id="my-svg-drop-shadow-small" height="150%" width="150%"><feDropShadow dx="2" dy="2" stdDeviation="0" flood-opacity="0.06" flood-color="#000000"/></filter></defs><linearGradient id="my-svg-gradient" gradientUnits="objectBoundingBox" x1="0%" y1="0%" x2="100%" y2="0%"><stop offset="0%" stop-color="hsl(0, 0%, 83.3333333333%)" stop-opacity="1"/><stop offset="100%" stop-color="hsl(0, 0%, 88.9215686275%)" stop-opacity="1"/></linearGradient></svg>