<svg id="my-svg" width="100%" xmlns="http://www.w3.org/2000/svg" xmlns:xlink="http://www.w3.org/1999/xlink" class="flowchart" style="max-width: 390.742px; background-color: transparent;" viewBox="0 0 390.7421875 800.71875" role="graphics-document document" aria-roledescription="flowchart-v2"><style>#my-svg{font-family:"trebuchet ms",verdana,arial,sans-serif;font-size:16px;fill:#000000;}@keyframes edge-animation-frame{from{stroke-dashoffset:0;}}@keyframes dash{to{stroke-dashoffset:0;}}#my-svg .edge-animation-slow{stroke-dasharray:9,5!important;stroke-dashoffset:900;animation:dash 50s linear infinite;stroke-linecap:round;}#my-svg .edge-animation-fast{stroke-dasharray:9,5!important;stroke-dashoffset:900;animation:dash 20s linear infinite;stroke-linecap:round;}#my-svg .error-icon{fill:#552222;}#my-svg .error-text{fill:#552222;stroke:#552222;}#my-svg .edge-thickness-normal{stroke-width:1px;}#my-svg .edge-thickness-thick{stroke-width:3.5px;}#my-svg .edge-pattern-solid{stroke-dasharray:0;}#my-svg .edge-thickness-invisible{stroke-width:0;fill:none;}#my-svg .edge-pattern-dashed{stroke-dasharray:3;}#my-svg .edge-pattern-dotted{stroke-dasharray:2;}#my-svg .marker{fill:#666;stroke:#666;}#my-svg .marker.cross{stroke:#666;}#my-svg svg{font-family:"trebuchet ms",verdana,arial,sans-serif;font-size:16px;}#my-svg p{margin:0;}#my-svg .label{font-family:"trebuchet ms",verdana,arial,sans-serif;color:#000000;}#my-svg .cluster-label text{fill:#333;}#my-svg .cluster-label span{color:#333;}#my-svg .cluster-label span p{background-color:transparent;}#my-svg .label text,#my-svg span{fill:#000000;color:#000000;}#my-svg .node rect,#my-svg .node circle,#my-svg .node ellipse,#my-svg .node polygon,#my-svg .node path{fill:#eee;stroke:#999;stroke-width:1px;}#my-svg .rough-node .label text,#my-svg .node .label text,#my-svg .image-shape .label,#my-svg .icon-shape .label{text-anchor:middle;}#my-svg .node .katex path{fill:#000;stroke:#000;stroke-width:1px;}#my-svg .rough-node .label,#my-svg .node .label,#my-svg .image-shape .label,#my-svg .icon-shape .label{text-align:center;}#my-svg .node.clickable{cursor:pointer;}#my-svg .root .anchor path{fill:#666!important;stroke-width:0;stroke:#666;}#my-svg .arrowheadPath{fill:#333333;}#my-svg .edgePath .path{stroke:#666;stroke-width:1px;}#my-svg .flowchart-link{stroke:#666;fill:none;}#my-svg .edgeLabel{background-color:white;text-align:center;}#my-svg .edgeLabel p{background-color:white;}#my-svg .edgeLabel rect{opacity:0.5;background-color:white;fill:white;}#my-svg .labelBkg{background-color:rgba(255, 255, 255, 0.5);}#my-svg .cluster rect{fill:hsl(0, 0%, 98.9215686275%);stroke:#707070;stroke-width:1px;}#my-svg .cluster text{fill:#333;}#my-svg .cluster span{color:#333;}#my-svg div.mermaidTooltip{position:absolute;text-align:center;max-width:200px;padding:2px;font-family:"trebuchet ms",verdana,arial,sans-serif;font-size:12px;background:hsl(-160, 0%, 93.3333333333%);border:1px solid #707070;border-radius:2px;pointer-events:none;z-index:100;}#my-svg .flowchartTitleText{text-anchor:middle;font-size:18px;fill:#000000;}#my-svg rect.text{fill:none;stroke-width:0;}#my-svg .icon-shape,#my-svg .image-shape{background-color:white;text-align:center;}#my-svg .icon-shape p,#my-svg .image-shape p{background-color:white;padding:2px;}#my-svg .icon-shape .label rect,#my-svg .image-shape .label rect{opacity:0.5;background-color:white;fill:white;}#my-svg .label-icon{display:inline-block;height:1em;overflow:visible;vertical-align:-0.125em;}#my-svg .node .label-icon path{fill:currentColor;stroke:revert;stroke-width:revert;}#my-svg .node .neo-node{stroke:#999;}#my-svg [data-look="neo"].node rect,#my-svg [data-look="neo"].cluster rect,#my-svg [data-look="neo"].node polygon{stroke:url(#my-svg-gradient);filter:drop-shadow( 1px 2px 2px rgba(185,185,185,1));}#my-svg [data-look="neo"].node path{stroke:url(#my-svg-gradient);stroke-width:1px;}#my-svg [data-look="neo"].node .outer-path{filter:drop-shadow( 1px 2px 2px rgba(185,185,185,1));}#my-svg [data-look="neo"].node .neo-line path{stroke:#999;filter:none;}#my-svg [data-look="neo"].node circle{stroke:url(#my-svg-gradient);filter:drop-shadow( 1px 2px 2px rgba(185,185,185,1));}#my-svg [data-look="neo"].node circle .state-start{fill:#000000;}#my-svg [data-look="neo"].icon-shape .icon{fill:url(#my-svg-gradient);filter:drop-shadow( 1px 2px 2px rgba(185,185,185,1));}#my-svg [data-look="neo"].icon-shape .icon-neo path{stroke:url(#my-svg-gradient);filter:drop-shadow( 1px 2px 2px rgba(185,185,185,1));}#my-svg :root{--mermaid-font-family:"trebuchet ms",verdana,arial,sans-serif;}</style><g><marker id="my-svg_flowchart-v2-pointEnd" class="marker flowchart-v2" viewBox="0 0 10 10" refX="5" refY="5" markerUnits="userSpaceOnUse" markerWidth="8" markerHeight="8" orient="auto"><path d="M 0 0 L 10 5 L 0 10 z" class="arrowMarkerPath" style="stroke-width: 1; stroke-dasharray: 1, 0;"/></marker><marker id="my-svg_flowchart-v2-pointStart" class="marker flowchart-v2" viewBox="0 0 10 10" refX="4.5" refY="5" markerUnits="userSpaceOnUse" markerWidth="8" markerHeight="8" orient="auto"><path d="M 0 5 L 10 10 L 10 0 z" class="arrowMarkerPath" style="stroke-width: 1; stroke-dasharray: 1, 0;"/></marker><marker id="my-svg_flowchart-v2-pointEnd-margin" class="marker flowchart-v2" viewBox="0 0 11.5 14" refX="11.5" refY="7" markerUnits="userSpaceOnUse" markerWidth="10.5" markerHeight="14" orient="auto"><path d="M 0 0 L 11.5 7 L 0 14 z" class="arrowMarkerPath" style="stroke-width: 0; stroke-dasharray: 1, 0;"/></marker><marker id="my-svg_flowchart-v2-pointStart-margin" class="marker flowchart-v2" viewBox="0 0 11.5 14" refX="1" refY="7" markerUnits="userSpaceOnUse" markerWidth="11.5" markerHeight="14" orient="auto"><polygon points="0,7 11.5,14 11.5,0" class="arrowMarkerPath" style="stroke-width: 0; stroke-dasharray: 1, 0;"/></marker><marker id="my-svg_flowchart-v2-circleEnd" class="marker flowchart-v2" viewBox="0 0 10 10" refX="11" refY="5" markerUnits="userSpaceOnUse" markerWidth="11" markerHeight="11" orient="auto"><circle cx="5" cy="5" r="5" class="arrowMarkerPath" style="stroke-width: 1; stroke-dasharray: 1, 0;"/></marker><marker id="my-svg_flowchart-v2-circleStart" class="marker flowchart-v2" viewBox="0 0 10 10" refX="-1" refY="5" markerUnits="userSpaceOnUse" markerWidth="11" markerHeight="11" orient="auto"><circle cx="5" cy="5" r="5" class="arrowMarkerPath" style="stroke-width: 1; stroke-dasharray: 1, 0;"/></marker><marker id="my-svg_flowchart-v2-circleEnd-margin" class="marker flowchart-v2" viewBox="0 0 10 10" refY="5" refX="12.25" markerUnits="userSpaceOnUse" markerWidth="14" markerHeight="14" orient="auto"><circle cx="5" cy="5" r="5" class="arrowMarkerPath" style="stroke-width: 0; stroke-dasharray: 1, 0;"/></marker><marker id="my-svg_flowchart-v2-circleStart-margin" class="marker flowchart-v2" viewBox="0 0 10 10" refX="-2" refY="5" markerUnits="userSpaceOnUse" markerWidth="14" markerHeight="14" orient="auto"><circle cx="5" cy="5" r="5" class="arrowMarkerPath" style="stroke-width: 0; stroke-dasharray: 1, 0;"/></marker><marker id="my-svg_flowchart-v2-crossEnd" class="marker cross flowchart-v2" viewBox="0 0 11 11" refX="12" refY="5.2" markerUnits="userSpaceOnUse" markerWidth="11" markerHeight="11" orient="auto"><path d="M 1,1 l 9,9 M 10,1 l -9,9" class="arrowMarkerPath" style="stroke-width: 2; stroke-dasharray: 1, 0;"/></marker><marker id="my-svg_flowchart-v2-crossStart" class="marker cross flowchart-v2" viewBox="0 0 11 11" refX="-1" refY="5.2" markerUnits="userSpaceOnUse" markerWidth="11" markerHeight="11" orient="auto"><path d="M 1,1 l 9,9 M 10,1 l -9,9" class="arrowMarkerPath" style="stroke-width: 2; stroke-dasharray: 1, 0;"/></marker><marker id="my-svg_flowchart-v2-crossEnd-margin" class="marker cross flowchart-v2" viewBox="0 0 15 15" refX="17.7" refY="7.5" markerUnits="userSpaceOnUse" markerWidth="12" markerHeight="12" orient="auto"><path d="M 1,1 L 14,14 M 1,14 L 14,1" class="arrowMarkerPath" style="stroke-width: 2.5;"/></marker><marker id="my-svg_flowchart-v2-crossStart-margin" class="marker cross flowchart-v2" viewBox="0 0 15 15" refX="-3.5" refY="7.5" markerUnits="userSpaceOnUse" markerWidth="12" markerHeight="12" orient="auto"><path d="M 1,1 L 14,14 M 1,14 L 14,1" class="arrowMarkerPath" style="stroke-width: 2.5; stroke-dasharray: 1, 0;"/></marker><g class="root"><g class="clusters"/><g class="edgePaths"><path d="M193.539,62L193.539,66.167C193.539,70.333,193.539,78.667,193.539,86.333C193.539,94,193.539,101,193.539,104.5L193.539,108" id="my-svg-L_A_B_0" class="edge-thickness-normal edge-pattern-solid edge-thickness-normal edge-pattern-solid flowchart-link" style=";" data-edge="true" data-et="edge" data-id="L_A_B_0" data-points="W3sieCI6MTkzLjUzOTA2MjUsInkiOjYyfSx7IngiOjE5My41MzkwNjI1LCJ5Ijo4N30seyJ4IjoxOTMuNTM5MDYyNSwieSI6MTEyfV0=" data-look="classic" marker-end="url(#my-svg_flowchart-v2-pointEnd)"/><path d="M193.539,166L193.539,170.167C193.539,174.333,193.539,182.667,193.539,190.333C193.539,198,193.539,205,193.539,208.5L193.539,212" id="my-svg-L_B_C_0" class="edge-thickness-normal edge-pattern-solid edge-thickness-normal edge-pattern-solid flowchart-link" style=";" data-edge="true" data-et="edge" data-id="L_B_C_0" data-points="W3sieCI6MTkzLjUzOTA2MjUsInkiOjE2Nn0seyJ4IjoxOTMuNTM5MDYyNSwieSI6MTkxfSx7IngiOjE5My41MzkwNjI1LCJ5IjoyMTZ9XQ==" data-look="classic" marker-end="url(#my-svg_flowchart-v2-pointEnd)"/><path d="M161.105,311.285L149.162,322.857C137.219,334.43,113.332,357.574,101.389,379.813C89.445,402.052,89.445,423.385,89.445,444.719C89.445,466.052,89.445,487.385,89.445,508.719C89.445,530.052,89.445,551.385,89.445,570.719C89.445,590.052,89.445,607.385,89.445,619.552C89.445,631.719,89.445,638.719,89.445,642.219L89.445,645.719" id="my-svg-L_C_D_0" class="edge-thickness-normal edge-pattern-solid edge-thickness-normal edge-pattern-solid flowchart-link" style=";" data-edge="true" data-et="edge" data-id="L_C_D_0" data-points="W3sieCI6MTYxLjEwNTQ5MTA4NTA0MjMsInkiOjMxMS4yODUxNzg1ODUwNDIzM30seyJ4Ijo4OS40NDUzMTI1LCJ5IjozODAuNzE4NzV9LHsieCI6ODkuNDQ1MzEyNSwieSI6NDQ0LjcxODc1fSx7IngiOjg5LjQ0NTMxMjUsInkiOjUwOC43MTg3NX0seyJ4Ijo4OS40NDUzMTI1LCJ5Ijo1NzIuNzE4NzV9LHsieCI6ODkuNDQ1MzEyNSwieSI6NjI0LjcxODc1fSx7IngiOjg5LjQ0NTMxMjUsInkiOjY0OS43MTg3NX1d" data-look="classic" marker-end="url(#my-svg_flowchart-v2-pointEnd)"/><path d="M225.973,311.285L237.916,322.857C249.859,334.43,273.746,357.574,285.689,374.646C297.633,391.719,297.633,402.719,297.633,408.219L297.633,413.719" id="my-svg-L_C_E_0" class="edge-thickness-normal edge-pattern-solid edge-thickness-normal edge-pattern-solid flowchart-link" style=";" data-edge="true" data-et="edge" data-id="L_C_E_0" data-points="W3sieCI6MjI1Ljk3MjYzMzkxNDk1NzcsInkiOjMxMS4yODUxNzg1ODUwNDIzM30seyJ4IjoyOTcuNjMyODEyNSwieSI6MzgwLjcxODc1fSx7IngiOjI5Ny42MzI4MTI1LCJ5Ijo0MTcuNzE4NzV9XQ==" data-look="classic" marker-end="url(#my-svg_flowchart-v2-pointEnd)"/><path d="M297.633,471.719L297.633,477.885C297.633,484.052,297.633,496.385,297.633,508.052C297.633,519.719,297.633,530.719,297.633,536.219L297.633,541.719" id="my-svg-L_E_F_0" class="edge-thickness-normal edge-pattern-solid edge-thickness-normal edge-pattern-solid flowchart-link" style=";" data-edge="true" data-et="edge" data-id="L_E_F_0" data-points="W3sieCI6Mjk3LjYzMjgxMjUsInkiOjQ3MS43MTg3NX0seyJ4IjoyOTcuNjMyODEyNSwieSI6NTA4LjcxODc1fSx7IngiOjI5Ny42MzI4MTI1LCJ5Ijo1NDUuNzE4NzV9XQ==" data-look="classic" marker-end="url(#my-svg_flowchart-v2-pointEnd)"/><path d="M297.633,599.719L297.633,603.885C297.633,608.052,297.633,616.385,297.633,624.052C297.633,631.719,297.633,638.719,297.633,642.219L297.633,645.719" id="my-svg-L_F_G_0" class="edge-thickness-normal edge-pattern-solid edge-thickness-normal edge-pattern-solid flowchart-link" style=";" data-edge="true" data-et="edge" data-id="L_F_G_0" data-points="W3sieCI6Mjk3LjYzMjgxMjUsInkiOjU5OS43MTg3NX0seyJ4IjoyOTcuNjMyODEyNSwieSI6NjI0LjcxODc1fSx7IngiOjI5Ny42MzI4MTI1LCJ5Ijo2NDkuNzE4NzV9XQ==" data-look="classic" marker-end="url(#my-svg_flowchart-v2-pointEnd)"/><path d="M89.445,703.719L89.445,707.885C89.445,712.052,89.445,720.385,102.456,730.16C115.466,739.934,141.487,751.149,154.498,756.756L167.508,762.364" id="my-svg-L_D_H_0" class="edge-thickness-normal edge-pattern-solid edge-thickness-normal edge-pattern-solid flowchart-link" style=";" data-edge="true" data-et="edge" data-id="L_D_H_0" data-points="W3sieCI6ODkuNDQ1MzEyNSwieSI6NzAzLjcxODc1fSx7IngiOjg5LjQ0NTMxMjUsInkiOjcyOC43MTg3NX0seyJ4IjoxNzEuMTgxNzEwMDE2MTE5NzIsInkiOjc2My45NDcyNDg5NjgxNjQyfV0=" data-look="classic" marker-end="url(#my-svg_flowchart-v2-pointEnd)"/><path d="M297.633,703.719L297.633,707.885C297.633,712.052,297.633,720.385,284.788,730.157C271.943,739.928,246.253,751.138,233.408,756.743L220.563,762.348" id="my-svg-L_G_H_0" class="edge-thickness-normal edge-pattern-solid edge-thickness-normal edge-pattern-solid flowchart-link" style=";" data-edge="true" data-et="edge" data-id="L_G_H_0" data-points="W3sieCI6Mjk3LjYzMjgxMjUsInkiOjcwMy43MTg3NX0seyJ4IjoyOTcuNjMyODEyNSwieSI6NzI4LjcxODc1fSx7IngiOjIxNi44OTY0MTU4MTkyOTc2NiwieSI6NzYzLjk0NzI0ODYxMTAyMzh9XQ==" data-look="classic" marker-end="url(#my-svg_flowchart-v2-pointEnd)"/></g><g class="edgeLabels"><g class="edgeLabel"><g class="label" data-id="L_A_B_0" transform="translate(0, 0)"><foreignObject width="0" height="0"><div xmlns="http://www.w3.org/1999/xhtml" class="labelBkg" style="display: table-cell; white-space: nowrap; line-height: 1.5; max-width: 200px; text-align: center;"><span class="edgeLabel"></span></div></foreignObject></g></g><g class="edgeLabel"><g class="label" data-id="L_B_C_0" transform="translate(0, 0)"><foreignObject width="0" height="0"><div xmlns="http://www.w3.org/1999/xhtml" class="labelBkg" style="display: table-cell; white-space: nowrap; line-height: 1.5; max-width: 200px; text-align: center;"><span class="edgeLabel"></span></div></foreignObject></g></g><g class="edgeLabel" transform="translate(89.4453125, 508.71875)"><g class="label" data-id="L_C_D_0" transform="translate(-11.328125, -12)"><foreignObject width="22.65625" height="24"><div xmlns="http://www.w3.org/1999/xhtml" class="labelBkg" style="display: table-cell; white-space: nowrap; line-height: 1.5; max-width: 200px; text-align: center;"><span class="edgeLabel"><p>Yes</p></span></div></foreignObject></g></g><g class="edgeLabel" transform="translate(297.6328125, 380.71875)"><g class="label" data-id="L_C_E_0" transform="translate(-9.3984375, -12)"><foreignObject width="18.796875" height="24"><div xmlns="http://www.w3.org/1999/xhtml" class="labelBkg" style="display: table-cell; white-space: nowrap; line-height: 1.5; max-width: 200px; text-align: center;"><span class="edgeLabel"><p>No</p></span></div></foreignObject></g></g><g class="edgeLabel"><g class="label" data-id="L_E_F_0" transform="translate(0, 0)"><foreignObject width="0" height="0"><div xmlns="http://www.w3.org/1999/xhtml" class="labelBkg" style="display: table-cell; white-space: nowrap; line-height: 1.5; max-width: 200px; text-align: center;"><span class="edgeLabel"></span></div></foreignObject></g></g><g class="edgeLabel"><g class="label" data-id="L_F_G_0" transform="translate(0, 0)"><foreignObject width="0" height="0"><div xmlns="http://www.w3.org/1999/xhtml" class="labelBkg" style="display: table-cell; white-space: nowrap; line-height: 1.5; max-width: 200px; text-align: center;"><span class="edgeLabel"></span></div></foreignObject></g></g><g class="edgeLabel"><g class="label" data-id="L_D_H_0" transform="translate(0, 0)"><foreignObject width="0" height="0"><div xmlns="http://www.w3.org/1999/xhtml" class="labelBkg" style="display: table-cell; white-space: nowrap; line-height: 1.5; max-width: 200px; text-align: center;"><span class="edgeLabel"></span></div></foreignObject></g></g><g class="edgeLabel"><g class="label" data-id="L_G_H_0" transform="translate(0, 0)"><foreignObject width="0" height="0"><div xmlns="http://www.w3.org/1999/xhtml" class="labelBkg" style="display: table-cell; white-space: nowrap; line-height: 1.5; max-width: 200px; text-align: center;"><span class="edgeLabel"></span></div></foreignObject></g></g></g><g class="nodes"><g class="node default" id="my-svg-flowchart-A-0" data-look="classic" transform="translate(193.5390625, 35)"><rect class="basic label-container" style="" x="-68.421875" y="-27" width="136.84375" height="54"/><g class="label" style="" transform="translate(-38.421875, -12)"><rect/><foreignObject width="76.84375" height="24"><div xmlns="http://www.w3.org/1999/xhtml" style="display: table-cell; white-space: nowrap; line-height: 1.5; max-width: 200px; text-align: center;"><span class="nodeLabel"><p>Read input</p></span></div></foreignObject></g></g><g class="node default" id="my-svg-flowchart-B-1" data-look="classic" transform="translate(193.5390625, 139)"><rect class="basic label-container" style="" x="-49" y="-27" width="98" height="54"/><g class="label" style="" transform="translate(-19, -12)"><rect/><foreignObject width="38" height="24"><div xmlns="http://www.w3.org/1999/xhtml" style="display: table-cell; white-space: nowrap; line-height: 1.5; max-width: 200px; text-align: center;"><span class="nodeLabel"><p>Parse</p></span></div></foreignObject></g></g><g class="node default" id="my-svg-flowchart-C-3" data-look="classic" transform="translate(193.5390625, 279.859375)"><polygon points="63.859375,0 127.71875,-63.859375 63.859375,-127.71875 0,-63.859375" class="label-container" transform="translate(-63.359375, 63.859375)"/><g class="label" style="" transform="translate(-36.859375, -12)"><rect/><foreignObject width="73.71875" height="24"><div xmlns="http://www.w3.org/1999/xhtml" style="display: table-cell; white-space: nowrap; line-height: 1.5; max-width: 200px; text-align: center;"><span class="nodeLabel"><p>Cache hit?</p></span></div></foreignObject></g></g><g class="node default" id="my-svg-flowchart-D-5" data-look="classic" transform="translate(89.4453125, 676.71875)"><rect class="basic label-container" style="" x="-81.4453125" y="-27" width="162.890625" height="54"/><g class="label" style="" transform="translate(-51.4453125, -12)"><rect/><foreignObject width="102.890625" height="24"><div xmlns="http://www.w3.org/1999/xhtml" style="display: table-cell; white-space: nowrap; line-height: 1.5; max-width: 200px; text-align: center;"><span class="nodeLabel"><p>Return cached</p></span></div></foreignObject></g></g><g class="node default" id="my-svg-flowchart-E-7" data-look="classic" transform="translate(297.6328125, 444.71875)"><rect class="basic label-container" style="" x="-85.109375" y="-27" width="170.21875" height="54"/><g class="label" style="" transform="translate(-55.109375, -12)"><rect/><foreignObject width="110.21875" height="24"><div xmlns="http://www.w3.org/1999/xhtml" style="display: table-cell; white-space: nowrap; line-height: 1.5; max-width: 200px; text-align: center;"><span class="nodeLabel"><p>Compute result</p></span></div></foreignObject></g></g><g class="node default" id="my-svg-flowchart-F-9" data-look="classic" transform="translate(297.6328125, 572.71875)"><rect class="basic label-container" style="" x="-81.1171875" y="-27" width="162.234375" height="54"/><g class="label" style="" transform="translate(-51.1171875, -12)"><rect/><foreignObject width="102.234375" height="24"><div xmlns="http://www.w3.org/1999/xhtml" style="display: table-cell; white-space: nowrap; line-height: 1.5; max-width: 200px; text-align: center;"><span class="nodeLabel"><p>Store in cache</p></span></div></foreignObject></g></g><g class="node default" id="my-svg-flowchart-G-11" data-look="classic" transform="translate(297.6328125, 676.71875)"><rect class="basic label-container" style="" x="-76.7421875" y="-27" width="153.484375" height="54"/><g class="label" style="" transform="translate(-46.7421875, -12)"><rect/><foreignObject width="93.484375" height="24"><div xmlns="http://www.w3.org/1999/xhtml" style="display: table-cell; white-space: nowrap; line-height: 1.5; max-width: 200px; text-align: center;"><span class="nodeLabel"><p>Return result</p></span></div></foreignObject></g></g><g class="node default" id="my-svg-flowchart-H-13" data-look="classic" transform="translate(193.5390625, 773.21875)"><g class="basic label-container outer-path"><path d="M-5.9921875 -19.5 C-2.9025517937640353 -19.5, 0.18708391247192946 -19.5, 5.9921875 -19.5 C5.9921875 -19.5, 5.992187499999999 -19.5, 5.992187499999999 -19.5 C6.28527474646649 -19.49060126246554, 6.578361992932981 -19.481202524931074, 7.2415567896239 -19.45993515863156 C7.5008014075198055 -19.43492614213041, 7.760046025415711 -19.40991712562926, 8.485792152847864 -19.3399052695533 C8.756102269449258 -19.29620362618745, 9.02641238605065 -19.2525019828216, 9.719780759676757 -19.140403561325776 C10.062804345875458 -19.062110666214014, 10.405827932074159 -18.983817771102252, 10.93845188623539 -18.862249829261074 C11.260832716045 -18.76656889118509, 11.583213545854608 -18.670887953109105, 12.136797751460602 -18.50658706670804 C12.430133875210366 -18.398636661598722, 12.72346999896013 -18.290686256489405, 13.309894095147794 -18.074876768247425 C13.599529725831436 -17.946663666279495, 13.889165356515079 -17.818450564311565, 14.452920412792382 -17.568892924097174 C14.80316205635901 -17.386172082988946, 15.153403699925637 -17.203451241880714, 15.561179764076783 -16.990714730406097 C15.94944587484251 -16.75534553235498, 16.337711985608237 -16.519976334303863, 16.630118073605697 -16.342718045390892 C16.91025697689609 -16.147305273473187, 17.190395880186482 -15.951892501555479, 17.655342844578712 -15.627565626425154 C18.04582388112556 -15.316167390915822, 18.436304917672413 -15.004769155406493, 18.63264120850187 -14.848196188198123 C18.949643568151494 -14.560303032587154, 19.266645927801118 -14.272409876976186, 19.557997236767985 -14.007812326905688 C19.84061578409728 -13.715985473373928, 20.123234331426577 -13.424158619842169, 20.427608442968648 -13.10986736009568 C20.682994577264054 -12.809876274869584, 20.938380711559464 -12.509885189643489, 21.237901408126582 -12.158051136245305 C21.397276922167915 -11.944502466837939, 21.55665243620925 -11.73095379743057, 21.985546464640635 -11.156274872382312 C22.247910709440607 -10.753212937705243, 22.51027495424058 -10.350151003028175, 22.667471378604247 -10.108655082055241 C22.864467806137363 -9.758867976918816, 23.061464233670478 -9.40908087178239, 23.2808739742735 -9.019496659696287 C23.497749225421185 -8.569150560301125, 23.714624476568865 -8.118804460905963, 23.82323364880834 -7.893275190886684 C23.966014981631744 -7.540602538323606, 24.108796314455144 -7.187929885760527, 24.292321729970325 -6.734618561215508 C24.443357955529788 -6.279721514184943, 24.594394181089253 -5.824824467154377, 24.68621063421488 -5.548287939305138 C24.80042880944157 -5.112724534695493, 24.91464698466826 -4.6771611300858495, 25.00328178754556 -4.339158212148133 C25.096032068604455 -3.8629051216895616, 25.188782349663345 -3.38665203123099, 25.242232276581777 -3.1121979531509023 C25.302260184680932 -2.646633351785064, 25.36228809278009 -2.181068750419226, 25.402080202509367 -1.872449005199798 C25.422831266016374 -1.5492344411211514, 25.443582329523384 -1.2260198770425048, 25.482168715913414 -0.6250057626472757 C25.482168715913414 -0.3372460905777464, 25.482168715913414 -0.04948641850821711, 25.482168715913414 0.625005762647271 C25.45401343414586 1.0635470027112985, 25.42585815237831 1.5020882427753262, 25.402080202509367 1.8724490051997846 C25.343135773312 2.3296103581604655, 25.28419134411463 2.786771711121146, 25.242232276581777 3.1121979531508885 C25.183854672531044 3.4119546118404216, 25.12547706848031 3.711711270529955, 25.00328178754556 4.339158212148129 C24.913584300533728 4.681213605261036, 24.82388681352189 5.0232689983739425, 24.686210634214884 5.548287939305125 C24.600392258348858 5.806759214112271, 24.514573882482832 6.065230488919415, 24.29232172997033 6.734618561215495 C24.10798353258956 7.189937472682591, 23.92364533520879 7.645256384149689, 23.823233648808344 7.893275190886679 C23.665594638427415 8.220615968877166, 23.50795562804649 8.547956746867653, 23.280873974273504 9.019496659696284 C23.084513635437318 9.368154324940345, 22.888153296601132 9.716811990184409, 22.66747137860425 10.108655082055236 C22.48567528056041 10.387942707738217, 22.30387918251657 10.667230333421196, 21.98554646464064 11.156274872382301 C21.72573008294355 11.5044051540971, 21.465913701246457 11.8525354358119, 21.237901408126582 12.158051136245302 C20.958967464489763 12.48570281823213, 20.680033520852945 12.81335450021896, 20.42760844296866 13.10986736009567 C20.20312261033688 13.341667412917602, 19.978636777705105 13.573467465739535, 19.55799723676799 14.007812326905684 C19.282926134334623 14.257624624153117, 19.007855031901258 14.50743692140055, 18.632641208501887 14.848196188198111 C18.258639992867977 15.146452205075825, 17.884638777234066 15.444708221953539, 17.655342844578715 15.627565626425152 C17.3715318498672 15.825539890355959, 17.087720855155688 16.023514154286765, 16.630118073605708 16.34271804539089 C16.25284616578859 16.57142249300545, 15.875574257971476 16.800126940620007, 15.561179764076787 16.990714730406093 C15.250209775086256 17.15294757447667, 14.939239786095728 17.315180418547243, 14.452920412792386 17.56889292409717 C14.215719783178702 17.67389460652047, 13.97851915356502 17.77889628894377, 13.309894095147804 18.07487676824742 C12.97085900523255 18.19964481534225, 12.631823915317293 18.32441286243708, 12.136797751460616 18.506587066708033 C11.82747454395432 18.598392571025254, 11.518151336448025 18.690198075342472, 10.938451886235413 18.86224982926107 C10.602235099012495 18.93898911692512, 10.266018311789576 19.015728404589176, 9.719780759676766 19.140403561325773 C9.243491181468478 19.217406366649644, 8.767201603260188 19.294409171973516, 8.485792152847878 19.3399052695533 C7.991301765402524 19.38760816251845, 7.496811377957169 19.435311055483606, 7.241556789623901 19.45993515863156 C6.925804665789739 19.470060714668694, 6.610052541955577 19.480186270705833, 5.9921875000000036 19.5 C5.992187500000003 19.5, 5.992187500000002 19.5, 5.9921875 19.5 C2.6208862601661966 19.5, -0.7504149796676067 19.5, -5.9921874999999964 19.5 C-6.310155797784387 19.4898033755778, -6.628124095568778 19.4796067511556, -7.2415567896238935 19.45993515863156 C-7.606823915332899 19.424698278312402, -7.972091041041904 19.389461397993244, -8.485792152847871 19.3399052695533 C-8.795130035015434 19.289893919715553, -9.104467917183 19.239882569877803, -9.719780759676759 19.140403561325773 C-10.041126780184994 19.067058429123524, -10.36247280069323 18.99371329692128, -10.938451886235388 18.862249829261074 C-11.352318555798147 18.739416374165327, -11.766185225360907 18.616582919069582, -12.136797751460593 18.506587066708043 C-12.436404589632524 18.39632898072552, -12.736011427804453 18.286070894743, -13.309894095147797 18.074876768247425 C-13.702993703709362 17.900863232422797, -14.096093312270925 17.726849696598165, -14.45292041279238 17.568892924097174 C-14.820459368441577 17.377148086354925, -15.187998324090772 17.185403248612676, -15.56117976407678 16.990714730406097 C-15.902770718014217 16.783640286717958, -16.244361671951655 16.57656584302982, -16.630118073605686 16.3427180453909 C-16.857817257292947 16.183884951789462, -17.08551644098021 16.025051858188025, -17.655342844578712 15.627565626425156 C-17.947829445668226 15.394315345451606, -18.240316046757737 15.161065064478056, -18.63264120850187 14.848196188198125 C-18.99834537035719 14.516073344403019, -19.36404953221251 14.183950500607912, -19.557997236767974 14.007812326905697 C-19.774689027499488 13.78406026224853, -19.991380818230997 13.560308197591365, -20.427608442968655 13.109867360095677 C-20.72650061705562 12.75877160496662, -21.02539279114259 12.407675849837561, -21.23790140812658 12.158051136245307 C-21.39958858868446 11.941405044302922, -21.56127576924234 11.724758952360537, -21.985546464640635 11.156274872382316 C-22.171421502155557 10.870720900323144, -22.357296539670475 10.585166928263973, -22.667471378604244 10.108655082055249 C-22.790476421145865 9.890247173411401, -22.913481463687486 9.671839264767556, -23.2808739742735 9.019496659696289 C-23.426418828186666 8.717269656384609, -23.57196368209983 8.415042653072927, -23.82323364880834 7.893275190886686 C-24.002763835284117 7.4498321593114945, -24.18229402175989 7.006389127736304, -24.292321729970325 6.73461856121551 C-24.41230867729763 6.373236993189536, -24.532295624624936 6.011855425163563, -24.68621063421488 5.5482879393051325 C-24.75145427831384 5.299485647581575, -24.8166979224128 5.050683355858017, -25.003281787545557 4.339158212148136 C-25.084775773324733 3.9207038189320755, -25.166269759103905 3.5022494257160153, -25.242232276581777 3.112197953150904 C-25.29597678570491 2.6953661534456366, -25.34972129482804 2.2785343537403695, -25.402080202509364 1.872449005199809 C-25.430257903801245 1.4335585629476852, -25.458435605093122 0.9946681206955614, -25.482168715913414 0.6250057626472781 C-25.482168715913414 0.20637030331683343, -25.482168715913414 -0.2122651560136113, -25.482168715913414 -0.6250057626472687 C-25.454002460462174 -1.0637179266925072, -25.42583620501094 -1.502430090737746, -25.402080202509367 -1.8724490051997822 C-25.353177643163257 -2.251727598585612, -25.304275083817146 -2.6310061919714416, -25.242232276581777 -3.112197953150895 C-25.176414596018557 -3.450157832271329, -25.110596915455332 -3.788117711391763, -25.00328178754556 -4.339158212148126 C-24.90978175575626 -4.695714356530843, -24.81628172396696 -5.05227050091356, -24.686210634214884 -5.548287939305123 C-24.59325442111815 -5.828257242591246, -24.500298208021416 -6.108226545877368, -24.292321729970332 -6.734618561215485 C-24.165352983490962 -7.048233819793247, -24.03838423701159 -7.3618490783710095, -23.823233648808344 -7.893275190886676 C-23.636123997174323 -8.281812386009921, -23.4490143455403 -8.670349581133165, -23.280873974273504 -9.019496659696282 C-23.111741278034817 -9.319808888410705, -22.94260858179613 -9.620121117125127, -22.667471378604247 -10.108655082055243 C-22.435262904938018 -10.465389654312515, -22.203054431271788 -10.822124226569787, -21.98554646464064 -11.156274872382308 C-21.81043785305605 -11.390904459182964, -21.635329241471464 -11.625534045983622, -21.237901408126586 -12.158051136245302 C-20.938590475288557 -12.509638789231404, -20.639279542450527 -12.861226442217509, -20.427608442968662 -13.10986736009567 C-20.23289761589119 -13.31092227510936, -20.03818678881372 -13.511977190123051, -19.557997236767996 -14.007812326905677 C-19.210066576438038 -14.32379374687653, -18.862135916108084 -14.639775166847384, -18.632641208501887 -14.848196188198107 C-18.399272185134528 -15.034301774123055, -18.165903161767165 -15.220407360048, -17.65534284457872 -15.627565626425149 C-17.405003328966092 -15.802191635493548, -17.15466381335347 -15.976817644561947, -16.63011807360571 -16.342718045390885 C-16.26149246999616 -16.566181052583495, -15.892866866386608 -16.789644059776105, -15.561179764076789 -16.99071473040609 C-15.146837295567591 -17.206876930828322, -14.732494827058392 -17.423039131250555, -14.45292041279239 -17.56889292409717 C-14.024837405291338 -17.758392572886653, -13.596754397790285 -17.947892221676135, -13.309894095147806 -18.07487676824742 C-12.936365777037537 -18.21233864216992, -12.562837458927266 -18.349800516092422, -12.136797751460618 -18.506587066708033 C-11.686287704405734 -18.64029608389843, -11.235777657350852 -18.774005101088825, -10.938451886235413 -18.862249829261067 C-10.677990863683167 -18.921698357991602, -10.417529841130921 -18.98114688672214, -9.719780759676768 -19.140403561325773 C-9.457302360686565 -19.182839033324125, -9.194823961696363 -19.225274505322474, -8.48579215284788 -19.3399052695533 C-8.232293672277626 -19.36435996309738, -7.978795191707371 -19.38881465664147, -7.241556789623903 -19.45993515863156 C-6.877911051413151 -19.471596569662488, -6.5142653132024 -19.483257980693416, -5.992187500000006 -19.5 C-5.992187500000004 -19.5, -5.992187500000003 -19.5, -5.9921875 -19.5" stroke="none" stroke-width="0" fill="#eee" style=""/><path d="M-5.9921875 -19.5 C-3.3664860066986906 -19.5, -0.7407845133973812 -19.5, 5.9921875 -19.5 M-5.9921875 -19.5 C-3.085366360967151 -19.5, -0.17854522193430178 -19.5, 5.9921875 -19.5 M5.9921875 -19.5 C5.9921875 -19.5, 5.992187499999999 -19.5, 5.992187499999999 -19.5 M5.9921875 -19.5 C5.9921875 -19.5, 5.9921875 -19.5, 5.992187499999999 -19.5 M5.992187499999999 -19.5 C6.420730426807993 -19.486257462445472, 6.849273353615987 -19.472514924890945, 7.2415567896239 -19.45993515863156 M5.992187499999999 -19.5 C6.294120426457046 -19.490317598725312, 6.596053352914093 -19.480635197450624, 7.2415567896239 -19.45993515863156 M7.2415567896239 -19.45993515863156 C7.5775824009050545 -19.42751917204119, 7.9136080121862085 -19.39510318545082, 8.485792152847864 -19.3399052695533 M7.2415567896239 -19.45993515863156 C7.585414204657129 -19.42676364735235, 7.9292716196903585 -19.39359213607314, 8.485792152847864 -19.3399052695533 M8.485792152847864 -19.3399052695533 C8.930158095137788 -19.268063630113215, 9.374524037427713 -19.19622199067313, 9.719780759676757 -19.140403561325776 M8.485792152847864 -19.3399052695533 C8.749498526809454 -19.297271268084664, 9.013204900771044 -19.254637266616026, 9.719780759676757 -19.140403561325776 M9.719780759676757 -19.140403561325776 C10.102483405744884 -19.053054179728882, 10.485186051813011 -18.965704798131988, 10.93845188623539 -18.862249829261074 M9.719780759676757 -19.140403561325776 C10.055828294281723 -19.063702904467295, 10.391875828886686 -18.987002247608814, 10.93845188623539 -18.862249829261074 M10.93845188623539 -18.862249829261074 C11.356055613472332 -18.738307235063846, 11.773659340709274 -18.61436464086662, 12.136797751460602 -18.50658706670804 M10.93845188623539 -18.862249829261074 C11.40712014582545 -18.72315154990464, 11.875788405415513 -18.584053270548207, 12.136797751460602 -18.50658706670804 M12.136797751460602 -18.50658706670804 C12.510402991105188 -18.369096884949855, 12.884008230749773 -18.23160670319167, 13.309894095147794 -18.074876768247425 M12.136797751460602 -18.50658706670804 C12.481963624258263 -18.379562834840147, 12.827129497055926 -18.25253860297226, 13.309894095147794 -18.074876768247425 M13.309894095147794 -18.074876768247425 C13.578225263275469 -17.956094519878594, 13.846556431403144 -17.837312271509767, 14.452920412792382 -17.568892924097174 M13.309894095147794 -18.074876768247425 C13.628935853804135 -17.933646445727774, 13.947977612460477 -17.792416123208127, 14.452920412792382 -17.568892924097174 M14.452920412792382 -17.568892924097174 C14.710351207367072 -17.43459144345985, 14.96778200194176 -17.300289962822532, 15.561179764076783 -16.990714730406097 M14.452920412792382 -17.568892924097174 C14.847331012972642 -17.36312916661518, 15.2417416131529 -17.157365409133185, 15.561179764076783 -16.990714730406097 M15.561179764076783 -16.990714730406097 C15.98392098075459 -16.73444652055287, 16.406662197432397 -16.478178310699636, 16.630118073605697 -16.342718045390892 M15.561179764076783 -16.990714730406097 C15.919543723791659 -16.77347239204655, 16.277907683506534 -16.556230053687006, 16.630118073605697 -16.342718045390892 M16.630118073605697 -16.342718045390892 C16.906113322007972 -16.150195707747205, 17.18210857041025 -15.957673370103521, 17.655342844578712 -15.627565626425154 M16.630118073605697 -16.342718045390892 C16.878502450351085 -16.169455856559683, 17.126886827096474 -15.996193667728472, 17.655342844578712 -15.627565626425154 M17.655342844578712 -15.627565626425154 C17.92176276477772 -15.41510282979827, 18.18818268497673 -15.202640033171388, 18.63264120850187 -14.848196188198123 M17.655342844578712 -15.627565626425154 C17.92866211023023 -15.409600785399185, 18.201981375881754 -15.191635944373218, 18.63264120850187 -14.848196188198123 M18.63264120850187 -14.848196188198123 C18.996380491894996 -14.517857795034546, 19.36011977528812 -14.18751940187097, 19.557997236767985 -14.007812326905688 M18.63264120850187 -14.848196188198123 C18.93393035743077 -14.574573354814941, 19.235219506359673 -14.30095052143176, 19.557997236767985 -14.007812326905688 M19.557997236767985 -14.007812326905688 C19.792389652849643 -13.765782913326126, 20.026782068931304 -13.523753499746562, 20.427608442968648 -13.10986736009568 M19.557997236767985 -14.007812326905688 C19.851547889263507 -13.704697177247276, 20.145098541759026 -13.401582027588862, 20.427608442968648 -13.10986736009568 M20.427608442968648 -13.10986736009568 C20.632441115745973 -12.869259247342175, 20.837273788523298 -12.628651134588667, 21.237901408126582 -12.158051136245305 M20.427608442968648 -13.10986736009568 C20.60680592687431 -12.899371798874402, 20.78600341077997 -12.688876237653123, 21.237901408126582 -12.158051136245305 M21.237901408126582 -12.158051136245305 C21.484299481324886 -11.82790016548583, 21.730697554523193 -11.497749194726351, 21.985546464640635 -11.156274872382312 M21.237901408126582 -12.158051136245305 C21.508525289484076 -11.79543978956904, 21.779149170841574 -11.432828442892774, 21.985546464640635 -11.156274872382312 M21.985546464640635 -11.156274872382312 C22.252768683576623 -10.745749784883614, 22.51999090251261 -10.335224697384918, 22.667471378604247 -10.108655082055241 M21.985546464640635 -11.156274872382312 C22.22073187988235 -10.794966918444356, 22.455917295124063 -10.433658964506398, 22.667471378604247 -10.108655082055241 M22.667471378604247 -10.108655082055241 C22.88571385439048 -9.721143466849732, 23.10395633017671 -9.33363185164422, 23.2808739742735 -9.019496659696287 M22.667471378604247 -10.108655082055241 C22.898902369609 -9.697725922597268, 23.13033336061375 -9.286796763139296, 23.2808739742735 -9.019496659696287 M23.2808739742735 -9.019496659696287 C23.40960431685703 -8.752185348933502, 23.538334659440558 -8.484874038170716, 23.82323364880834 -7.893275190886684 M23.2808739742735 -9.019496659696287 C23.45108688990676 -8.666045898410857, 23.621299805540026 -8.312595137125426, 23.82323364880834 -7.893275190886684 M23.82323364880834 -7.893275190886684 C23.97171282647388 -7.526528751403194, 24.12019200413942 -7.159782311919704, 24.292321729970325 -6.734618561215508 M23.82323364880834 -7.893275190886684 C23.997496877916188 -7.462841645839968, 24.171760107024035 -7.032408100793252, 24.292321729970325 -6.734618561215508 M24.292321729970325 -6.734618561215508 C24.422799038328915 -6.341641697175354, 24.553276346687507 -5.9486648331352, 24.68621063421488 -5.548287939305138 M24.292321729970325 -6.734618561215508 C24.383883280114883 -6.458849760531975, 24.47544483025944 -6.183080959848442, 24.68621063421488 -5.548287939305138 M24.68621063421488 -5.548287939305138 C24.792966198984992 -5.141182702682259, 24.899721763755103 -4.734077466059379, 25.00328178754556 -4.339158212148133 M24.68621063421488 -5.548287939305138 C24.75840958067706 -5.272962065223507, 24.830608527139244 -4.9976361911418765, 25.00328178754556 -4.339158212148133 M25.00328178754556 -4.339158212148133 C25.08687702349273 -3.9099143434187984, 25.170472259439897 -3.4806704746894632, 25.242232276581777 -3.1121979531509023 M25.00328178754556 -4.339158212148133 C25.059154688430738 -4.052262674844527, 25.11502758931592 -3.7653671375409203, 25.242232276581777 -3.1121979531509023 M25.242232276581777 -3.1121979531509023 C25.298982517653535 -2.672054290001004, 25.355732758725292 -2.231910626851105, 25.402080202509367 -1.872449005199798 M25.242232276581777 -3.1121979531509023 C25.304767550863154 -2.627186714811206, 25.367302825144534 -2.1421754764715097, 25.402080202509367 -1.872449005199798 M25.402080202509367 -1.872449005199798 C25.426552715892583 -1.4912698553989547, 25.451025229275796 -1.1100907055981115, 25.482168715913414 -0.6250057626472757 M25.402080202509367 -1.872449005199798 C25.424633643483205 -1.521160957222356, 25.447187084457045 -1.1698729092449138, 25.482168715913414 -0.6250057626472757 M25.482168715913414 -0.6250057626472757 C25.482168715913414 -0.17960115006534333, 25.482168715913414 0.26580346251658904, 25.482168715913414 0.625005762647271 M25.482168715913414 -0.6250057626472757 C25.482168715913414 -0.26625254123199854, 25.482168715913414 0.09250068018327862, 25.482168715913414 0.625005762647271 M25.482168715913414 0.625005762647271 C25.46306265540197 0.9225980772474889, 25.443956594890526 1.2201903918477066, 25.402080202509367 1.8724490051997846 M25.482168715913414 0.625005762647271 C25.450892466164586 1.1121585982196887, 25.419616216415758 1.5993114337921064, 25.402080202509367 1.8724490051997846 M25.402080202509367 1.8724490051997846 C25.347921184768666 2.29249565188894, 25.293762167027964 2.7125422985780956, 25.242232276581777 3.1121979531508885 M25.402080202509367 1.8724490051997846 C25.365359008749646 2.1572513325802927, 25.32863781498992 2.442053659960801, 25.242232276581777 3.1121979531508885 M25.242232276581777 3.1121979531508885 C25.190802462404314 3.3762791792570837, 25.139372648226853 3.6403604053632788, 25.00328178754556 4.339158212148129 M25.242232276581777 3.1121979531508885 C25.18880144746293 3.386553968066454, 25.135370618344076 3.6609099829820195, 25.00328178754556 4.339158212148129 M25.00328178754556 4.339158212148129 C24.901010344651667 4.729163548626285, 24.798738901757773 5.11916888510444, 24.686210634214884 5.548287939305125 M25.00328178754556 4.339158212148129 C24.910375067018744 4.693451803544271, 24.817468346491925 5.047745394940414, 24.686210634214884 5.548287939305125 M24.686210634214884 5.548287939305125 C24.53978877742506 5.989287242801359, 24.393366920635234 6.430286546297593, 24.29232172997033 6.734618561215495 M24.686210634214884 5.548287939305125 C24.55368594405004 5.947431191139723, 24.421161253885195 6.34657444297432, 24.29232172997033 6.734618561215495 M24.29232172997033 6.734618561215495 C24.16358952808596 7.052589588737691, 24.034857326201596 7.370560616259886, 23.823233648808344 7.893275190886679 M24.29232172997033 6.734618561215495 C24.118352640889952 7.164325574707546, 23.94438355180958 7.594032588199598, 23.823233648808344 7.893275190886679 M23.823233648808344 7.893275190886679 C23.704192249431674 8.140467203770244, 23.585150850055005 8.38765921665381, 23.280873974273504 9.019496659696284 M23.823233648808344 7.893275190886679 C23.676338487163168 8.198306137095837, 23.529443325517992 8.503337083304997, 23.280873974273504 9.019496659696284 M23.280873974273504 9.019496659696284 C23.077926810628394 9.379849899376927, 22.874979646983288 9.740203139057568, 22.66747137860425 10.108655082055236 M23.280873974273504 9.019496659696284 C23.125950962014524 9.294578155618204, 22.971027949755545 9.569659651540126, 22.66747137860425 10.108655082055236 M22.66747137860425 10.108655082055236 C22.433684877418592 10.467813928342068, 22.199898376232937 10.8269727746289, 21.98554646464064 11.156274872382301 M22.66747137860425 10.108655082055236 C22.48796816935001 10.384420214830541, 22.30846496009577 10.660185347605847, 21.98554646464064 11.156274872382301 M21.98554646464064 11.156274872382301 C21.690583303992096 11.551498635954616, 21.39562014334355 11.94672239952693, 21.237901408126582 12.158051136245302 M21.98554646464064 11.156274872382301 C21.800695918303642 11.403957764242675, 21.61584537196664 11.65164065610305, 21.237901408126582 12.158051136245302 M21.237901408126582 12.158051136245302 C21.04761281349599 12.381574947226165, 20.8573242188654 12.605098758207028, 20.42760844296866 13.10986736009567 M21.237901408126582 12.158051136245302 C21.018008929476586 12.416349353904078, 20.79811645082659 12.674647571562852, 20.42760844296866 13.10986736009567 M20.42760844296866 13.10986736009567 C20.22584331895196 13.318206415867664, 20.024078194935264 13.526545471639658, 19.55799723676799 14.007812326905684 M20.42760844296866 13.10986736009567 C20.09650599630018 13.451757820297297, 19.765403549631706 13.793648280498926, 19.55799723676799 14.007812326905684 M19.55799723676799 14.007812326905684 C19.331502897169987 14.213508493416755, 19.105008557571985 14.419204659927827, 18.632641208501887 14.848196188198111 M19.55799723676799 14.007812326905684 C19.26013286164883 14.278324871329406, 18.962268486529673 14.548837415753129, 18.632641208501887 14.848196188198111 M18.632641208501887 14.848196188198111 C18.425168069039543 15.013650495827218, 18.217694929577203 15.179104803456324, 17.655342844578715 15.627565626425152 M18.632641208501887 14.848196188198111 C18.287604245466053 15.12335398439999, 17.94256728243022 15.39851178060187, 17.655342844578715 15.627565626425152 M17.655342844578715 15.627565626425152 C17.277355960720737 15.891232913815998, 16.899369076862758 16.154900201206843, 16.630118073605708 16.34271804539089 M17.655342844578715 15.627565626425152 C17.296333386307335 15.877995083246299, 16.93732392803596 16.128424540067446, 16.630118073605708 16.34271804539089 M16.630118073605708 16.34271804539089 C16.228175460681797 16.58637801942234, 15.826232847757888 16.830037993453796, 15.561179764076787 16.990714730406093 M16.630118073605708 16.34271804539089 C16.359293962619216 16.506893213010034, 16.088469851632723 16.67106838062918, 15.561179764076787 16.990714730406093 M15.561179764076787 16.990714730406093 C15.181772039150061 17.18865149747812, 14.802364314223336 17.386588264550145, 14.452920412792386 17.56889292409717 M15.561179764076787 16.990714730406093 C15.21582825567528 17.17088439113096, 14.870476747273775 17.351054051855826, 14.452920412792386 17.56889292409717 M14.452920412792386 17.56889292409717 C14.007759429371628 17.76595248622615, 13.562598445950869 17.96301204835513, 13.309894095147804 18.07487676824742 M14.452920412792386 17.56889292409717 C14.19699034120832 17.682185574891605, 13.941060269624256 17.795478225686036, 13.309894095147804 18.07487676824742 M13.309894095147804 18.07487676824742 C12.955648374903722 18.205242467908782, 12.601402654659642 18.335608167570147, 12.136797751460616 18.506587066708033 M13.309894095147804 18.07487676824742 C12.987144968073538 18.193651430470975, 12.664395840999273 18.31242609269453, 12.136797751460616 18.506587066708033 M12.136797751460616 18.506587066708033 C11.857203956856846 18.589569037328655, 11.577610162253075 18.67255100794928, 10.938451886235413 18.86224982926107 M12.136797751460616 18.506587066708033 C11.77865981061197 18.612880527647498, 11.420521869763322 18.719173988586967, 10.938451886235413 18.86224982926107 M10.938451886235413 18.86224982926107 C10.490845333740026 18.964413103962414, 10.043238781244638 19.066576378663758, 9.719780759676766 19.140403561325773 M10.938451886235413 18.86224982926107 C10.486527293750255 18.965398668412234, 10.034602701265095 19.068547507563398, 9.719780759676766 19.140403561325773 M9.719780759676766 19.140403561325773 C9.464419108727299 19.181688452692104, 9.20905745777783 19.222973344058435, 8.485792152847878 19.3399052695533 M9.719780759676766 19.140403561325773 C9.299633262612504 19.20832975035862, 8.879485765548244 19.27625593939147, 8.485792152847878 19.3399052695533 M8.485792152847878 19.3399052695533 C8.15433694138057 19.371880355170337, 7.822881729913263 19.403855440787375, 7.241556789623901 19.45993515863156 M8.485792152847878 19.3399052695533 C8.02472382377055 19.384383976743596, 7.563655494693223 19.42886268393389, 7.241556789623901 19.45993515863156 M7.241556789623901 19.45993515863156 C6.860694954984735 19.47214865636585, 6.47983312034557 19.484362154100136, 5.9921875000000036 19.5 M7.241556789623901 19.45993515863156 C6.882248510805252 19.471457475782135, 6.522940231986604 19.48297979293271, 5.9921875000000036 19.5 M5.9921875000000036 19.5 C5.992187500000003 19.5, 5.992187500000002 19.5, 5.9921875 19.5 M5.9921875000000036 19.5 C5.992187500000002 19.5, 5.992187500000001 19.5, 5.9921875 19.5 M5.9921875 19.5 C1.5793206094610728 19.5, -2.8335462810778544 19.5, -5.9921874999999964 19.5 M5.9921875 19.5 C3.1612614760675273 19.5, 0.33033545213505455 19.5, -5.9921874999999964 19.5 M-5.9921874999999964 19.5 C-6.453987046255527 19.485190987389874, -6.915786592511058 19.470381974779745, -7.2415567896238935 19.45993515863156 M-5.9921874999999964 19.5 C-6.257040921533197 19.491506666277342, -6.521894343066398 19.483013332554684, -7.2415567896238935 19.45993515863156 M-7.2415567896238935 19.45993515863156 C-7.662329150922152 19.419343754989917, -8.083101512220411 19.37875235134828, -8.485792152847871 19.3399052695533 M-7.2415567896238935 19.45993515863156 C-7.600365716235683 19.42532129301219, -7.959174642847474 19.39070742739282, -8.485792152847871 19.3399052695533 M-8.485792152847871 19.3399052695533 C-8.916647166791716 19.270247972229395, -9.34750218073556 19.200590674905488, -9.719780759676759 19.140403561325773 M-8.485792152847871 19.3399052695533 C-8.847986538523658 19.281348490136647, -9.210180924199445 19.22279171072, -9.719780759676759 19.140403561325773 M-9.719780759676759 19.140403561325773 C-10.062066326571083 19.06227911430421, -10.404351893465407 18.98415466728265, -10.938451886235388 18.862249829261074 M-9.719780759676759 19.140403561325773 C-10.154807234708617 19.0411116072128, -10.589833709740475 18.94181965309983, -10.938451886235388 18.862249829261074 M-10.938451886235388 18.862249829261074 C-11.402869826033518 18.724413022508504, -11.86728776583165 18.58657621575593, -12.136797751460593 18.506587066708043 M-10.938451886235388 18.862249829261074 C-11.248757904377616 18.77015263190599, -11.559063922519844 18.678055434550906, -12.136797751460593 18.506587066708043 M-12.136797751460593 18.506587066708043 C-12.530039972145588 18.361870294404724, -12.92328219283058 18.21715352210141, -13.309894095147797 18.074876768247425 M-12.136797751460593 18.506587066708043 C-12.392328680028609 18.412549322893003, -12.647859608596624 18.318511579077963, -13.309894095147797 18.074876768247425 M-13.309894095147797 18.074876768247425 C-13.562136333583144 17.963216611792244, -13.81437857201849 17.851556455337068, -14.45292041279238 17.568892924097174 M-13.309894095147797 18.074876768247425 C-13.7057155305383 17.89965836042575, -14.101536965928801 17.724439952604076, -14.45292041279238 17.568892924097174 M-14.45292041279238 17.568892924097174 C-14.693952709869862 17.443146529100407, -14.934985006947343 17.31740013410364, -15.56117976407678 16.990714730406097 M-14.45292041279238 17.568892924097174 C-14.772091534511052 17.402381554335403, -15.091262656229723 17.235870184573635, -15.56117976407678 16.990714730406097 M-15.56117976407678 16.990714730406097 C-15.788315230023805 16.85302387615285, -16.01545069597083 16.715333021899607, -16.630118073605686 16.3427180453909 M-15.56117976407678 16.990714730406097 C-15.857736560950185 16.810940257380256, -16.15429335782359 16.631165784354415, -16.630118073605686 16.3427180453909 M-16.630118073605686 16.3427180453909 C-17.023034813186268 16.068636336951005, -17.41595155276685 15.794554628511111, -17.655342844578712 15.627565626425156 M-16.630118073605686 16.3427180453909 C-17.036585796864557 16.059183757349658, -17.443053520123428 15.77564946930842, -17.655342844578712 15.627565626425156 M-17.655342844578712 15.627565626425156 C-17.901927814106042 15.43092067512873, -18.148512783633375 15.234275723832305, -18.63264120850187 14.848196188198125 M-17.655342844578712 15.627565626425156 C-17.867844595829965 15.458101134711374, -18.080346347081218 15.288636642997592, -18.63264120850187 14.848196188198125 M-18.63264120850187 14.848196188198125 C-18.851803377902698 14.649158904661537, -19.070965547303526 14.450121621124946, -19.557997236767974 14.007812326905697 M-18.63264120850187 14.848196188198125 C-18.855881667141432 14.645455110280537, -19.079122125780994 14.44271403236295, -19.557997236767974 14.007812326905697 M-19.557997236767974 14.007812326905697 C-19.88405853433443 13.671127267037948, -20.210119831900883 13.334442207170198, -20.427608442968655 13.109867360095677 M-19.557997236767974 14.007812326905697 C-19.846823773907083 13.709575214209867, -20.135650311046188 13.411338101514037, -20.427608442968655 13.109867360095677 M-20.427608442968655 13.109867360095677 C-20.670469714567037 12.82458869127838, -20.91333098616542 12.539310022461084, -21.23790140812658 12.158051136245307 M-20.427608442968655 13.109867360095677 C-20.64923536380764 12.849531767949154, -20.87086228464663 12.589196175802632, -21.23790140812658 12.158051136245307 M-21.23790140812658 12.158051136245307 C-21.512409196998835 11.790235707330517, -21.78691698587109 11.422420278415727, -21.985546464640635 11.156274872382316 M-21.23790140812658 12.158051136245307 C-21.456572853256592 11.865051321149561, -21.675244298386605 11.572051506053816, -21.985546464640635 11.156274872382316 M-21.985546464640635 11.156274872382316 C-22.140831987294007 10.917714609585355, -22.296117509947376 10.679154346788394, -22.667471378604244 10.108655082055249 M-21.985546464640635 11.156274872382316 C-22.20101704360828 10.825254201136122, -22.416487622575925 10.494233529889929, -22.667471378604244 10.108655082055249 M-22.667471378604244 10.108655082055249 C-22.80027092647542 9.872856037397566, -22.933070474346597 9.637056992739884, -23.2808739742735 9.019496659696289 M-22.667471378604244 10.108655082055249 C-22.864261051108357 9.75923509140903, -23.061050723612475 9.409815100762811, -23.2808739742735 9.019496659696289 M-23.2808739742735 9.019496659696289 C-23.48809911548508 8.589189220062714, -23.695324256696665 8.158881780429141, -23.82323364880834 7.893275190886686 M-23.2808739742735 9.019496659696289 C-23.467601626528293 8.631752694457496, -23.654329278783084 8.244008729218704, -23.82323364880834 7.893275190886686 M-23.82323364880834 7.893275190886686 C-23.95371485706632 7.570984083806933, -24.0841960653243 7.248692976727181, -24.292321729970325 6.73461856121551 M-23.82323364880834 7.893275190886686 C-23.949971736725836 7.58022966341624, -24.076709824643327 7.2671841359457945, -24.292321729970325 6.73461856121551 M-24.292321729970325 6.73461856121551 C-24.37571530025351 6.483450414483573, -24.459108870536696 6.2322822677516365, -24.68621063421488 5.5482879393051325 M-24.292321729970325 6.73461856121551 C-24.386197009616133 6.451881175916945, -24.48007228926194 6.1691437906183815, -24.68621063421488 5.5482879393051325 M-24.68621063421488 5.5482879393051325 C-24.751873685842185 5.297886264903625, -24.81753673746949 5.047484590502117, -25.003281787545557 4.339158212148136 M-24.68621063421488 5.5482879393051325 C-24.779186196159277 5.193731825747707, -24.872161758103672 4.839175712190283, -25.003281787545557 4.339158212148136 M-25.003281787545557 4.339158212148136 C-25.05397419599611 4.078863408598871, -25.104666604446663 3.8185686050496073, -25.242232276581777 3.112197953150904 M-25.003281787545557 4.339158212148136 C-25.064501768580094 4.024806548383376, -25.125721749614627 3.7104548846186165, -25.242232276581777 3.112197953150904 M-25.242232276581777 3.112197953150904 C-25.27763844517761 2.8375947012604303, -25.313044613773442 2.562991449369957, -25.402080202509364 1.872449005199809 M-25.242232276581777 3.112197953150904 C-25.293870870702225 2.711699214346488, -25.345509464822676 2.311200475542072, -25.402080202509364 1.872449005199809 M-25.402080202509364 1.872449005199809 C-25.43312647076935 1.3888783169538348, -25.464172739029337 0.9053076287078606, -25.482168715913414 0.6250057626472781 M-25.402080202509364 1.872449005199809 C-25.42721280309894 1.4809884643471378, -25.45234540368851 1.0895279234944666, -25.482168715913414 0.6250057626472781 M-25.482168715913414 0.6250057626472781 C-25.482168715913414 0.2955919045732873, -25.482168715913414 -0.033821953500703494, -25.482168715913414 -0.6250057626472687 M-25.482168715913414 0.6250057626472781 C-25.482168715913414 0.3726628642498945, -25.482168715913414 0.12031996585251081, -25.482168715913414 -0.6250057626472687 M-25.482168715913414 -0.6250057626472687 C-25.458423197563313 -0.9948613779875113, -25.434677679213213 -1.3647169933277539, -25.402080202509367 -1.8724490051997822 M-25.482168715913414 -0.6250057626472687 C-25.457748828820407 -1.0053652154989485, -25.4333289417274 -1.3857246683506284, -25.402080202509367 -1.8724490051997822 M-25.402080202509367 -1.8724490051997822 C-25.34052725112387 -2.3498415411406284, -25.278974299738373 -2.8272340770814743, -25.242232276581777 -3.112197953150895 M-25.402080202509367 -1.8724490051997822 C-25.36213547153218 -2.1822524506795222, -25.322190740554994 -2.492055896159262, -25.242232276581777 -3.112197953150895 M-25.242232276581777 -3.112197953150895 C-25.19125192461217 -3.3739712858136137, -25.14027157264257 -3.635744618476332, -25.00328178754556 -4.339158212148126 M-25.242232276581777 -3.112197953150895 C-25.15547111047043 -3.5576982041537173, -25.06870994435908 -4.003198455156539, -25.00328178754556 -4.339158212148126 M-25.00328178754556 -4.339158212148126 C-24.902393539063024 -4.723888828855531, -24.801505290580483 -5.108619445562936, -24.686210634214884 -5.548287939305123 M-25.00328178754556 -4.339158212148126 C-24.8958439125067 -4.7488653935409015, -24.788406037467833 -5.158572574933676, -24.686210634214884 -5.548287939305123 M-24.686210634214884 -5.548287939305123 C-24.581955258164783 -5.8622885211296545, -24.47769988211468 -6.176289102954185, -24.292321729970332 -6.734618561215485 M-24.686210634214884 -5.548287939305123 C-24.582086029934963 -5.861894657393522, -24.477961425655042 -6.175501375481923, -24.292321729970332 -6.734618561215485 M-24.292321729970332 -6.734618561215485 C-24.132557404598796 -7.129239533716284, -23.97279307922726 -7.523860506217082, -23.823233648808344 -7.893275190886676 M-24.292321729970332 -6.734618561215485 C-24.153369561545585 -7.077833103682034, -24.014417393120834 -7.421047646148582, -23.823233648808344 -7.893275190886676 M-23.823233648808344 -7.893275190886676 C-23.623950480709254 -8.307090953421156, -23.42466731261017 -8.720906715955634, -23.280873974273504 -9.019496659696282 M-23.823233648808344 -7.893275190886676 C-23.633226301081667 -8.28782951394708, -23.443218953354993 -8.682383837007484, -23.280873974273504 -9.019496659696282 M-23.280873974273504 -9.019496659696282 C-23.054516883024878 -9.42141659634919, -22.828159791776255 -9.823336533002095, -22.667471378604247 -10.108655082055243 M-23.280873974273504 -9.019496659696282 C-23.048387432543088 -9.432300056353775, -22.81590089081267 -9.845103453011266, -22.667471378604247 -10.108655082055243 M-22.667471378604247 -10.108655082055243 C-22.45297507418188 -10.438179005970545, -22.23847876975951 -10.767702929885846, -21.98554646464064 -11.156274872382308 M-22.667471378604247 -10.108655082055243 C-22.523151495893625 -10.330369177213523, -22.378831613183003 -10.552083272371803, -21.98554646464064 -11.156274872382308 M-21.98554646464064 -11.156274872382308 C-21.805915092332025 -11.39696454652118, -21.626283720023412 -11.637654220660053, -21.237901408126586 -12.158051136245302 M-21.98554646464064 -11.156274872382308 C-21.834793296737036 -11.358270383477011, -21.68404012883343 -11.560265894571712, -21.237901408126586 -12.158051136245302 M-21.237901408126586 -12.158051136245302 C-21.058390056910206 -12.36891538386931, -20.878878705693825 -12.57977963149332, -20.427608442968662 -13.10986736009567 M-21.237901408126586 -12.158051136245302 C-20.94699531536498 -12.499765985828688, -20.656089222603374 -12.841480835412074, -20.427608442968662 -13.10986736009567 M-20.427608442968662 -13.10986736009567 C-20.187715578078567 -13.357576438665186, -19.947822713188476 -13.605285517234703, -19.557997236767996 -14.007812326905677 M-20.427608442968662 -13.10986736009567 C-20.095047242872006 -13.453264102977775, -19.76248604277535 -13.796660845859881, -19.557997236767996 -14.007812326905677 M-19.557997236767996 -14.007812326905677 C-19.208152568147327 -14.325531998564273, -18.858307899526654 -14.643251670222867, -18.632641208501887 -14.848196188198107 M-19.557997236767996 -14.007812326905677 C-19.267512230642456 -14.2716231236568, -18.977027224516913 -14.535433920407923, -18.632641208501887 -14.848196188198107 M-18.632641208501887 -14.848196188198107 C-18.377165877956042 -15.051930965824356, -18.121690547410193 -15.255665743450606, -17.65534284457872 -15.627565626425149 M-18.632641208501887 -14.848196188198107 C-18.31409956088529 -15.102224675423102, -17.99555791326869 -15.356253162648096, -17.65534284457872 -15.627565626425149 M-17.65534284457872 -15.627565626425149 C-17.27812874544619 -15.890693852644835, -16.900914646313655 -16.153822078864522, -16.63011807360571 -16.342718045390885 M-17.65534284457872 -15.627565626425149 C-17.304260740165354 -15.872465304364564, -16.95317863575199 -16.11736498230398, -16.63011807360571 -16.342718045390885 M-16.63011807360571 -16.342718045390885 C-16.41004354416248 -16.47612851844086, -16.18996901471925 -16.609538991490837, -15.561179764076789 -16.99071473040609 M-16.63011807360571 -16.342718045390885 C-16.249547952247013 -16.573421889436805, -15.868977830888317 -16.804125733482724, -15.561179764076789 -16.99071473040609 M-15.561179764076789 -16.99071473040609 C-15.301654693668658 -17.12610879340427, -15.042129623260527 -17.26150285640245, -14.45292041279239 -17.56889292409717 M-15.561179764076789 -16.99071473040609 C-15.241576902915186 -17.157451338358694, -14.921974041753586 -17.3241879463113, -14.45292041279239 -17.56889292409717 M-14.45292041279239 -17.56889292409717 C-14.110638320139895 -17.720411053076905, -13.768356227487399 -17.871929182056636, -13.309894095147806 -18.07487676824742 M-14.45292041279239 -17.56889292409717 C-14.214349348603934 -17.674501257254224, -13.975778284415478 -17.780109590411282, -13.309894095147806 -18.07487676824742 M-13.309894095147806 -18.07487676824742 C-12.897454564079123 -18.226658328229927, -12.485015033010438 -18.378439888212434, -12.136797751460618 -18.506587066708033 M-13.309894095147806 -18.07487676824742 C-12.931451467789232 -18.214147153400674, -12.553008840430657 -18.353417538553927, -12.136797751460618 -18.506587066708033 M-12.136797751460618 -18.506587066708033 C-11.858835436781778 -18.589084822650747, -11.580873122102938 -18.671582578593465, -10.938451886235413 -18.862249829261067 M-12.136797751460618 -18.506587066708033 C-11.880000723409117 -18.582803076678612, -11.623203695357615 -18.65901908664919, -10.938451886235413 -18.862249829261067 M-10.938451886235413 -18.862249829261067 C-10.502099607501044 -18.96184438941746, -10.065747328766674 -19.06143894957385, -9.719780759676768 -19.140403561325773 M-10.938451886235413 -18.862249829261067 C-10.57560871750781 -18.945066414750187, -10.21276554878021 -19.027883000239306, -9.719780759676768 -19.140403561325773 M-9.719780759676768 -19.140403561325773 C-9.40667063406625 -19.191024778229192, -9.093560508455731 -19.24164599513261, -8.48579215284788 -19.3399052695533 M-9.719780759676768 -19.140403561325773 C-9.413950020537358 -19.189847903477027, -9.108119281397949 -19.239292245628285, -8.48579215284788 -19.3399052695533 M-8.48579215284788 -19.3399052695533 C-8.061864628492485 -19.380801047980423, -7.637937104137087 -19.421696826407548, -7.241556789623903 -19.45993515863156 M-8.48579215284788 -19.3399052695533 C-8.129673705984647 -19.3742595878271, -7.773555259121414 -19.408613906100904, -7.241556789623903 -19.45993515863156 M-7.241556789623903 -19.45993515863156 C-6.923691630171751 -19.470128475608192, -6.605826470719599 -19.48032179258482, -5.992187500000006 -19.5 M-7.241556789623903 -19.45993515863156 C-6.8710269410151765 -19.471817329683844, -6.50049709240645 -19.483699500736126, -5.992187500000006 -19.5 M-5.992187500000006 -19.5 C-5.992187500000004 -19.5, -5.992187500000002 -19.5, -5.9921875 -19.5 M-5.992187500000006 -19.5 C-5.992187500000005 -19.5, -5.9921875000000036 -19.5, -5.9921875 -19.5" stroke="#999" stroke-width="1.3" fill="none" stroke-dasharray="0 0" style=""/></g><g class="label" style="" transform="translate(-13.1171875, -12)"><rect/><foreignObject width="26.234375" height="24"><div xmlns="http://www.w3.org/1999/xhtml" style="display: table-cell; white-space: nowrap; line-height: 1.5; max-width: 200px; text-align: center;"><span class="nodeLabel"><p>End</p></span></div></foreignObject></g></g></g></g></g><defs><filter id="my-svg-drop-shadow" height="130%" width="130%"><feDropShadow dx="4" dy="4" stdDeviation="0" flood-opacity="0.06" flood-color="#000000"/></filter></defs><defs><filter id="my-svg-drop-shadow-small" height="150%" width="150%"><feDropShadow dx="2" dy="2" stdDeviation="0" flood-opacity="0.06" flood-color="#000000"/></filter></defs><linearGradient id="my-svg-gradient" gradientUnits="objectBoundingBox" x1="0%" y1="0%" x2="100%" y2="0%"><stop offset="0%" stop-color="hsl(0, 0%, 83.3333333333%)" stop-opacity="1"/><stop offset="100%" stop-color="hsl(0, 0%, 88.9215686275%)" stop-opacity="1"/></linearGradient></svg>