<svg id="my-svg" width="100%" xmlns="http://www.w3.org/2000/svg" xmlns:xlink="http://www.w3.org/1999/xlink" class="erDiagram" style="max-width: 218.422px; background-color: transparent;" viewBox="0 0 218.421875 688.25" role="graphics-document document" aria-roledescription="er"><style>#my-svg{font-family:"trebuchet ms",verdana,arial,sans-serif;font-size:16px;fill:#000000;}@keyframes edge-animation-frame{from{stroke-dashoffset:0;}}@keyframes dash{to{stroke-dashoffset:0;}}#my-svg .edge-animation-slow{stroke-dasharray:9,5!important;stroke-dashoffset:900;animation:dash 50s linear infinite;stroke-linecap:round;}#my-svg .edge-animation-fast{stroke-dasharray:9,5!important;stroke-dashoffset:900;animation:dash 20s linear infinite;stroke-linecap:round;}#my-svg .error-icon{fill:#552222;}#my-svg .error-text{fill:#552222;stroke:#552222;}#my-svg .edge-thickness-normal{stroke-width:1px;}#my-svg .edge-thickness-thick{stroke-width:3.5px;}#my-svg .edge-pattern-solid{stroke-dasharray:0;}#my-svg .edge-thickness-invisible{stroke-width:0;fill:none;}#my-svg .edge-pattern-dashed{stroke-dasharray:3;}#my-svg .edge-pattern-dotted{stroke-dasharray:2;}#my-svg .marker{fill:#666;stroke:#666;}#my-svg .marker.cross{stroke:#666;}#my-svg svg{font-family:"trebuchet ms",verdana,arial,sans-serif;font-size:16px;}#my-svg p{margin:0;}#my-svg .entityBox{fill:#eee;stroke:#999;}#my-svg .relationshipLabelBox{fill:hsl(-160, 0%, 93.3333333333%);opacity:0.7;background-color:hsl(-160, 0%, 93.3333333333%);}#my-svg .relationshipLabelBox rect{opacity:0.5;}#my-svg .labelBkg{background-color:rgba(237.9999999999, 237.9999999999, 237.9999999999, 0.5);}#my-svg .edgeLabel{background-color:white;}#my-svg .edgeLabel .label rect{fill:white;}#my-svg .edgeLabel .label text{fill:#000000;}#my-svg .edgeLabel .label{fill:#999;font-size:14px;}#my-svg .label{font-family:"trebuchet ms",verdana,arial,sans-serif;color:#000000;}#my-svg .edge-pattern-dashed{stroke-dasharray:8,8;}#my-svg .node rect,#my-svg .node circle,#my-svg .node ellipse,#my-svg .node polygon{fill:#eee;stroke:#999;stroke-width:1px;}#my-svg .relationshipLine{stroke:#666;stroke-width:1px;fill:none;}#my-svg .marker{fill:none!important;stroke:#666!important;stroke-width:1;}#my-svg [data-look=neo].labelBkg{background-color:rgba(237.9999999999, 237.9999999999, 237.9999999999, 0.5);}#my-svg .node .neo-node{stroke:#999;}#my-svg [data-look="neo"].node rect,#my-svg [data-look="neo"].cluster rect,#my-svg [data-look="neo"].node polygon{stroke:url(#my-svg-gradient);filter:drop-shadow( 1px 2px 2px rgba(185,185,185,1));}#my-svg [data-look="neo"].node path{stroke:url(#my-svg-gradient);stroke-width:1px;}#my-svg [data-look="neo"].node .outer-path{filter:drop-shadow( 1px 2px 2px rgba(185,185,185,1));}#my-svg [data-look="neo"].node .neo-line path{stroke:#999;filter:none;}#my-svg [data-look="neo"].node circle{stroke:url(#my-svg-gradient);filter:drop-shadow( 1px 2px 2px rgba(185,185,185,1));}#my-svg [data-look="neo"].node circle .state-start{fill:#000000;}#my-svg [data-look="neo"].icon-shape .icon{fill:url(#my-svg-gradient);filter:drop-shadow( 1px 2px 2px rgba(185,185,185,1));}#my-svg [data-look="neo"].icon-shape .icon-neo path{stroke:url(#my-svg-gradient);filter:drop-shadow( 1px 2px 2px rgba(185,185,185,1));}#my-svg :root{--mermaid-font-family:"trebuchet ms",verdana,arial,sans-serif;}</style><g><defs><marker id="my-svg_er-onlyOneStart" class="marker onlyOne er" refX="0" refY="9" markerWidth="18" markerHeight="18" orient="auto"><path d="M9,0 L9,18 M15,0 L15,18"/></marker></defs><defs><marker id="my-svg_er-onlyOneEnd" class="marker onlyOne er" refX="18" refY="9" markerWidth="18" markerHeight="18" orient="auto"><path d="M3,0 L3,18 M9,0 L9,18"/></marker></defs><defs><marker id="my-svg_er-zeroOrOneStart" class="marker zeroOrOne er" refX="0" refY="9" markerWidth="30" markerHeight="18" orient="auto"><circle fill="white" cx="21" cy="9" r="6"/><path d="M9,0 L9,18"/></marker></defs><defs><marker id="my-svg_er-zeroOrOneEnd" class="marker zeroOrOne er" refX="30" refY="9" markerWidth="30" markerHeight="18" orient="auto"><circle fill="white" cx="9" cy="9" r="6"/><path d="M21,0 L21,18"/></marker></defs><defs><marker id="my-svg_er-oneOrMoreStart" class="marker oneOrMore er" refX="18" refY="18" markerWidth="45" markerHeight="36" orient="auto"><path d="M0,18 Q 18,0 36,18 Q 18,36 0,18 M42,9 L42,27"/></marker></defs><defs><marker id="my-svg_er-oneOrMoreEnd" class="marker oneOrMore er" refX="27" refY="18" markerWidth="45" markerHeight="36" orient="auto"><path d="M3,9 L3,27 M9,18 Q27,0 45,18 Q27,36 9,18"/></marker></defs><defs><marker id="my-svg_er-zeroOrMoreStart" class="marker zeroOrMore er" refX="18" refY="18" markerWidth="57" markerHeight="36" orient="auto"><circle fill="white" cx="48" cy="18" r="6"/><path d="M0,18 Q18,0 36,18 Q18,36 0,18"/></marker></defs><defs><marker id="my-svg_er-zeroOrMoreEnd" class="marker zeroOrMore er" refX="39" refY="18" markerWidth="57" markerHeight="36" orient="auto"><circle fill="white" cx="9" cy="18" r="6"/><path d="M21,18 Q39,0 57,18 Q39,36 21,18"/></marker></defs><g class="root"><g class="clusters"/><g class="edgePaths"><path d="M109.211,136.25L109.211,144.667C109.211,153.083,109.211,169.917,109.211,186.75C109.211,203.583,109.211,220.417,109.211,228.833L109.211,237.25" id="my-svg-id_entity-AUTHOR-0_entity-BOOK-1_0" class="edge-thickness-normal edge-pattern-solid relationshipLine" style="undefined;;;undefined" data-edge="true" data-et="edge" data-id="id_entity-AUTHOR-0_entity-BOOK-1_0" data-points="W3sieCI6MTA5LjIxMDkzNzUsInkiOjEzNi4yNX0seyJ4IjoxMDkuMjEwOTM3NSwieSI6MTg2Ljc1fSx7IngiOjEwOS4yMTA5Mzc1LCJ5IjoyMzcuMjV9XQ==" data-look="classic" marker-start="url(#my-svg_er-onlyOneStart)" marker-end="url(#my-svg_er-zeroOrMoreEnd)"/><path d="M109.211,451L109.211,459.417C109.211,467.833,109.211,484.667,109.211,501.5C109.211,518.333,109.211,535.167,109.211,543.583L109.211,552" id="my-svg-id_entity-BOOK-1_entity-TAG-2_1" class="edge-thickness-normal edge-pattern-solid relationshipLine" style="undefined;;;undefined" data-edge="true" data-et="edge" data-id="id_entity-BOOK-1_entity-TAG-2_1" data-points="W3sieCI6MTA5LjIxMDkzNzUsInkiOjQ1MX0seyJ4IjoxMDkuMjEwOTM3NSwieSI6NTAxLjV9LHsieCI6MTA5LjIxMDkzNzUsInkiOjU1Mn1d" data-look="classic" marker-start="url(#my-svg_er-zeroOrMoreStart)" marker-end="url(#my-svg_er-zeroOrMoreEnd)"/></g><g class="edgeLabels"><g class="edgeLabel" transform="translate(109.2109375, 186.75)"><g class="label" data-id="id_entity-AUTHOR-0_entity-BOOK-1_0" transform="translate(-19.359375, -10.5)"><foreignObject width="38.71875" height="21"><div xmlns="http://www.w3.org/1999/xhtml" class="labelBkg" style="display: table-cell; white-space: nowrap; line-height: 1.5; max-width: 200px; text-align: center;"><span class="edgeLabel"><p>writes</p></span></div></foreignObject></g></g><g class="edgeLabel" transform="translate(109.2109375, 501.5)"><g class="label" data-id="id_entity-BOOK-1_entity-TAG-2_1" transform="translate(-29.8203125, -10.5)"><foreignObject width="59.640625" height="21"><div xmlns="http://www.w3.org/1999/xhtml" class="labelBkg" style="display: table-cell; white-space: nowrap; line-height: 1.5; max-width: 200px; text-align: center;"><span class="edgeLabel"><p>tagged as</p></span></div></foreignObject></g></g></g><g class="nodes"><g class="node default" id="my-svg-entity-AUTHOR-0" data-look="classic" transform="translate(109.2109375, 72.125)"><g class="outer-path" style=""><path d="M-86.3359375 -64.125 L86.3359375 -64.125 L86.3359375 64.125 L-86.3359375 64.125" stroke="none" stroke-width="0" fill="#eee"/><path d="M-86.3359375 -64.125 C-40.66690128400623 -64.125, 5.002134931987541 -64.125, 86.3359375 -64.125 M-86.3359375 -64.125 C-19.12475809788087 -64.125, 48.08642130423826 -64.125, 86.3359375 -64.125 M86.3359375 -64.125 C86.3359375 -37.01058081668138, 86.3359375 -9.896161633362773, 86.3359375 64.125 M86.3359375 -64.125 C86.3359375 -27.27746033472212, 86.3359375 9.570079330555757, 86.3359375 64.125 M86.3359375 64.125 C34.36819688114654 64.125, -17.599543737706924 64.125, -86.3359375 64.125 M86.3359375 64.125 C41.45274162322938 64.125, -3.4304542535412423 64.125, -86.3359375 64.125 M-86.3359375 64.125 C-86.3359375 27.986348238631912, -86.3359375 -8.152303522736176, -86.3359375 -64.125 M-86.3359375 64.125 C-86.3359375 31.38829935739342, -86.3359375 -1.348401285213157, -86.3359375 -64.125" stroke="#999" stroke-width="1.3" fill="none" stroke-dasharray="0 0"/></g><g style="" class="row-rect-odd"><path d="M-86.3359375 -21.375 L86.3359375 -21.375 L86.3359375 21.375 L-86.3359375 21.375" stroke="none" stroke-width="0" fill="hsl(0, 0%, 100%)"/><path d="M-86.3359375 -21.375 C-50.83104818936829 -21.375, -15.326158878736578 -21.375, 86.3359375 -21.375 M-86.3359375 -21.375 C-47.79175216986314 -21.375, -9.247566839726275 -21.375, 86.3359375 -21.375 M86.3359375 -21.375 C86.3359375 -6.703977508779513, 86.3359375 7.967044982440974, 86.3359375 21.375 M86.3359375 -21.375 C86.3359375 -8.608004697003064, 86.3359375 4.158990605993871, 86.3359375 21.375 M86.3359375 21.375 C21.208348714668432 21.375, -43.919240070663136 21.375, -86.3359375 21.375 M86.3359375 21.375 C35.52104112785537 21.375, -15.293855244289261 21.375, -86.3359375 21.375 M-86.3359375 21.375 C-86.3359375 5.624795523480417, -86.3359375 -10.125408953039166, -86.3359375 -21.375 M-86.3359375 21.375 C-86.3359375 8.352109667684111, -86.3359375 -4.670780664631778, -86.3359375 -21.375" stroke="#999" stroke-width="1.3" fill="none" stroke-dasharray="0 0"/></g><g style="" class="row-rect-even"><path d="M-86.3359375 21.375 L86.3359375 21.375 L86.3359375 64.125 L-86.3359375 64.125" stroke="none" stroke-width="0" fill="#f4f4f4"/><path d="M-86.3359375 21.375 C-21.77557880760348 21.375, 42.78477988479304 21.375, 86.3359375 21.375 M-86.3359375 21.375 C-39.58879233788216 21.375, 7.158352824235678 21.375, 86.3359375 21.375 M86.3359375 21.375 C86.3359375 31.38668083497661, 86.3359375 41.39836166995322, 86.3359375 64.125 M86.3359375 21.375 C86.3359375 34.14658639064718, 86.3359375 46.91817278129436, 86.3359375 64.125 M86.3359375 64.125 C38.36252235576386 64.125, -9.610892788472285 64.125, -86.3359375 64.125 M86.3359375 64.125 C24.677447216564154 64.125, -36.98104306687169 64.125, -86.3359375 64.125 M-86.3359375 64.125 C-86.3359375 55.462603254826874, -86.3359375 46.80020650965375, -86.3359375 21.375 M-86.3359375 64.125 C-86.3359375 51.1941282562559, -86.3359375 38.2632565125118, -86.3359375 21.375" stroke="#999" stroke-width="1.3" fill="none" stroke-dasharray="0 0"/></g><g class="label name" transform="translate(-29.8359375, -54.75)" style=""><foreignObject width="59.671875" height="24"><div xmlns="http://www.w3.org/1999/xhtml" style="display: table-cell; white-space: nowrap; line-height: 1.5; max-width: 167px; text-align: start;"><span class="nodeLabel"><p>AUTHOR</p></span></div></foreignObject></g><g class="label attribute-type" transform="translate(-73.8359375, -12)" style=""><foreignObject width="19.65625" height="24"><div xmlns="http://www.w3.org/1999/xhtml" style="display: table-cell; white-space: nowrap; line-height: 1.5; max-width: 117px; text-align: start;"><span class="nodeLabel"><p>int</p></span></div></foreignObject></g><g class="label attribute-name" transform="translate(-8.4609375, -12)" style=""><foreignObject width="13.484375" height="24"><div xmlns="http://www.w3.org/1999/xhtml" style="display: table-cell; white-space: nowrap; line-height: 1.5; max-width: 112px; text-align: start;"><span class="nodeLabel"><p>id</p></span></div></foreignObject></g><g class="label attribute-keys" transform="translate(55.6953125, -12)" style=""><foreignObject width="18.140625" height="24"><div xmlns="http://www.w3.org/1999/xhtml" style="display: table-cell; white-space: nowrap; line-height: 1.5; max-width: 121px; text-align: start;"><span class="nodeLabel"><p>PK</p></span></div></foreignObject></g><g class="label attribute-comment" transform="translate(98.8359375, -12)" style=""><foreignObject width="0" height="0"><div xmlns="http://www.w3.org/1999/xhtml" style="display: table-cell; white-space: nowrap; line-height: 1.5; max-width: 100px; text-align: start;"><span class="nodeLabel"></span></div></foreignObject></g><g class="label attribute-type" transform="translate(-73.8359375, 30.75)" style=""><foreignObject width="40.375" height="24"><div xmlns="http://www.w3.org/1999/xhtml" style="display: table-cell; white-space: nowrap; line-height: 1.5; max-width: 136px; text-align: start;"><span class="nodeLabel"><p>string</p></span></div></foreignObject></g><g class="label attribute-name" transform="translate(-8.4609375, 30.75)" style=""><foreignObject width="39.15625" height="24"><div xmlns="http://www.w3.org/1999/xhtml" style="display: table-cell; white-space: nowrap; line-height: 1.5; max-width: 135px; text-align: start;"><span class="nodeLabel"><p>name</p></span></div></foreignObject></g><g class="label attribute-keys" transform="translate(55.6953125, 30.75)" style=""><foreignObject width="0" height="0"><div xmlns="http://www.w3.org/1999/xhtml" style="display: table-cell; white-space: nowrap; line-height: 1.5; max-width: 100px; text-align: start;"><span class="nodeLabel"></span></div></foreignObject></g><g class="label attribute-comment" transform="translate(98.8359375, 30.75)" style=""><foreignObject width="0" height="0"><div xmlns="http://www.w3.org/1999/xhtml" style="display: table-cell; white-space: nowrap; line-height: 1.5; max-width: 100px; text-align: start;"><span class="nodeLabel"></span></div></foreignObject></g><g class="divider"><path d="M-86.3359375 -21.37505 L-86.3359375 -21.37495 L86.3359375 -21.37495 L86.3359375 -21.37505" stroke="none" stroke-width="0" fill="#eee" fill-rule="evenodd"/><path d="M-86.3359375 -21.37505 C-86.3359375 -21.375024989545153, -86.3359375 -21.37499997909031, -86.3359375 -21.37495 M-86.3359375 -21.37505 C-86.3359375 -21.37501108831206, -86.3359375 -21.37497217662412, -86.3359375 -21.37495 M-86.3359375 -21.37495 C-46.34516856688094 -21.37495, -6.354399633761886 -21.37495, 86.3359375 -21.37495 M-86.3359375 -21.37495 C-38.65341582126683 -21.37495, 9.029105857466334 -21.37495, 86.3359375 -21.37495 M86.3359375 -21.37495 C86.3359375 -21.37497416287312, 86.3359375 -21.37499832574624, 86.3359375 -21.37505 M86.3359375 -21.37495 C86.3359375 -21.37498681416237, 86.3359375 -21.37502362832474, 86.3359375 -21.37505 M86.3359375 -21.37505 C44.70969467809743 -21.37505, 3.0834518561948556 -21.37505, -86.3359375 -21.37505 M86.3359375 -21.37505 C34.71467432574017 -21.37505, -16.90658884851966 -21.37505, -86.3359375 -21.37505" stroke="#999" stroke-width="1.3" fill="none" stroke-dasharray="0 0"/></g><g class="divider"><path d="M-20.9609875 -21.375 L-20.9608875 -21.375 L-20.9608875 64.125 L-20.9609875 64.125" stroke="none" stroke-width="0" fill="#eee" fill-rule="evenodd"/><path d="M-20.9609875 -21.375 C-20.960963756677625 -21.375, -20.960940013355245 -21.375, -20.9608875 -21.375 M-20.9609875 -21.375 C-20.96095013650691 -21.375, -20.960912773013817 -21.375, -20.9608875 -21.375 M-20.9608875 -21.375 C-20.9608875 11.405112209941066, -20.9608875 44.18522441988213, -20.9608875 64.125 M-20.9608875 -21.375 C-20.9608875 5.604908865376668, -20.9608875 32.584817730753336, -20.9608875 64.125 M-20.9608875 64.125 C-20.960915019132838 64.125, -20.960942538265677 64.125, -20.9609875 64.125 M-20.9608875 64.125 C-20.960917032424458 64.125, -20.960946564848918 64.125, -20.9609875 64.125 M-20.9609875 64.125 C-20.9609875 42.38049415325804, -20.9609875 20.635988306516083, -20.9609875 -21.375 M-20.9609875 64.125 C-20.9609875 31.424597471078137, -20.9609875 -1.2758050578437263, -20.9609875 -21.375" stroke="#999" stroke-width="1.3" fill="none" stroke-dasharray="0 0"/></g><g class="divider"><path d="M43.1952625 -21.375 L43.1953625 -21.375 L43.1953625 64.125 L43.1952625 64.125" stroke="none" stroke-width="0" fill="#eee" fill-rule="evenodd"/><path d="M43.1952625 -21.375 C43.195301782880804 -21.375, 43.19534106576161 -21.375, 43.1953625 -21.375 M43.1952625 -21.375 C43.19530228156251 -21.375, 43.19534206312502 -21.375, 43.1953625 -21.375 M43.1953625 -21.375 C43.1953625 6.805196317647745, 43.1953625 34.98539263529549, 43.1953625 64.125 M43.1953625 -21.375 C43.1953625 -0.2012504173969134, 43.1953625 20.972499165206173, 43.1953625 64.125 M43.1953625 64.125 C43.19533165046391 64.125, 43.19530080092782 64.125, 43.1952625 64.125 M43.1953625 64.125 C43.19533543425696 64.125, 43.19530836851393 64.125, 43.1952625 64.125 M43.1952625 64.125 C43.1952625 34.16544265671677, 43.1952625 4.205885313433541, 43.1952625 -21.375 M43.1952625 64.125 C43.1952625 45.719737826084035, 43.1952625 27.31447565216807, 43.1952625 -21.375" stroke="#999" stroke-width="1.3" fill="none" stroke-dasharray="0 0"/></g><g class="divider"><path d="M-86.3359375 -21.37505 L-86.3359375 -21.37495 L86.3359375 -21.37495 L86.3359375 -21.37505" stroke="none" stroke-width="0" fill="#eee" fill-rule="evenodd"/><path d="M-86.3359375 -21.37505 C-86.3359375 -21.375017974715362, -86.3359375 -21.374985949430727, -86.3359375 -21.37495 M-86.3359375 -21.37505 C-86.3359375 -21.37502348901185, -86.3359375 -21.3749969780237, -86.3359375 -21.37495 M-86.3359375 -21.37495 C-35.006551830069405 -21.37495, 16.32283383986119 -21.37495, 86.3359375 -21.37495 M-86.3359375 -21.37495 C-17.423144419168707 -21.37495, 51.489648661662585 -21.37495, 86.3359375 -21.37495 M86.3359375 -21.37495 C86.3359375 -21.374983954290684, 86.3359375 -21.375017908581373, 86.3359375 -21.37505 M86.3359375 -21.37495 C86.3359375 -21.374981259252586, 86.3359375 -21.375012518505173, 86.3359375 -21.37505 M86.3359375 -21.37505 C17.69217386316498 -21.37505, -50.95158977367004 -21.37505, -86.3359375 -21.37505 M86.3359375 -21.37505 C38.7518993716322 -21.37505, -8.832138756735603 -21.37505, -86.3359375 -21.37505" stroke="#999" stroke-width="1.3" fill="none" stroke-dasharray="0 0"/></g></g><g class="node default" id="my-svg-entity-BOOK-1" data-look="classic" transform="translate(109.2109375, 344.125)"><g class="outer-path" style=""><path d="M-101.2109375 -106.875 L101.2109375 -106.875 L101.2109375 106.875 L-101.2109375 106.875" stroke="none" stroke-width="0" fill="#eee"/><path d="M-101.2109375 -106.875 C-51.47829408393145 -106.875, -1.745650667862904 -106.875, 101.2109375 -106.875 M-101.2109375 -106.875 C-45.70447355914522 -106.875, 9.801990381709558 -106.875, 101.2109375 -106.875 M101.2109375 -106.875 C101.2109375 -34.123457281808484, 101.2109375 38.62808543638303, 101.2109375 106.875 M101.2109375 -106.875 C101.2109375 -38.78386568868737, 101.2109375 29.30726862262526, 101.2109375 106.875 M101.2109375 106.875 C47.53535342884469 106.875, -6.140230642310627 106.875, -101.2109375 106.875 M101.2109375 106.875 C34.02604934686747 106.875, -33.15883880626507 106.875, -101.2109375 106.875 M-101.2109375 106.875 C-101.2109375 35.129388043863855, -101.2109375 -36.61622391227229, -101.2109375 -106.875 M-101.2109375 106.875 C-101.2109375 52.22766277375043, -101.2109375 -2.4196744524991374, -101.2109375 -106.875" stroke="#999" stroke-width="1.3" fill="none" stroke-dasharray="0 0"/></g><g style="" class="row-rect-odd"><path d="M-101.2109375 -64.125 L101.2109375 -64.125 L101.2109375 -21.375 L-101.2109375 -21.375" stroke="none" stroke-width="0" fill="hsl(0, 0%, 100%)"/><path d="M-101.2109375 -64.125 C-46.05859881254565 -64.125, 9.093739874908707 -64.125, 101.2109375 -64.125 M-101.2109375 -64.125 C-20.40594738579513 -64.125, 60.39904272840974 -64.125, 101.2109375 -64.125 M101.2109375 -64.125 C101.2109375 -54.067022061076386, 101.2109375 -44.00904412215277, 101.2109375 -21.375 M101.2109375 -64.125 C101.2109375 -54.11020710523508, 101.2109375 -44.09541421047015, 101.2109375 -21.375 M101.2109375 -21.375 C55.94395037637856 -21.375, 10.676963252757119 -21.375, -101.2109375 -21.375 M101.2109375 -21.375 C56.467628215686354 -21.375, 11.724318931372707 -21.375, -101.2109375 -21.375 M-101.2109375 -21.375 C-101.2109375 -36.15588405732174, -101.2109375 -50.93676811464349, -101.2109375 -64.125 M-101.2109375 -21.375 C-101.2109375 -32.00287648382019, -101.2109375 -42.630752967640376, -101.2109375 -64.125" stroke="#999" stroke-width="1.3" fill="none" stroke-dasharray="0 0"/></g><g style="" class="row-rect-even"><path d="M-101.2109375 -21.375 L101.2109375 -21.375 L101.2109375 21.375 L-101.2109375 21.375" stroke="none" stroke-width="0" fill="#f4f4f4"/><path d="M-101.2109375 -21.375 C-47.754598630950476 -21.375, 5.701740238099049 -21.375, 101.2109375 -21.375 M-101.2109375 -21.375 C-20.65291229595161 -21.375, 59.90511290809678 -21.375, 101.2109375 -21.375 M101.2109375 -21.375 C101.2109375 -8.393789660838053, 101.2109375 4.587420678323895, 101.2109375 21.375 M101.2109375 -21.375 C101.2109375 -11.267428766588827, 101.2109375 -1.1598575331776537, 101.2109375 21.375 M101.2109375 21.375 C44.59083924880835 21.375, -12.029259002383299 21.375, -101.2109375 21.375 M101.2109375 21.375 C58.000320537578084 21.375, 14.789703575156167 21.375, -101.2109375 21.375 M-101.2109375 21.375 C-101.2109375 9.66624295206356, -101.2109375 -2.0425140958728782, -101.2109375 -21.375 M-101.2109375 21.375 C-101.2109375 4.615507437241071, -101.2109375 -12.143985125517858, -101.2109375 -21.375" stroke="#999" stroke-width="1.3" fill="none" stroke-dasharray="0 0"/></g><g style="" class="row-rect-odd"><path d="M-101.2109375 21.375 L101.2109375 21.375 L101.2109375 64.125 L-101.2109375 64.125" stroke="none" stroke-width="0" fill="hsl(0, 0%, 100%)"/><path d="M-101.2109375 21.375 C-57.134461459879276 21.375, -13.057985419758552 21.375, 101.2109375 21.375 M-101.2109375 21.375 C-38.02692869011742 21.375, 25.157080119765155 21.375, 101.2109375 21.375 M101.2109375 21.375 C101.2109375 33.65582790462693, 101.2109375 45.936655809253864, 101.2109375 64.125 M101.2109375 21.375 C101.2109375 35.32795424532694, 101.2109375 49.280908490653886, 101.2109375 64.125 M101.2109375 64.125 C33.596725791177505 64.125, -34.01748591764499 64.125, -101.2109375 64.125 M101.2109375 64.125 C24.325448384267744 64.125, -52.56004073146451 64.125, -101.2109375 64.125 M-101.2109375 64.125 C-101.2109375 52.81888018091797, -101.2109375 41.512760361835944, -101.2109375 21.375 M-101.2109375 64.125 C-101.2109375 49.74370675987549, -101.2109375 35.36241351975097, -101.2109375 21.375" stroke="#999" stroke-width="1.3" fill="none" stroke-dasharray="0 0"/></g><g style="" class="row-rect-even"><path d="M-101.2109375 64.125 L101.2109375 64.125 L101.2109375 106.875 L-101.2109375 106.875" stroke="none" stroke-width="0" fill="#f4f4f4"/><path d="M-101.2109375 64.125 C-38.66035610099046 64.125, 23.890225298019075 64.125, 101.2109375 64.125 M-101.2109375 64.125 C-52.190727421595696 64.125, -3.170517343191392 64.125, 101.2109375 64.125 M101.2109375 64.125 C101.2109375 80.61423013401873, 101.2109375 97.10346026803745, 101.2109375 106.875 M101.2109375 64.125 C101.2109375 75.44556450645345, 101.2109375 86.76612901290689, 101.2109375 106.875 M101.2109375 106.875 C53.02511317917589 106.875, 4.839288858351779 106.875, -101.2109375 106.875 M101.2109375 106.875 C53.488113410014606 106.875, 5.765289320029211 106.875, -101.2109375 106.875 M-101.2109375 106.875 C-101.2109375 96.77002578240754, -101.2109375 86.6650515648151, -101.2109375 64.125 M-101.2109375 106.875 C-101.2109375 96.2073055692875, -101.2109375 85.53961113857498, -101.2109375 64.125" stroke="#999" stroke-width="1.3" fill="none" stroke-dasharray="0 0"/></g><g class="label name" transform="translate(-19.9140625, -97.5)" style=""><foreignObject width="39.828125" height="24"><div xmlns="http://www.w3.org/1999/xhtml" style="display: table-cell; white-space: nowrap; line-height: 1.5; max-width: 145px; text-align: start;"><span class="nodeLabel"><p>BOOK</p></span></div></foreignObject></g><g class="label attribute-type" transform="translate(-88.7109375, -54.75)" style=""><foreignObject width="19.65625" height="24"><div xmlns="http://www.w3.org/1999/xhtml" style="display: table-cell; white-space: nowrap; line-height: 1.5; max-width: 117px; text-align: start;"><span class="nodeLabel"><p>int</p></span></div></foreignObject></g><g class="label attribute-name" transform="translate(-23.3359375, -54.75)" style=""><foreignObject width="13.484375" height="24"><div xmlns="http://www.w3.org/1999/xhtml" style="display: table-cell; white-space: nowrap; line-height: 1.5; max-width: 112px; text-align: start;"><span class="nodeLabel"><p>id</p></span></div></foreignObject></g><g class="label attribute-keys" transform="translate(70.5703125, -54.75)" style=""><foreignObject width="18.140625" height="24"><div xmlns="http://www.w3.org/1999/xhtml" style="display: table-cell; white-space: nowrap; line-height: 1.5; max-width: 121px; text-align: start;"><span class="nodeLabel"><p>PK</p></span></div></foreignObject></g><g class="label attribute-comment" transform="translate(113.7109375, -54.75)" style=""><foreignObject width="0" height="0"><div xmlns="http://www.w3.org/1999/xhtml" style="display: table-cell; white-space: nowrap; line-height: 1.5; max-width: 100px; text-align: start;"><span class="nodeLabel"></span></div></foreignObject></g><g class="label attribute-type" transform="translate(-88.7109375, -12)" style=""><foreignObject width="19.65625" height="24"><div xmlns="http://www.w3.org/1999/xhtml" style="display: table-cell; white-space: nowrap; line-height: 1.5; max-width: 117px; text-align: start;"><span class="nodeLabel"><p>int</p></span></div></foreignObject></g><g class="label attribute-name" transform="translate(-23.3359375, -12)" style=""><foreignObject width="68.90625" height="24"><div xmlns="http://www.w3.org/1999/xhtml" style="display: table-cell; white-space: nowrap; line-height: 1.5; max-width: 161px; text-align: start;"><span class="nodeLabel"><p>author_id</p></span></div></foreignObject></g><g class="label attribute-keys" transform="translate(70.5703125, -12)" style=""><foreignObject width="17.609375" height="24"><div xmlns="http://www.w3.org/1999/xhtml" style="display: table-cell; white-space: nowrap; line-height: 1.5; max-width: 121px; text-align: start;"><span class="nodeLabel"><p>FK</p></span></div></foreignObject></g><g class="label attribute-comment" transform="translate(113.7109375, -12)" style=""><foreignObject width="0" height="0"><div xmlns="http://www.w3.org/1999/xhtml" style="display: table-cell; white-space: nowrap; line-height: 1.5; max-width: 100px; text-align: start;"><span class="nodeLabel"></span></div></foreignObject></g><g class="label attribute-type" transform="translate(-88.7109375, 30.75)" style=""><foreignObject width="40.375" height="24"><div xmlns="http://www.w3.org/1999/xhtml" style="display: table-cell; white-space: nowrap; line-height: 1.5; max-width: 136px; text-align: start;"><span class="nodeLabel"><p>string</p></span></div></foreignObject></g><g class="label attribute-name" transform="translate(-23.3359375, 30.75)" style=""><foreignObject width="30.703125" height="24"><div xmlns="http://www.w3.org/1999/xhtml" style="display: table-cell; white-space: nowrap; line-height: 1.5; max-width: 125px; text-align: start;"><span class="nodeLabel"><p>title</p></span></div></foreignObject></g><g class="label attribute-keys" transform="translate(70.5703125, 30.75)" style=""><foreignObject width="0" height="0"><div xmlns="http://www.w3.org/1999/xhtml" style="display: table-cell; white-space: nowrap; line-height: 1.5; max-width: 100px; text-align: start;"><span class="nodeLabel"></span></div></foreignObject></g><g class="label attribute-comment" transform="translate(113.7109375, 30.75)" style=""><foreignObject width="0" height="0"><div xmlns="http://www.w3.org/1999/xhtml" style="display: table-cell; white-space: nowrap; line-height: 1.5; max-width: 100px; text-align: start;"><span class="nodeLabel"></span></div></foreignObject></g><g class="label attribute-type" transform="translate(-88.7109375, 73.5)" style=""><foreignObject width="19.65625" height="24"><div xmlns="http://www.w3.org/1999/xhtml" style="display: table-cell; white-space: nowrap; line-height: 1.5; max-width: 117px; text-align: start;"><span class="nodeLabel"><p>int</p></span></div></foreignObject></g><g class="label attribute-name" transform="translate(-23.3359375, 73.5)" style=""><foreignObject width="31.25" height="24"><div xmlns="http://www.w3.org/1999/xhtml" style="display: table-cell; white-space: nowrap; line-height: 1.5; max-width: 128px; text-align: start;"><span class="nodeLabel"><p>year</p></span></div></foreignObject></g><g class="label attribute-keys" transform="translate(70.5703125, 73.5)" style=""><foreignObject width="0" height="0"><div xmlns="http://www.w3.org/1999/xhtml" style="display: table-cell; white-space: nowrap; line-height: 1.5; max-width: 100px; text-align: start;"><span class="nodeLabel"></span></div></foreignObject></g><g class="label attribute-comment" transform="translate(113.7109375, 73.5)" style=""><foreignObject width="0" height="0"><div xmlns="http://www.w3.org/1999/xhtml" style="display: table-cell; white-space: nowrap; line-height: 1.5; max-width: 100px; text-align: start;"><span class="nodeLabel"></span></div></foreignObject></g><g class="divider"><path d="M-101.2109375 -64.12505 L-101.2109375 -64.12495 L101.2109375 -64.12495 L101.2109375 -64.12505" stroke="none" stroke-width="0" fill="#eee" fill-rule="evenodd"/><path d="M-101.2109375 -64.12505 C-101.2109375 -64.1250157093058, -101.2109375 -64.12498141861161, -101.2109375 -64.12495 M-101.2109375 -64.12505 C-101.2109375 -64.12501980696479, -101.2109375 -64.12498961392957, -101.2109375 -64.12495 M-101.2109375 -64.12495 C-30.511056074411627 -64.12495, 40.188825351176746 -64.12495, 101.2109375 -64.12495 M-101.2109375 -64.12495 C-57.989636006152274 -64.12495, -14.768334512304548 -64.12495, 101.2109375 -64.12495 M101.2109375 -64.12495 C101.2109375 -64.12498361846173, 101.2109375 -64.12501723692344, 101.2109375 -64.12505 M101.2109375 -64.12495 C101.2109375 -64.12498079140019, 101.2109375 -64.1250115828004, 101.2109375 -64.12505 M101.2109375 -64.12505 C39.45470344655122 -64.12505, -22.301530606897558 -64.12505, -101.2109375 -64.12505 M101.2109375 -64.12505 C49.901656461518094 -64.12505, -1.407624576963812 -64.12505, -101.2109375 -64.12505" stroke="#999" stroke-width="1.3" fill="none" stroke-dasharray="0 0"/></g><g class="divider"><path d="M-35.8359875 -64.125 L-35.8358875 -64.125 L-35.8358875 106.875 L-35.8359875 106.875" stroke="none" stroke-width="0" fill="#eee" fill-rule="evenodd"/><path d="M-35.8359875 -64.125 C-35.835965942477 -64.125, -35.83594438495401 -64.125, -35.8358875 -64.125 M-35.8359875 -64.125 C-35.83595786580687 -64.125, -35.83592823161373 -64.125, -35.8358875 -64.125 M-35.8358875 -64.125 C-35.8358875 -29.896214358707866, -35.8358875 4.332571282584269, -35.8358875 106.875 M-35.8358875 -64.125 C-35.8358875 -6.285937046828693, -35.8358875 51.553125906342615, -35.8358875 106.875 M-35.8358875 106.875 C-35.83591774137308 106.875, -35.83594798274616 106.875, -35.8359875 106.875 M-35.8358875 106.875 C-35.83592052703097 106.875, -35.835953554061945 106.875, -35.8359875 106.875 M-35.8359875 106.875 C-35.8359875 57.49381219612566, -35.8359875 8.11262439225132, -35.8359875 -64.125 M-35.8359875 106.875 C-35.8359875 55.466823560123565, -35.8359875 4.05864712024713, -35.8359875 -64.125" stroke="#999" stroke-width="1.3" fill="none" stroke-dasharray="0 0"/></g><g class="divider"><path d="M58.0702625 -64.125 L58.0703625 -64.125 L58.0703625 106.875 L58.0702625 106.875" stroke="none" stroke-width="0" fill="#eee" fill-rule="evenodd"/><path d="M58.0702625 -64.125 C58.07029935544881 -64.125, 58.07033621089762 -64.125, 58.0703625 -64.125 M58.0702625 -64.125 C58.07029362613304 -64.125, 58.07032475226608 -64.125, 58.0703625 -64.125 M58.0703625 -64.125 C58.0703625 -4.538445473704087, 58.0703625 55.048109052591826, 58.0703625 106.875 M58.0703625 -64.125 C58.0703625 -3.6678127032354553, 58.0703625 56.78937459352909, 58.0703625 106.875 M58.0703625 106.875 C58.070334612783014 106.875, 58.07030672556603 106.875, 58.0702625 106.875 M58.0703625 106.875 C58.07034068297536 106.875, 58.070318865950725 106.875, 58.0702625 106.875 M58.0702625 106.875 C58.0702625 60.605404517117634, 58.0702625 14.335809034235268, 58.0702625 -64.125 M58.0702625 106.875 C58.0702625 65.5701446217115, 58.0702625 24.265289243423027, 58.0702625 -64.125" stroke="#999" stroke-width="1.3" fill="none" stroke-dasharray="0 0"/></g><g class="divider"><path d="M-101.2109375 -64.12505 L-101.2109375 -64.12495 L101.2109375 -64.12495 L101.2109375 -64.12505" stroke="none" stroke-width="0" fill="#eee" fill-rule="evenodd"/><path d="M-101.2109375 -64.12505 C-101.2109375 -64.12501388140612, -101.2109375 -64.12497776281222, -101.2109375 -64.12495 M-101.2109375 -64.12505 C-101.2109375 -64.12501828328784, -101.2109375 -64.12498656657567, -101.2109375 -64.12495 M-101.2109375 -64.12495 C-44.28752829110065 -64.12495, 12.635880917798701 -64.12495, 101.2109375 -64.12495 M-101.2109375 -64.12495 C-40.31692971014215 -64.12495, 20.577078079715704 -64.12495, 101.2109375 -64.12495 M101.2109375 -64.12495 C101.2109375 -64.12498564249798, 101.2109375 -64.12502128499595, 101.2109375 -64.12505 M101.2109375 -64.12495 C101.2109375 -64.12498303639522, 101.2109375 -64.12501607279043, 101.2109375 -64.12505 M101.2109375 -64.12505 C36.574226269990405 -64.12505, -28.06248496001919 -64.12505, -101.2109375 -64.12505 M101.2109375 -64.12505 C22.101086830542187 -64.12505, -57.00876383891563 -64.12505, -101.2109375 -64.12505" stroke="#999" stroke-width="1.3" fill="none" stroke-dasharray="0 0"/></g></g><g class="node default" id="my-svg-entity-TAG-2" data-look="classic" transform="translate(109.2109375, 616.125)"><g class="outer-path" style=""><path d="M-86.3359375 -64.125 L86.3359375 -64.125 L86.3359375 64.125 L-86.3359375 64.125" stroke="none" stroke-width="0" fill="#eee"/><path d="M-86.3359375 -64.125 C-51.04145202870385 -64.125, -15.746966557407703 -64.125, 86.3359375 -64.125 M-86.3359375 -64.125 C-25.26658756637756 -64.125, 35.80276236724488 -64.125, 86.3359375 -64.125 M86.3359375 -64.125 C86.3359375 -13.56206282852753, 86.3359375 37.00087434294494, 86.3359375 64.125 M86.3359375 -64.125 C86.3359375 -25.47322400623476, 86.3359375 13.178551987530483, 86.3359375 64.125 M86.3359375 64.125 C21.264157204737586 64.125, -43.80762309052483 64.125, -86.3359375 64.125 M86.3359375 64.125 C32.84835316168716 64.125, -20.639231176625685 64.125, -86.3359375 64.125 M-86.3359375 64.125 C-86.3359375 31.676913884407085, -86.3359375 -0.7711722311858296, -86.3359375 -64.125 M-86.3359375 64.125 C-86.3359375 24.952148407333844, -86.3359375 -14.220703185332312, -86.3359375 -64.125" stroke="#999" stroke-width="1.3" fill="none" stroke-dasharray="0 0"/></g><g style="" class="row-rect-odd"><path d="M-86.3359375 -21.375 L86.3359375 -21.375 L86.3359375 21.375 L-86.3359375 21.375" stroke="none" stroke-width="0" fill="hsl(0, 0%, 100%)"/><path d="M-86.3359375 -21.375 C-20.839383339940838 -21.375, 44.657170820118324 -21.375, 86.3359375 -21.375 M-86.3359375 -21.375 C-27.57559684642421 -21.375, 31.184743807151577 -21.375, 86.3359375 -21.375 M86.3359375 -21.375 C86.3359375 -12.464748550852136, 86.3359375 -3.5544971017042712, 86.3359375 21.375 M86.3359375 -21.375 C86.3359375 -10.390049061311085, 86.3359375 0.5949018773778292, 86.3359375 21.375 M86.3359375 21.375 C32.090180365387546 21.375, -22.155576769224908 21.375, -86.3359375 21.375 M86.3359375 21.375 C43.737407269430484 21.375, 1.1388770388609686 21.375, -86.3359375 21.375 M-86.3359375 21.375 C-86.3359375 5.4317319350059385, -86.3359375 -10.511536129988123, -86.3359375 -21.375 M-86.3359375 21.375 C-86.3359375 11.274300596052315, -86.3359375 1.1736011921046305, -86.3359375 -21.375" stroke="#999" stroke-width="1.3" fill="none" stroke-dasharray="0 0"/></g><g style="" class="row-rect-even"><path d="M-86.3359375 21.375 L86.3359375 21.375 L86.3359375 64.125 L-86.3359375 64.125" stroke="none" stroke-width="0" fill="#f4f4f4"/><path d="M-86.3359375 21.375 C-34.90146630252311 21.375, 16.533004894953777 21.375, 86.3359375 21.375 M-86.3359375 21.375 C-49.81176082789199 21.375, -13.287584155783975 21.375, 86.3359375 21.375 M86.3359375 21.375 C86.3359375 34.439807607432584, 86.3359375 47.50461521486517, 86.3359375 64.125 M86.3359375 21.375 C86.3359375 31.715799046095412, 86.3359375 42.056598092190825, 86.3359375 64.125 M86.3359375 64.125 C17.811039061810504 64.125, -50.71385937637899 64.125, -86.3359375 64.125 M86.3359375 64.125 C50.668982413509355 64.125, 15.002027327018709 64.125, -86.3359375 64.125 M-86.3359375 64.125 C-86.3359375 55.493592965212216, -86.3359375 46.86218593042443, -86.3359375 21.375 M-86.3359375 64.125 C-86.3359375 49.79911025663576, -86.3359375 35.473220513271514, -86.3359375 21.375" stroke="#999" stroke-width="1.3" fill="none" stroke-dasharray="0 0"/></g><g class="label name" transform="translate(-14, -54.75)" style=""><foreignObject width="28" height="24"><div xmlns="http://www.w3.org/1999/xhtml" style="display: table-cell; white-space: nowrap; line-height: 1.5; max-width: 132px; text-align: start;"><span class="nodeLabel"><p>TAG</p></span></div></foreignObject></g><g class="label attribute-type" transform="translate(-73.8359375, -12)" style=""><foreignObject width="19.65625" height="24"><div xmlns="http://www.w3.org/1999/xhtml" style="display: table-cell; white-space: nowrap; line-height: 1.5; max-width: 117px; text-align: start;"><span class="nodeLabel"><p>int</p></span></div></foreignObject></g><g class="label attribute-name" transform="translate(-8.4609375, -12)" style=""><foreignObject width="13.484375" height="24"><div xmlns="http://www.w3.org/1999/xhtml" style="display: table-cell; white-space: nowrap; line-height: 1.5; max-width: 112px; text-align: start;"><span class="nodeLabel"><p>id</p></span></div></foreignObject></g><g class="label attribute-keys" transform="translate(55.6953125, -12)" style=""><foreignObject width="18.140625" height="24"><div xmlns="http://www.w3.org/1999/xhtml" style="display: table-cell; white-space: nowrap; line-height: 1.5; max-width: 121px; text-align: start;"><span class="nodeLabel"><p>PK</p></span></div></foreignObject></g><g class="label attribute-comment" transform="translate(98.8359375, -12)" style=""><foreignObject width="0" height="0"><div xmlns="http://www.w3.org/1999/xhtml" style="display: table-cell; white-space: nowrap; line-height: 1.5; max-width: 100px; text-align: start;"><span class="nodeLabel"></span></div></foreignObject></g><g class="label attribute-type" transform="translate(-73.8359375, 30.75)" style=""><foreignObject width="40.375" height="24"><div xmlns="http://www.w3.org/1999/xhtml" style="display: table-cell; white-space: nowrap; line-height: 1.5; max-width: 136px; text-align: start;"><span class="nodeLabel"><p>string</p></span></div></foreignObject></g><g class="label attribute-name" transform="translate(-8.4609375, 30.75)" style=""><foreignObject width="39.15625" height="24"><div xmlns="http://www.w3.org/1999/xhtml" style="display: table-cell; white-space: nowrap; line-height: 1.5; max-width: 135px; text-align: start;"><span class="nodeLabel"><p>name</p></span></div></foreignObject></g><g class="label attribute-keys" transform="translate(55.6953125, 30.75)" style=""><foreignObject width="0" height="0"><div xmlns="http://www.w3.org/1999/xhtml" style="display: table-cell; white-space: nowrap; line-height: 1.5; max-width: 100px; text-align: start;"><span class="nodeLabel"></span></div></foreignObject></g><g class="label attribute-comment" transform="translate(98.8359375, 30.75)" style=""><foreignObject width="0" height="0"><div xmlns="http://www.w3.org/1999/xhtml" style="display: table-cell; white-space: nowrap; line-height: 1.5; max-width: 100px; text-align: start;"><span class="nodeLabel"></span></div></foreignObject></g><g class="divider"><path d="M-86.3359375 -21.37505 L-86.3359375 -21.37495 L86.3359375 -21.37495 L86.3359375 -21.37505" stroke="none" stroke-width="0" fill="#eee" fill-rule="evenodd"/><path d="M-86.3359375 -21.37505 C-86.3359375 -21.375014679968718, -86.3359375 -21.374979359937434, -86.3359375 -21.37495 M-86.3359375 -21.37505 C-86.3359375 -21.375027863521815, -86.3359375 -21.375005727043625, -86.3359375 -21.37495 M-86.3359375 -21.37495 C-25.22420667318125 -21.37495, 35.8875241536375 -21.37495, 86.3359375 -21.37495 M-86.3359375 -21.37495 C-23.669472640190882 -21.37495, 38.996992219618235 -21.37495, 86.3359375 -21.37495 M86.3359375 -21.37495 C86.3359375 -21.37497381722052, 86.3359375 -21.374997634441048, 86.3359375 -21.37505 M86.3359375 -21.37495 C86.3359375 -21.374974911994936, 86.3359375 -21.37499982398987, 86.3359375 -21.37505 M86.3359375 -21.37505 C41.91392202212708 -21.37505, -2.5080934557458363 -21.37505, -86.3359375 -21.37505 M86.3359375 -21.37505 C21.80877237830458 -21.37505, -42.71839274339084 -21.37505, -86.3359375 -21.37505" stroke="#999" stroke-width="1.3" fill="none" stroke-dasharray="0 0"/></g><g class="divider"><path d="M-20.9609875 -21.375 L-20.9608875 -21.375 L-20.9608875 64.125 L-20.9609875 64.125" stroke="none" stroke-width="0" fill="#eee" fill-rule="evenodd"/><path d="M-20.9609875 -21.375 C-20.96095849510343 -21.375, -20.960929490206862 -21.375, -20.9608875 -21.375 M-20.9609875 -21.375 C-20.960948742590713 -21.375, -20.960909985181427 -21.375, -20.9608875 -21.375 M-20.9608875 -21.375 C-20.9608875 12.474183574537555, -20.9608875 46.32336714907511, -20.9608875 64.125 M-20.9608875 -21.375 C-20.9608875 8.889611256100888, -20.9608875 39.15422251220178, -20.9608875 64.125 M-20.9608875 64.125 C-20.960923573534135 64.125, -20.960959647068268 64.125, -20.9609875 64.125 M-20.9608875 64.125 C-20.960924087510143 64.125, -20.96096067502029 64.125, -20.9609875 64.125 M-20.9609875 64.125 C-20.9609875 44.892859757837776, -20.9609875 25.660719515675552, -20.9609875 -21.375 M-20.9609875 64.125 C-20.9609875 30.921089434196716, -20.9609875 -2.2828211316065676, -20.9609875 -21.375" stroke="#999" stroke-width="1.3" fill="none" stroke-dasharray="0 0"/></g><g class="divider"><path d="M43.1952625 -21.375 L43.1953625 -21.375 L43.1953625 64.125 L43.1952625 64.125" stroke="none" stroke-width="0" fill="#eee" fill-rule="evenodd"/><path d="M43.1952625 -21.375 C43.195301669376754 -21.375, 43.19534083875351 -21.375, 43.1953625 -21.375 M43.1952625 -21.375 C43.195296613780656 -21.375, 43.19533072756131 -21.375, 43.1953625 -21.375 M43.1953625 -21.375 C43.1953625 -0.850770247409649, 43.1953625 19.673459505180702, 43.1953625 64.125 M43.1953625 -21.375 C43.1953625 3.595493325101547, 43.1953625 28.565986650203094, 43.1953625 64.125 M43.1953625 64.125 C43.195335618099136 64.125, 43.195308736198264 64.125, 43.1952625 64.125 M43.1953625 64.125 C43.19533042166348 64.125, 43.19529834332696 64.125, 43.1952625 64.125 M43.1952625 64.125 C43.1952625 42.65435659989764, 43.1952625 21.183713199795278, 43.1952625 -21.375 M43.1952625 64.125 C43.1952625 43.48056701263507, 43.1952625 22.83613402527014, 43.1952625 -21.375" stroke="#999" stroke-width="1.3" fill="none" stroke-dasharray="0 0"/></g><g class="divider"><path d="M-86.3359375 -21.37505 L-86.3359375 -21.37495 L86.3359375 -21.37495 L86.3359375 -21.37505" stroke="none" stroke-width="0" fill="#eee" fill-rule="evenodd"/><path d="M-86.3359375 -21.37505 C-86.3359375 -21.375028807890885, -86.3359375 -21.37500761578177, -86.3359375 -21.37495 M-86.3359375 -21.37505 C-86.3359375 -21.375027849061087, -86.3359375 -21.375005698122173, -86.3359375 -21.37495 M-86.3359375 -21.37495 C-43.12066438411971 -21.37495, 0.09460873176057305 -21.37495, 86.3359375 -21.37495 M-86.3359375 -21.37495 C-32.85216991602757 -21.37495, 20.63159766794486 -21.37495, 86.3359375 -21.37495 M86.3359375 -21.37495 C86.3359375 -21.374976153258494, 86.3359375 -21.375002306516993, 86.3359375 -21.37505 M86.3359375 -21.37495 C86.3359375 -21.374974292037336, 86.3359375 -21.37499858407467, 86.3359375 -21.37505 M86.3359375 -21.37505 C43.60278357610209 -21.37505, 0.869629652204182 -21.37505, -86.3359375 -21.37505 M86.3359375 -21.37505 C32.319676866889196 -21.37505, -21.696583766221607 -21.37505, -86.3359375 -21.37505" stroke="#999" stroke-width="1.3" fill="none" stroke-dasharray="0 0"/></g></g></g></g></g><defs><filter id="my-svg-drop-shadow" height="130%" width="130%"><feDropShadow dx="4" dy="4" stdDeviation="0" flood-opacity="0.06" flood-color="#000000"/></filter></defs><defs><filter id="my-svg-drop-shadow-small" height="150%" width="150%"><feDropShadow dx="2" dy="2" stdDeviation="0" flood-opacity="0.06" flood-color="#000000"/></filter></defs><linearGradient id="my-svg-gradient" gradientUnits="objectBoundingBox" x1="0%" y1="0%" x2="100%" y2="0%"><stop offset="0%" stop-color="hsl(0, 0%, 83.3333333333%)" stop-opacity="1"/><stop offset="100%" stop-color="hsl(0, 0%, 88.9215686275%)" stop-opacity="1"/></linearGradient></svg>