<svg id="my-svg" width="100%" xmlns="http://www.w3.org/2000/svg" xmlns:xlink="http://www.w3.org/1999/xlink" class="requirementDiagram" style="max-width: 674.438px; background-color: transparent;" viewBox="0 0 674.4375 644" role="graphics-document document" aria-roledescription="requirement"><style>#my-svg{font-family:"trebuchet ms",verdana,arial,sans-serif;font-size:16px;fill:#000000;}@keyframes edge-animation-frame{from{stroke-dashoffset:0;}}@keyframes dash{to{stroke-dashoffset:0;}}#my-svg .edge-animation-slow{stroke-dasharray:9,5!important;stroke-dashoffset:900;animation:dash 50s linear infinite;stroke-linecap:round;}#my-svg .edge-animation-fast{stroke-dasharray:9,5!important;stroke-dashoffset:900;animation:dash 20s linear infinite;stroke-linecap:round;}#my-svg .error-icon{fill:#552222;}#my-svg .error-text{fill:#552222;stroke:#552222;}#my-svg .edge-thickness-normal{stroke-width:1px;}#my-svg .edge-thickness-thick{stroke-width:3.5px;}#my-svg .edge-pattern-solid{stroke-dasharray:0;}#my-svg .edge-thickness-invisible{stroke-width:0;fill:none;}#my-svg .edge-pattern-dashed{stroke-dasharray:3;}#my-svg .edge-pattern-dotted{stroke-dasharray:2;}#my-svg .marker{fill:#666;stroke:#666;}#my-svg .marker.cross{stroke:#666;}#my-svg svg{font-family:"trebuchet ms",verdana,arial,sans-serif;font-size:16px;}#my-svg p{margin:0;}#my-svg marker{fill:#666;stroke:#666;}#my-svg marker.cross{stroke:#666;}#my-svg svg{font-family:"trebuchet ms",verdana,arial,sans-serif;font-size:16px;}#my-svg .reqBox{fill:#eee;fill-opacity:1.0;stroke:hsl(0, 0%, 83.3333333333%);stroke-width:1;}#my-svg .reqTitle,#my-svg .reqLabel{fill:#111111;}#my-svg .reqLabelBox{fill:white;fill-opacity:1.0;}#my-svg .req-title-line{stroke:hsl(0, 0%, 83.3333333333%);stroke-width:1;}#my-svg .relationshipLine{stroke:#666;stroke-width:1px;}#my-svg .relationshipLabel{fill:#333;}#my-svg .edgeLabel{background-color:white;}#my-svg .edgeLabel .label rect{fill:white;}#my-svg .edgeLabel .label text{fill:#333;}#my-svg .divider{stroke:#999;stroke-width:1;}#my-svg .label{font-family:"trebuchet ms",verdana,arial,sans-serif;color:#000000;}#my-svg .label text,#my-svg span{fill:#000000;color:#000000;}#my-svg .labelBkg{background-color:white;}#my-svg .node .neo-node{stroke:#999;}#my-svg [data-look="neo"].node rect,#my-svg [data-look="neo"].cluster rect,#my-svg [data-look="neo"].node polygon{stroke:url(#my-svg-gradient);filter:drop-shadow( 1px 2px 2px rgba(185,185,185,1));}#my-svg [data-look="neo"].node path{stroke:url(#my-svg-gradient);stroke-width:1px;}#my-svg [data-look="neo"].node .outer-path{filter:drop-shadow( 1px 2px 2px rgba(185,185,185,1));}#my-svg [data-look="neo"].node .neo-line path{stroke:#999;filter:none;}#my-svg [data-look="neo"].node circle{stroke:url(#my-svg-gradient);filter:drop-shadow( 1px 2px 2px rgba(185,185,185,1));}#my-svg [data-look="neo"].node circle .state-start{fill:#000000;}#my-svg [data-look="neo"].icon-shape .icon{fill:url(#my-svg-gradient);filter:drop-shadow( 1px 2px 2px rgba(185,185,185,1));}#my-svg [data-look="neo"].icon-shape .icon-neo path{stroke:url(#my-svg-gradient);filter:drop-shadow( 1px 2px 2px rgba(185,185,185,1));}#my-svg :root{--mermaid-font-family:"trebuchet ms",verdana,arial,sans-serif;}</style><g><defs><marker id="my-svg_requirement-requirement_containsStart" refX="0" refY="10" markerWidth="20" markerHeight="20" orient="auto"><g><circle cx="10" cy="10" r="9" fill="none"/><line x1="1" x2="19" y1="10" y2="10"/><line y1="1" y2="19" x1="10" x2="10"/></g></marker></defs><defs><marker id="my-svg_requirement-requirement_arrowEnd" refX="20" refY="10" markerWidth="20" markerHeight="20" orient="auto"><path d="M0,0&#10;      L20,10&#10;      M20,10&#10;      L0,20"/></marker></defs><g class="root"><g class="clusters"/><g class="edgePaths"><path d="M79.758,342L79.758,354.167C79.758,366.333,79.758,390.667,88.224,409C96.691,427.333,113.624,439.667,122.09,445.833L130.557,452" id="my-svg-uploader-upload-0" class="edge-thickness-normal edge-pattern-dashed relationshipLine" style="fill:none;stroke-dasharray: 10,7;;;fill:none;stroke-dasharray: 10,7" data-edge="true" data-et="edge" data-id="uploader-upload-0" data-points="W3sieCI6NzkuNzU3ODEyNSwieSI6MzQyfSx7IngiOjc5Ljc1NzgxMjUsInkiOjQxNX0seyJ4IjoxMzAuNTU2NjI1NDg0NDk2MTIsInkiOjQ1Mn1d" data-look="classic" marker-end="url(#my-svg_requirement-requirement_arrowEnd)"/><path d="M433.977,120L433.977,126.167C433.977,132.333,433.977,144.667,433.977,157C433.977,169.333,433.977,181.667,433.977,187.833L433.977,194" id="my-svg-load_test-speed-0" class="edge-thickness-normal edge-pattern-dashed relationshipLine" style="fill:none;stroke-dasharray: 10,7;;;fill:none;stroke-dasharray: 10,7" data-edge="true" data-et="edge" data-id="load_test-speed-0" data-points="W3sieCI6NDMzLjk3NjU2MjUsInkiOjEyMH0seyJ4Ijo0MzMuOTc2NTYyNSwieSI6MTU3fSx7IngiOjQzMy45NzY1NjI1LCJ5IjoxOTR9XQ==" data-look="classic" marker-end="url(#my-svg_requirement-requirement_arrowEnd)"/><path d="M433.977,378L433.977,384.167C433.977,390.333,433.977,402.667,425.51,415C417.044,427.333,400.111,439.667,391.644,445.833L383.178,452" id="my-svg-speed-upload-0" class="edge-thickness-normal edge-pattern-dashed relationshipLine" style="fill:none;stroke-dasharray: 10,7;;;fill:none;stroke-dasharray: 10,7" data-edge="true" data-et="edge" data-id="speed-upload-0" data-points="W3sieCI6NDMzLjk3NjU2MjUsInkiOjM3OH0seyJ4Ijo0MzMuOTc2NTYyNSwieSI6NDE1fSx7IngiOjM4My4xNzc3NDk1MTU1MDM5LCJ5Ijo0NTJ9XQ==" data-look="classic" marker-end="url(#my-svg_requirement-requirement_arrowEnd)"/></g><g class="edgeLabels"><g class="edgeLabel" transform="translate(79.7578125, 415)"><g class="label" data-id="uploader-upload-0" transform="translate(-45.7578125, -12)"><foreignObject width="91.515625" height="24"><div xmlns="http://www.w3.org/1999/xhtml" class="labelBkg" style="display: table-cell; white-space: nowrap; line-height: 1.5; max-width: 200px; text-align: center;"><span class="edgeLabel"><p>&lt;&lt;satisfies&gt;&gt;</p></span></div></foreignObject></g></g><g class="edgeLabel" transform="translate(433.9765625, 157)"><g class="label" data-id="load_test-speed-0" transform="translate(-43.296875, -12)"><foreignObject width="86.59375" height="24"><div xmlns="http://www.w3.org/1999/xhtml" class="labelBkg" style="display: table-cell; white-space: nowrap; line-height: 1.5; max-width: 200px; text-align: center;"><span class="edgeLabel"><p>&lt;&lt;verifies&gt;&gt;</p></span></div></foreignObject></g></g><g class="edgeLabel" transform="translate(433.9765625, 415)"><g class="label" data-id="speed-upload-0" transform="translate(-41.46875, -12)"><foreignObject width="82.9375" height="24"><div xmlns="http://www.w3.org/1999/xhtml" class="labelBkg" style="display: table-cell; white-space: nowrap; line-height: 1.5; max-width: 200px; text-align: center;"><span class="edgeLabel"><p>&lt;&lt;refines&gt;&gt;</p></span></div></foreignObject></g></g></g><g class="nodes"><g class="node default" id="my-svg-upload" data-look="classic" transform="translate(256.8671875, 544)"><g class="basic label-container outer-path" style=""><path d="M-201.2265625 -92 L201.2265625 -92 L201.2265625 92 L-201.2265625 92" stroke="none" stroke-width="0" fill="#eee"/><path d="M-201.2265625 -92 C-46.34977810766745 -92, 108.5270062846651 -92, 201.2265625 -92 M-201.2265625 -92 C-114.93644322191068 -92, -28.646323943821358 -92, 201.2265625 -92 M201.2265625 -92 C201.2265625 -24.17838777852876, 201.2265625 43.64322444294248, 201.2265625 92 M201.2265625 -92 C201.2265625 -28.98757693629473, 201.2265625 34.02484612741054, 201.2265625 92 M201.2265625 92 C109.40002663003938 92, 17.573490760078755 92, -201.2265625 92 M201.2265625 92 C44.21075710376189 92, -112.80504829247622 92, -201.2265625 92 M-201.2265625 92 C-201.2265625 37.839233577178454, -201.2265625 -16.32153284564309, -201.2265625 -92 M-201.2265625 92 C-201.2265625 22.533947843208196, -201.2265625 -46.93210431358361, -201.2265625 -92" stroke="#999" stroke-width="1.3" fill="none" stroke-dasharray="0 0"/></g><g class="label" style="" transform="translate(-102.6015625, -84)"><foreignObject width="205.203125" height="24"><div xmlns="http://www.w3.org/1999/xhtml" style="display: table-cell; white-space: nowrap; line-height: 1.5; max-width: 315px; text-align: center;"><span class="nodeLabel markdown-node-label"><p>&lt;&lt;Functional Requirement&gt;&gt;</p></span></div></foreignObject></g><g class="label" style="; font-weight: bold;" transform="translate(-25.1796875, -60)"><foreignObject width="50.359375" height="24"><div style="font-weight: bold; display: table-cell; white-space: nowrap; line-height: 1.5; max-width: 94px; text-align: center;" xmlns="http://www.w3.org/1999/xhtml"><span style="; font-weight: bold;" class="nodeLabel markdown-node-label"><p>upload</p></span></div></foreignObject></g><g class="label" style="" transform="translate(-191.2265625, -16)"><foreignObject width="33.359375" height="24"><div xmlns="http://www.w3.org/1999/xhtml" style="display: table-cell; white-space: nowrap; line-height: 1.5; max-width: 83px; text-align: center;"><span class="nodeLabel markdown-node-label"><p>ID: 1</p></span></div></foreignObject></g><g class="label" style="" transform="translate(-191.2265625, 8)"><foreignObject width="382.453125" height="24"><div xmlns="http://www.w3.org/1999/xhtml" style="display: table-cell; white-space: nowrap; line-height: 1.5; max-width: 396px; text-align: center;"><span class="nodeLabel markdown-node-label"><p>Text: The app must support file upload up to 100 MB.</p></span></div></foreignObject></g><g class="label" style="" transform="translate(-191.2265625, 32)"><foreignObject width="67.71875" height="24"><div xmlns="http://www.w3.org/1999/xhtml" style="display: table-cell; white-space: nowrap; line-height: 1.5; max-width: 117px; text-align: center;"><span class="nodeLabel markdown-node-label"><p>Risk: Low</p></span></div></foreignObject></g><g class="label" style="" transform="translate(-191.2265625, 56)"><foreignObject width="122.171875" height="24"><div xmlns="http://www.w3.org/1999/xhtml" style="display: table-cell; white-space: nowrap; line-height: 1.5; max-width: 160px; text-align: center;"><span class="nodeLabel markdown-node-label"><p>Verification: Test</p></span></div></foreignObject></g><g class="divider"><path d="M-201.2265625 -24 C-109.24674565040975 -24, -17.2669288008195 -24, 201.2265625 -24 M-201.2265625 -24 C-93.70779531881864 -24, 13.81097186236272 -24, 201.2265625 -24" stroke="#999" stroke-width="1.3" fill="none" stroke-dasharray="0 0"/></g></g><g class="node default" id="my-svg-speed" data-look="classic" transform="translate(433.9765625, 286)"><g class="basic label-container outer-path" style=""><path d="M-232.4609375 -92 L232.4609375 -92 L232.4609375 92 L-232.4609375 92" stroke="none" stroke-width="0" fill="#eee"/><path d="M-232.4609375 -92 C-77.68321162394969 -92, 77.09451425210062 -92, 232.4609375 -92 M-232.4609375 -92 C-125.52204174954598 -92, -18.583145999091954 -92, 232.4609375 -92 M232.4609375 -92 C232.4609375 -51.780625415662165, 232.4609375 -11.56125083132433, 232.4609375 92 M232.4609375 -92 C232.4609375 -29.957749771643904, 232.4609375 32.08450045671219, 232.4609375 92 M232.4609375 92 C138.84760272482652 92, 45.23426794965303 92, -232.4609375 92 M232.4609375 92 C86.83839207618482 92, -58.784153347630365 92, -232.4609375 92 M-232.4609375 92 C-232.4609375 53.07481818705215, -232.4609375 14.149636374104304, -232.4609375 -92 M-232.4609375 92 C-232.4609375 41.313826712831556, -232.4609375 -9.372346574336888, -232.4609375 -92" stroke="#999" stroke-width="1.3" fill="none" stroke-dasharray="0 0"/></g><g class="label" style="" transform="translate(-110.4765625, -84)"><foreignObject width="220.953125" height="24"><div xmlns="http://www.w3.org/1999/xhtml" style="display: table-cell; white-space: nowrap; line-height: 1.5; max-width: 329px; text-align: center;"><span class="nodeLabel markdown-node-label"><p>&lt;&lt;Performance Requirement&gt;&gt;</p></span></div></foreignObject></g><g class="label" style="; font-weight: bold;" transform="translate(-21.9453125, -60)"><foreignObject width="43.890625" height="24"><div style="font-weight: bold; display: table-cell; white-space: nowrap; line-height: 1.5; max-width: 86px; text-align: center;" xmlns="http://www.w3.org/1999/xhtml"><span style="; font-weight: bold;" class="nodeLabel markdown-node-label"><p>speed</p></span></div></foreignObject></g><g class="label" style="" transform="translate(-222.4609375, -16)"><foreignObject width="33.359375" height="24"><div xmlns="http://www.w3.org/1999/xhtml" style="display: table-cell; white-space: nowrap; line-height: 1.5; max-width: 83px; text-align: center;"><span class="nodeLabel markdown-node-label"><p>ID: 2</p></span></div></foreignObject></g><g class="label" style="" transform="translate(-222.4609375, 8)"><foreignObject width="444.921875" height="24"><div xmlns="http://www.w3.org/1999/xhtml" style="display: table-cell; white-space: nowrap; line-height: 1.5; max-width: 447px; text-align: center;"><span class="nodeLabel markdown-node-label"><p>Text: Uploads must complete in under 30 seconds on average.</p></span></div></foreignObject></g><g class="label" style="" transform="translate(-222.4609375, 32)"><foreignObject width="94.703125" height="24"><div xmlns="http://www.w3.org/1999/xhtml" style="display: table-cell; white-space: nowrap; line-height: 1.5; max-width: 142px; text-align: center;"><span class="nodeLabel markdown-node-label"><p>Risk: Medium</p></span></div></foreignObject></g><g class="label" style="" transform="translate(-222.4609375, 56)"><foreignObject width="149.4375" height="24"><div xmlns="http://www.w3.org/1999/xhtml" style="display: table-cell; white-space: nowrap; line-height: 1.5; max-width: 189px; text-align: center;"><span class="nodeLabel markdown-node-label"><p>Verification: Analysis</p></span></div></foreignObject></g><g class="divider"><path d="M-232.4609375 -24 C-126.80644011398671 -24, -21.15194272797342 -24, 232.4609375 -24 M-232.4609375 -24 C-92.32183624736365 -24, 47.8172650052727 -24, 232.4609375 -24" stroke="#999" stroke-width="1.3" fill="none" stroke-dasharray="0 0"/></g></g><g class="node default" id="my-svg-uploader" data-look="classic" transform="translate(79.7578125, 286)"><g class="basic label-container outer-path" style=""><path d="M-71.7578125 -56 L71.7578125 -56 L71.7578125 56 L-71.7578125 56" stroke="none" stroke-width="0" fill="#eee"/><path d="M-71.7578125 -56 C-30.946703068341 -56, 9.864406363317997 -56, 71.7578125 -56 M-71.7578125 -56 C-16.95220581114409 -56, 37.85340087771182 -56, 71.7578125 -56 M71.7578125 -56 C71.7578125 -22.152441546418125, 71.7578125 11.69511690716375, 71.7578125 56 M71.7578125 -56 C71.7578125 -15.269280729408237, 71.7578125 25.461438541183526, 71.7578125 56 M71.7578125 56 C37.19999323204653 56, 2.642173964093061 56, -71.7578125 56 M71.7578125 56 C14.87668073645137 56, -42.00445102709726 56, -71.7578125 56 M-71.7578125 56 C-71.7578125 14.349901786372492, -71.7578125 -27.300196427255017, -71.7578125 -56 M-71.7578125 56 C-71.7578125 12.135864314920639, -71.7578125 -31.728271370158723, -71.7578125 -56" stroke="#999" stroke-width="1.3" fill="none" stroke-dasharray="0 0"/></g><g class="label" style="" transform="translate(-46.3359375, -48)"><foreignObject width="92.671875" height="24"><div xmlns="http://www.w3.org/1999/xhtml" style="display: table-cell; white-space: nowrap; line-height: 1.5; max-width: 214px; text-align: center;"><span class="nodeLabel markdown-node-label"><p>&lt;&lt;Element&gt;&gt;</p></span></div></foreignObject></g><g class="label" style="; font-weight: bold;" transform="translate(-33.1953125, -24)"><foreignObject width="66.390625" height="24"><div style="font-weight: bold; display: table-cell; white-space: nowrap; line-height: 1.5; max-width: 106px; text-align: center;" xmlns="http://www.w3.org/1999/xhtml"><span style="; font-weight: bold;" class="nodeLabel markdown-node-label"><p>uploader</p></span></div></foreignObject></g><g class="label" style="" transform="translate(-61.7578125, 20)"><foreignObject width="123.515625" height="24"><div xmlns="http://www.w3.org/1999/xhtml" style="display: table-cell; white-space: nowrap; line-height: 1.5; max-width: 161px; text-align: center;"><span class="nodeLabel markdown-node-label"><p>Type: component</p></span></div></foreignObject></g><g class="divider"><path d="M-71.7578125 12 C-19.7373454444842 12, 32.2831216110316 12, 71.7578125 12 M-71.7578125 12 C-27.152410956350003 12, 17.452990587299993 12, 71.7578125 12" stroke="#999" stroke-width="1.3" fill="none" stroke-dasharray="0 0"/></g></g><g class="node default" id="my-svg-load_test" data-look="classic" transform="translate(433.9765625, 64)"><g class="basic label-container outer-path" style=""><path d="M-65.7421875 -56 L65.7421875 -56 L65.7421875 56 L-65.7421875 56" stroke="none" stroke-width="0" fill="#eee"/><path d="M-65.7421875 -56 C-19.452544728661543 -56, 26.837098042676914 -56, 65.7421875 -56 M-65.7421875 -56 C-29.298056779076113 -56, 7.146073941847774 -56, 65.7421875 -56 M65.7421875 -56 C65.7421875 -24.9866833301785, 65.7421875 6.0266333396429985, 65.7421875 56 M65.7421875 -56 C65.7421875 -19.902717621078793, 65.7421875 16.194564757842414, 65.7421875 56 M65.7421875 56 C33.252341325192745 56, 0.7624951503854902 56, -65.7421875 56 M65.7421875 56 C28.1828526619708 56, -9.376482176058403 56, -65.7421875 56 M-65.7421875 56 C-65.7421875 24.311703510043237, -65.7421875 -7.376592979913525, -65.7421875 -56 M-65.7421875 56 C-65.7421875 22.460906201113175, -65.7421875 -11.078187597773649, -65.7421875 -56" stroke="#999" stroke-width="1.3" fill="none" stroke-dasharray="0 0"/></g><g class="label" style="" transform="translate(-46.3359375, -48)"><foreignObject width="92.671875" height="24"><div xmlns="http://www.w3.org/1999/xhtml" style="display: table-cell; white-space: nowrap; line-height: 1.5; max-width: 214px; text-align: center;"><span class="nodeLabel markdown-node-label"><p>&lt;&lt;Element&gt;&gt;</p></span></div></foreignObject></g><g class="label" style="; font-weight: bold;" transform="translate(-34.8671875, -24)"><foreignObject width="69.734375" height="24"><div style="font-weight: bold; display: table-cell; white-space: nowrap; line-height: 1.5; max-width: 108px; text-align: center;" xmlns="http://www.w3.org/1999/xhtml"><span style="; font-weight: bold;" class="nodeLabel markdown-node-label"><p>load_test</p></span></div></foreignObject></g><g class="label" style="" transform="translate(-55.7421875, 20)"><foreignObject width="111.484375" height="24"><div xmlns="http://www.w3.org/1999/xhtml" style="display: table-cell; white-space: nowrap; line-height: 1.5; max-width: 148px; text-align: center;"><span class="nodeLabel markdown-node-label"><p>Type: test_case</p></span></div></foreignObject></g><g class="divider"><path d="M-65.7421875 12 C-23.61935174512042 12, 18.503484009759163 12, 65.7421875 12 M-65.7421875 12 C-38.475155430888634 12, -11.208123361777261 12, 65.7421875 12" stroke="#999" stroke-width="1.3" fill="none" stroke-dasharray="0 0"/></g></g></g></g></g><defs><filter id="my-svg-drop-shadow" height="130%" width="130%"><feDropShadow dx="4" dy="4" stdDeviation="0" flood-opacity="0.06" flood-color="#000000"/></filter></defs><defs><filter id="my-svg-drop-shadow-small" height="150%" width="150%"><feDropShadow dx="2" dy="2" stdDeviation="0" flood-opacity="0.06" flood-color="#000000"/></filter></defs><linearGradient id="my-svg-gradient" gradientUnits="objectBoundingBox" x1="0%" y1="0%" x2="100%" y2="0%"><stop offset="0%" stop-color="hsl(0, 0%, 83.3333333333%)" stop-opacity="1"/><stop offset="100%" stop-color="hsl(0, 0%, 88.9215686275%)" stop-opacity="1"/></linearGradient></svg>