<svg id="my-svg" width="100%" xmlns="http://www.w3.org/2000/svg" xmlns:xlink="http://www.w3.org/1999/xlink" class="requirementDiagram" style="max-width: 765.141px; background-color: transparent;" viewBox="0 0 765.140625 458" role="graphics-document document" aria-roledescription="requirement"><style>#my-svg{font-family:"trebuchet ms",verdana,arial,sans-serif;font-size:16px;fill:#000000;}@keyframes edge-animation-frame{from{stroke-dashoffset:0;}}@keyframes dash{to{stroke-dashoffset:0;}}#my-svg .edge-animation-slow{stroke-dasharray:9,5!important;stroke-dashoffset:900;animation:dash 50s linear infinite;stroke-linecap:round;}#my-svg .edge-animation-fast{stroke-dasharray:9,5!important;stroke-dashoffset:900;animation:dash 20s linear infinite;stroke-linecap:round;}#my-svg .error-icon{fill:#552222;}#my-svg .error-text{fill:#552222;stroke:#552222;}#my-svg .edge-thickness-normal{stroke-width:1px;}#my-svg .edge-thickness-thick{stroke-width:3.5px;}#my-svg .edge-pattern-solid{stroke-dasharray:0;}#my-svg .edge-thickness-invisible{stroke-width:0;fill:none;}#my-svg .edge-pattern-dashed{stroke-dasharray:3;}#my-svg .edge-pattern-dotted{stroke-dasharray:2;}#my-svg .marker{fill:#666;stroke:#666;}#my-svg .marker.cross{stroke:#666;}#my-svg svg{font-family:"trebuchet ms",verdana,arial,sans-serif;font-size:16px;}#my-svg p{margin:0;}#my-svg marker{fill:#666;stroke:#666;}#my-svg marker.cross{stroke:#666;}#my-svg svg{font-family:"trebuchet ms",verdana,arial,sans-serif;font-size:16px;}#my-svg .reqBox{fill:#eee;fill-opacity:1.0;stroke:hsl(0, 0%, 83.3333333333%);stroke-width:1;}#my-svg .reqTitle,#my-svg .reqLabel{fill:#111111;}#my-svg .reqLabelBox{fill:white;fill-opacity:1.0;}#my-svg .req-title-line{stroke:hsl(0, 0%, 83.3333333333%);stroke-width:1;}#my-svg .relationshipLine{stroke:#666;stroke-width:1px;}#my-svg .relationshipLabel{fill:#333;}#my-svg .edgeLabel{background-color:white;}#my-svg .edgeLabel .label rect{fill:white;}#my-svg .edgeLabel .label text{fill:#333;}#my-svg .divider{stroke:#999;stroke-width:1;}#my-svg .label{font-family:"trebuchet ms",verdana,arial,sans-serif;color:#000000;}#my-svg .label text,#my-svg span{fill:#000000;color:#000000;}#my-svg .labelBkg{background-color:white;}#my-svg .node .neo-node{stroke:#999;}#my-svg [data-look="neo"].node rect,#my-svg [data-look="neo"].cluster rect,#my-svg [data-look="neo"].node polygon{stroke:url(#my-svg-gradient);filter:drop-shadow( 1px 2px 2px rgba(185,185,185,1));}#my-svg [data-look="neo"].node path{stroke:url(#my-svg-gradient);stroke-width:1px;}#my-svg [data-look="neo"].node .outer-path{filter:drop-shadow( 1px 2px 2px rgba(185,185,185,1));}#my-svg [data-look="neo"].node .neo-line path{stroke:#999;filter:none;}#my-svg [data-look="neo"].node circle{stroke:url(#my-svg-gradient);filter:drop-shadow( 1px 2px 2px rgba(185,185,185,1));}#my-svg [data-look="neo"].node circle .state-start{fill:#000000;}#my-svg [data-look="neo"].icon-shape .icon{fill:url(#my-svg-gradient);filter:drop-shadow( 1px 2px 2px rgba(185,185,185,1));}#my-svg [data-look="neo"].icon-shape .icon-neo path{stroke:url(#my-svg-gradient);filter:drop-shadow( 1px 2px 2px rgba(185,185,185,1));}#my-svg :root{--mermaid-font-family:"trebuchet ms",verdana,arial,sans-serif;}</style><g><defs><marker id="my-svg_requirement-requirement_containsStart" refX="0" refY="10" markerWidth="20" markerHeight="20" orient="auto"><g><circle cx="10" cy="10" r="9" fill="none"/><line x1="1" x2="19" y1="10" y2="10"/><line y1="1" y2="19" x1="10" x2="10"/></g></marker></defs><defs><marker id="my-svg_requirement-requirement_arrowEnd" refX="20" refY="10" markerWidth="20" markerHeight="20" orient="auto"><path d="M0,0&#10;      L20,10&#10;      M20,10&#10;      L0,20"/></marker></defs><g class="root"><g class="clusters"/><g class="edgePaths"><path d="M79.758,156L79.758,168.167C79.758,180.333,79.758,204.667,88.721,223C97.684,241.333,115.611,253.667,124.574,259.833L133.537,266" id="my-svg-auth_service-auth_req-0" class="edge-thickness-normal edge-pattern-dashed relationshipLine" style="fill:none;stroke-dasharray: 10,7;;;fill:none;stroke-dasharray: 10,7" data-edge="true" data-et="edge" data-id="auth_service-auth_req-0" data-points="W3sieCI6NzkuNzU3ODEyNSwieSI6MTU2fSx7IngiOjc5Ljc1NzgxMjUsInkiOjIyOX0seyJ4IjoxMzMuNTM2ODgyMjY3NDQxODUsInkiOjI2Nn1d" data-look="classic" marker-end="url(#my-svg_requirement-requirement_arrowEnd)"/><path d="M267.258,156L267.258,168.167C267.258,180.333,267.258,204.667,267.258,223C267.258,241.333,267.258,253.667,267.258,259.833L267.258,266" id="my-svg-login_test-auth_req-0" class="edge-thickness-normal edge-pattern-dashed relationshipLine" style="fill:none;stroke-dasharray: 10,7;;;fill:none;stroke-dasharray: 10,7" data-edge="true" data-et="edge" data-id="login_test-auth_req-0" data-points="W3sieCI6MjY3LjI1NzgxMjUsInkiOjE1Nn0seyJ4IjoyNjcuMjU3ODEyNSwieSI6MjI5fSx7IngiOjI2Ny4yNTc4MTI1LCJ5IjoyNjZ9XQ==" data-look="classic" marker-end="url(#my-svg_requirement-requirement_arrowEnd)"/><path d="M570.07,192L570.07,198.167C570.07,204.333,570.07,216.667,546.717,232.782C523.365,248.897,476.659,268.794,453.306,278.742L429.953,288.691" id="my-svg-reset_req-auth_req-0" class="edge-thickness-normal edge-pattern-dashed relationshipLine" style="fill:none;stroke-dasharray: 10,7;;;fill:none;stroke-dasharray: 10,7" data-edge="true" data-et="edge" data-id="reset_req-auth_req-0" data-points="W3sieCI6NTcwLjA3MDMxMjUsInkiOjE5Mn0seyJ4Ijo1NzAuMDcwMzEyNSwieSI6MjI5fSx7IngiOjQyOS45NTMxMjUsInkiOjI4OC42OTA3ODk0NzM2ODQyfV0=" data-look="classic" marker-end="url(#my-svg_requirement-requirement_arrowEnd)"/></g><g class="edgeLabels"><g class="edgeLabel" transform="translate(79.7578125, 229)"><g class="label" data-id="auth_service-auth_req-0" transform="translate(-45.7578125, -12)"><foreignObject width="91.515625" height="24"><div xmlns="http://www.w3.org/1999/xhtml" class="labelBkg" style="display: table-cell; white-space: nowrap; line-height: 1.5; max-width: 200px; text-align: center;"><span class="edgeLabel"><p>&lt;&lt;satisfies&gt;&gt;</p></span></div></foreignObject></g></g><g class="edgeLabel" transform="translate(267.2578125, 229)"><g class="label" data-id="login_test-auth_req-0" transform="translate(-43.296875, -12)"><foreignObject width="86.59375" height="24"><div xmlns="http://www.w3.org/1999/xhtml" class="labelBkg" style="display: table-cell; white-space: nowrap; line-height: 1.5; max-width: 200px; text-align: center;"><span class="edgeLabel"><p>&lt;&lt;verifies&gt;&gt;</p></span></div></foreignObject></g></g><g class="edgeLabel" transform="translate(570.0703125, 229)"><g class="label" data-id="reset_req-auth_req-0" transform="translate(-42.515625, -12)"><foreignObject width="85.03125" height="24"><div xmlns="http://www.w3.org/1999/xhtml" class="labelBkg" style="display: table-cell; white-space: nowrap; line-height: 1.5; max-width: 200px; text-align: center;"><span class="edgeLabel"><p>&lt;&lt;derives&gt;&gt;</p></span></div></foreignObject></g></g></g><g class="nodes"><g class="node default" id="my-svg-auth_req" data-look="classic" transform="translate(267.2578125, 358)"><g class="basic label-container outer-path" style=""><path d="M-162.6953125 -92 L162.6953125 -92 L162.6953125 92 L-162.6953125 92" stroke="none" stroke-width="0" fill="#eee"/><path d="M-162.6953125 -92 C-43.41129777787816 -92, 75.87271694424368 -92, 162.6953125 -92 M-162.6953125 -92 C-85.06280862611762 -92, -7.43030475223523 -92, 162.6953125 -92 M162.6953125 -92 C162.6953125 -29.077076611252416, 162.6953125 33.84584677749517, 162.6953125 92 M162.6953125 -92 C162.6953125 -45.90702711147406, 162.6953125 0.18594577705188442, 162.6953125 92 M162.6953125 92 C76.87458030551389 92, -8.946151888972224 92, -162.6953125 92 M162.6953125 92 C70.10606873744729 92, -22.483175025105425 92, -162.6953125 92 M-162.6953125 92 C-162.6953125 22.71880339326742, -162.6953125 -46.56239321346516, -162.6953125 -92 M-162.6953125 92 C-162.6953125 27.647143212410867, -162.6953125 -36.705713575178265, -162.6953125 -92" stroke="#999" stroke-width="1.3" fill="none" stroke-dasharray="0 0"/></g><g class="label" style="" transform="translate(-62.609375, -84)"><foreignObject width="125.21875" height="24"><div xmlns="http://www.w3.org/1999/xhtml" style="display: table-cell; white-space: nowrap; line-height: 1.5; max-width: 243px; text-align: center;"><span class="nodeLabel markdown-node-label"><p>&lt;&lt;Requirement&gt;&gt;</p></span></div></foreignObject></g><g class="label" style="; font-weight: bold;" transform="translate(-34.28125, -60)"><foreignObject width="68.5625" height="24"><div style="font-weight: bold; display: table-cell; white-space: nowrap; line-height: 1.5; max-width: 106px; text-align: center;" xmlns="http://www.w3.org/1999/xhtml"><span style="; font-weight: bold;" class="nodeLabel markdown-node-label"><p>auth_req</p></span></div></foreignObject></g><g class="label" style="" transform="translate(-152.6953125, -16)"><foreignObject width="33.359375" height="24"><div xmlns="http://www.w3.org/1999/xhtml" style="display: table-cell; white-space: nowrap; line-height: 1.5; max-width: 83px; text-align: center;"><span class="nodeLabel markdown-node-label"><p>ID: 1</p></span></div></foreignObject></g><g class="label" style="" transform="translate(-152.6953125, 8)"><foreignObject width="305.390625" height="24"><div xmlns="http://www.w3.org/1999/xhtml" style="display: table-cell; white-space: nowrap; line-height: 1.5; max-width: 317px; text-align: center;"><span class="nodeLabel markdown-node-label"><p>Text: The system must authenticate users.</p></span></div></foreignObject></g><g class="label" style="" transform="translate(-152.6953125, 32)"><foreignObject width="70.921875" height="24"><div xmlns="http://www.w3.org/1999/xhtml" style="display: table-cell; white-space: nowrap; line-height: 1.5; max-width: 120px; text-align: center;"><span class="nodeLabel markdown-node-label"><p>Risk: High</p></span></div></foreignObject></g><g class="label" style="" transform="translate(-152.6953125, 56)"><foreignObject width="122.171875" height="24"><div xmlns="http://www.w3.org/1999/xhtml" style="display: table-cell; white-space: nowrap; line-height: 1.5; max-width: 160px; text-align: center;"><span class="nodeLabel markdown-node-label"><p>Verification: Test</p></span></div></foreignObject></g><g class="divider"><path d="M-162.6953125 -24 C-74.67541666829275 -24, 13.34447916341449 -24, 162.6953125 -24 M-162.6953125 -24 C-59.574613036429525 -24, 43.54608642714095 -24, 162.6953125 -24" stroke="#999" stroke-width="1.3" fill="none" stroke-dasharray="0 0"/></g></g><g class="node default" id="my-svg-reset_req" data-look="classic" transform="translate(570.0703125, 100)"><g class="basic label-container outer-path" style=""><path d="M-187.0703125 -92 L187.0703125 -92 L187.0703125 92 L-187.0703125 92" stroke="none" stroke-width="0" fill="#eee"/><path d="M-187.0703125 -92 C-45.020222817978635 -92, 97.02986686404273 -92, 187.0703125 -92 M-187.0703125 -92 C-48.90784860959073 -92, 89.25461528081854 -92, 187.0703125 -92 M187.0703125 -92 C187.0703125 -45.99577451200475, 187.0703125 0.008450975990498932, 187.0703125 92 M187.0703125 -92 C187.0703125 -52.42962480915398, 187.0703125 -12.859249618307956, 187.0703125 92 M187.0703125 92 C87.86871875618878 92, -11.332874987622432 92, -187.0703125 92 M187.0703125 92 C89.20404340599787 92, -8.66222568800427 92, -187.0703125 92 M-187.0703125 92 C-187.0703125 42.91664652912951, -187.0703125 -6.166706941740983, -187.0703125 -92 M-187.0703125 92 C-187.0703125 43.440825711109134, -187.0703125 -5.118348577781731, -187.0703125 -92" stroke="#999" stroke-width="1.3" fill="none" stroke-dasharray="0 0"/></g><g class="label" style="" transform="translate(-62.609375, -84)"><foreignObject width="125.21875" height="24"><div xmlns="http://www.w3.org/1999/xhtml" style="display: table-cell; white-space: nowrap; line-height: 1.5; max-width: 243px; text-align: center;"><span class="nodeLabel markdown-node-label"><p>&lt;&lt;Requirement&gt;&gt;</p></span></div></foreignObject></g><g class="label" style="; font-weight: bold;" transform="translate(-36.609375, -60)"><foreignObject width="73.21875" height="24"><div style="font-weight: bold; display: table-cell; white-space: nowrap; line-height: 1.5; max-width: 109px; text-align: center;" xmlns="http://www.w3.org/1999/xhtml"><span style="; font-weight: bold;" class="nodeLabel markdown-node-label"><p>reset_req</p></span></div></foreignObject></g><g class="label" style="" transform="translate(-177.0703125, -16)"><foreignObject width="33.359375" height="24"><div xmlns="http://www.w3.org/1999/xhtml" style="display: table-cell; white-space: nowrap; line-height: 1.5; max-width: 83px; text-align: center;"><span class="nodeLabel markdown-node-label"><p>ID: 2</p></span></div></foreignObject></g><g class="label" style="" transform="translate(-177.0703125, 8)"><foreignObject width="354.140625" height="24"><div xmlns="http://www.w3.org/1999/xhtml" style="display: table-cell; white-space: nowrap; line-height: 1.5; max-width: 360px; text-align: center;"><span class="nodeLabel markdown-node-label"><p>Text: Users must be able to reset their password.</p></span></div></foreignObject></g><g class="label" style="" transform="translate(-177.0703125, 32)"><foreignObject width="94.703125" height="24"><div xmlns="http://www.w3.org/1999/xhtml" style="display: table-cell; white-space: nowrap; line-height: 1.5; max-width: 142px; text-align: center;"><span class="nodeLabel markdown-node-label"><p>Risk: Medium</p></span></div></foreignObject></g><g class="label" style="" transform="translate(-177.0703125, 56)"><foreignObject width="122.171875" height="24"><div xmlns="http://www.w3.org/1999/xhtml" style="display: table-cell; white-space: nowrap; line-height: 1.5; max-width: 160px; text-align: center;"><span class="nodeLabel markdown-node-label"><p>Verification: Test</p></span></div></foreignObject></g><g class="divider"><path d="M-187.0703125 -24 C-41.34862689733828 -24, 104.37305870532344 -24, 187.0703125 -24 M-187.0703125 -24 C-46.30791169922148 -24, 94.45448910155704 -24, 187.0703125 -24" stroke="#999" stroke-width="1.3" fill="none" stroke-dasharray="0 0"/></g></g><g class="node default" id="my-svg-auth_service" data-look="classic" transform="translate(79.7578125, 100)"><g class="basic label-container outer-path" style=""><path d="M-71.7578125 -56 L71.7578125 -56 L71.7578125 56 L-71.7578125 56" stroke="none" stroke-width="0" fill="#eee"/><path d="M-71.7578125 -56 C-27.15928376530831 -56, 17.43924496938338 -56, 71.7578125 -56 M-71.7578125 -56 C-41.789769310996036 -56, -11.821726121992072 -56, 71.7578125 -56 M71.7578125 -56 C71.7578125 -20.9360713004762, 71.7578125 14.127857399047599, 71.7578125 56 M71.7578125 -56 C71.7578125 -21.19427663982323, 71.7578125 13.611446720353541, 71.7578125 56 M71.7578125 56 C16.271512200519723 56, -39.214788098960554 56, -71.7578125 56 M71.7578125 56 C20.25603685581852 56, -31.245738788362956 56, -71.7578125 56 M-71.7578125 56 C-71.7578125 13.854398834978674, -71.7578125 -28.29120233004265, -71.7578125 -56 M-71.7578125 56 C-71.7578125 30.087947356730037, -71.7578125 4.175894713460075, -71.7578125 -56" stroke="#999" stroke-width="1.3" fill="none" stroke-dasharray="0 0"/></g><g class="label" style="" transform="translate(-46.3359375, -48)"><foreignObject width="92.671875" height="24"><div xmlns="http://www.w3.org/1999/xhtml" style="display: table-cell; white-space: nowrap; line-height: 1.5; max-width: 214px; text-align: center;"><span class="nodeLabel markdown-node-label"><p>&lt;&lt;Element&gt;&gt;</p></span></div></foreignObject></g><g class="label" style="; font-weight: bold;" transform="translate(-48.6015625, -24)"><foreignObject width="97.203125" height="24"><div style="font-weight: bold; display: table-cell; white-space: nowrap; line-height: 1.5; max-width: 131px; text-align: center;" xmlns="http://www.w3.org/1999/xhtml"><span style="; font-weight: bold;" class="nodeLabel markdown-node-label"><p>auth_service</p></span></div></foreignObject></g><g class="label" style="" transform="translate(-61.7578125, 20)"><foreignObject width="123.515625" height="24"><div xmlns="http://www.w3.org/1999/xhtml" style="display: table-cell; white-space: nowrap; line-height: 1.5; max-width: 161px; text-align: center;"><span class="nodeLabel markdown-node-label"><p>Type: component</p></span></div></foreignObject></g><g class="divider"><path d="M-71.7578125 12 C-31.910160878885137 12, 7.937490742229727 12, 71.7578125 12 M-71.7578125 12 C-38.419846178476206 12, -5.081879856952412 12, 71.7578125 12" stroke="#999" stroke-width="1.3" fill="none" stroke-dasharray="0 0"/></g></g><g class="node default" id="my-svg-login_test" data-look="classic" transform="translate(267.2578125, 100)"><g class="basic label-container outer-path" style=""><path d="M-65.7421875 -56 L65.7421875 -56 L65.7421875 56 L-65.7421875 56" stroke="none" stroke-width="0" fill="#eee"/><path d="M-65.7421875 -56 C-30.331831110855823 -56, 5.078525278288353 -56, 65.7421875 -56 M-65.7421875 -56 C-15.380932041871127 -56, 34.98032341625775 -56, 65.7421875 -56 M65.7421875 -56 C65.7421875 -24.985637579635206, 65.7421875 6.028724840729588, 65.7421875 56 M65.7421875 -56 C65.7421875 -33.27499929098709, 65.7421875 -10.54999858197418, 65.7421875 56 M65.7421875 56 C32.66919254999632 56, -0.4038024000073648 56, -65.7421875 56 M65.7421875 56 C35.77214928207138 56, 5.802111064142771 56, -65.7421875 56 M-65.7421875 56 C-65.7421875 18.207631485550188, -65.7421875 -19.584737028899625, -65.7421875 -56 M-65.7421875 56 C-65.7421875 15.581332593259958, -65.7421875 -24.837334813480084, -65.7421875 -56" stroke="#999" stroke-width="1.3" fill="none" stroke-dasharray="0 0"/></g><g class="label" style="" transform="translate(-46.3359375, -48)"><foreignObject width="92.671875" height="24"><div xmlns="http://www.w3.org/1999/xhtml" style="display: table-cell; white-space: nowrap; line-height: 1.5; max-width: 214px; text-align: center;"><span class="nodeLabel markdown-node-label"><p>&lt;&lt;Element&gt;&gt;</p></span></div></foreignObject></g><g class="label" style="; font-weight: bold;" transform="translate(-37.0859375, -24)"><foreignObject width="74.171875" height="24"><div style="font-weight: bold; display: table-cell; white-space: nowrap; line-height: 1.5; max-width: 113px; text-align: center;" xmlns="http://www.w3.org/1999/xhtml"><span style="; font-weight: bold;" class="nodeLabel markdown-node-label"><p>login_test</p></span></div></foreignObject></g><g class="label" style="" transform="translate(-55.7421875, 20)"><foreignObject width="111.484375" height="24"><div xmlns="http://www.w3.org/1999/xhtml" style="display: table-cell; white-space: nowrap; line-height: 1.5; max-width: 148px; text-align: center;"><span class="nodeLabel markdown-node-label"><p>Type: test_case</p></span></div></foreignObject></g><g class="divider"><path d="M-65.7421875 12 C-34.36785357935767 12, -2.9935196587153357 12, 65.7421875 12 M-65.7421875 12 C-27.26475509241012 12, 11.21267731517976 12, 65.7421875 12" stroke="#999" stroke-width="1.3" fill="none" stroke-dasharray="0 0"/></g></g></g></g></g><defs><filter id="my-svg-drop-shadow" height="130%" width="130%"><feDropShadow dx="4" dy="4" stdDeviation="0" flood-opacity="0.06" flood-color="#000000"/></filter></defs><defs><filter id="my-svg-drop-shadow-small" height="150%" width="150%"><feDropShadow dx="2" dy="2" stdDeviation="0" flood-opacity="0.06" flood-color="#000000"/></filter></defs><linearGradient id="my-svg-gradient" gradientUnits="objectBoundingBox" x1="0%" y1="0%" x2="100%" y2="0%"><stop offset="0%" stop-color="hsl(0, 0%, 83.3333333333%)" stop-opacity="1"/><stop offset="100%" stop-color="hsl(0, 0%, 88.9215686275%)" stop-opacity="1"/></linearGradient></svg>