<svg id="my-svg" width="100%" xmlns="http://www.w3.org/2000/svg" xmlns:xlink="http://www.w3.org/1999/xlink" class="requirementDiagram" style="max-width: 674.438px; background-color: transparent;" viewBox="0 0 674.4375 644" role="graphics-document document" aria-roledescription="requirement"><style>#my-svg{font-family:"trebuchet ms",verdana,arial,sans-serif;font-size:16px;fill:#000000;}@keyframes edge-animation-frame{from{stroke-dashoffset:0;}}@keyframes dash{to{stroke-dashoffset:0;}}#my-svg .edge-animation-slow{stroke-dasharray:9,5!important;stroke-dashoffset:900;animation:dash 50s linear infinite;stroke-linecap:round;}#my-svg .edge-animation-fast{stroke-dasharray:9,5!important;stroke-dashoffset:900;animation:dash 20s linear infinite;stroke-linecap:round;}#my-svg .error-icon{fill:#552222;}#my-svg .error-text{fill:#552222;stroke:#552222;}#my-svg .edge-thickness-normal{stroke-width:1px;}#my-svg .edge-thickness-thick{stroke-width:3.5px;}#my-svg .edge-pattern-solid{stroke-dasharray:0;}#my-svg .edge-thickness-invisible{stroke-width:0;fill:none;}#my-svg .edge-pattern-dashed{stroke-dasharray:3;}#my-svg .edge-pattern-dotted{stroke-dasharray:2;}#my-svg .marker{fill:#666;stroke:#666;}#my-svg .marker.cross{stroke:#666;}#my-svg svg{font-family:"trebuchet ms",verdana,arial,sans-serif;font-size:16px;}#my-svg p{margin:0;}#my-svg marker{fill:#666;stroke:#666;}#my-svg marker.cross{stroke:#666;}#my-svg svg{font-family:"trebuchet ms",verdana,arial,sans-serif;font-size:16px;}#my-svg .reqBox{fill:#eee;fill-opacity:1.0;stroke:hsl(0, 0%, 83.3333333333%);stroke-width:1;}#my-svg .reqTitle,#my-svg .reqLabel{fill:#111111;}#my-svg .reqLabelBox{fill:white;fill-opacity:1.0;}#my-svg .req-title-line{stroke:hsl(0, 0%, 83.3333333333%);stroke-width:1;}#my-svg .relationshipLine{stroke:#666;stroke-width:1px;}#my-svg .relationshipLabel{fill:#333;}#my-svg .edgeLabel{background-color:white;}#my-svg .edgeLabel .label rect{fill:white;}#my-svg .edgeLabel .label text{fill:#333;}#my-svg .divider{stroke:#999;stroke-width:1;}#my-svg .label{font-family:"trebuchet ms",verdana,arial,sans-serif;color:#000000;}#my-svg .label text,#my-svg span{fill:#000000;color:#000000;}#my-svg .labelBkg{background-color:white;}#my-svg .node .neo-node{stroke:#999;}#my-svg [data-look="neo"].node rect,#my-svg [data-look="neo"].cluster rect,#my-svg [data-look="neo"].node polygon{stroke:url(#my-svg-gradient);filter:drop-shadow( 1px 2px 2px rgba(185,185,185,1));}#my-svg [data-look="neo"].node path{stroke:url(#my-svg-gradient);stroke-width:1px;}#my-svg [data-look="neo"].node .outer-path{filter:drop-shadow( 1px 2px 2px rgba(185,185,185,1));}#my-svg [data-look="neo"].node .neo-line path{stroke:#999;filter:none;}#my-svg [data-look="neo"].node circle{stroke:url(#my-svg-gradient);filter:drop-shadow( 1px 2px 2px rgba(185,185,185,1));}#my-svg [data-look="neo"].node circle .state-start{fill:#000000;}#my-svg [data-look="neo"].icon-shape .icon{fill:url(#my-svg-gradient);filter:drop-shadow( 1px 2px 2px rgba(185,185,185,1));}#my-svg [data-look="neo"].icon-shape .icon-neo path{stroke:url(#my-svg-gradient);filter:drop-shadow( 1px 2px 2px rgba(185,185,185,1));}#my-svg :root{--mermaid-font-family:"trebuchet ms",verdana,arial,sans-serif;}</style><g><defs><marker id="my-svg_requirement-requirement_containsStart" refX="0" refY="10" markerWidth="20" markerHeight="20" orient="auto"><g><circle cx="10" cy="10" r="9" fill="none"/><line x1="1" x2="19" y1="10" y2="10"/><line y1="1" y2="19" x1="10" x2="10"/></g></marker></defs><defs><marker id="my-svg_requirement-requirement_arrowEnd" refX="20" refY="10" markerWidth="20" markerHeight="20" orient="auto"><path d="M0,0&#10;      L20,10&#10;      M20,10&#10;      L0,20"/></marker></defs><g class="root"><g class="clusters"/><g class="edgePaths"><path d="M79.758,342L79.758,354.167C79.758,366.333,79.758,390.667,88.224,409C96.691,427.333,113.624,439.667,122.09,445.833L130.557,452" id="my-svg-uploader-upload-0" class="edge-thickness-normal edge-pattern-dashed relationshipLine" style="fill:none;stroke-dasharray: 10,7;;;fill:none;stroke-dasharray: 10,7" data-edge="true" data-et="edge" data-id="uploader-upload-0" data-points="W3sieCI6NzkuNzU3ODEyNSwieSI6MzQyfSx7IngiOjc5Ljc1NzgxMjUsInkiOjQxNX0seyJ4IjoxMzAuNTU2NjI1NDg0NDk2MTIsInkiOjQ1Mn1d" data-look="classic" marker-end="url(#my-svg_requirement-requirement_arrowEnd)"/><path d="M433.977,120L433.977,126.167C433.977,132.333,433.977,144.667,433.977,157C433.977,169.333,433.977,181.667,433.977,187.833L433.977,194" id="my-svg-load_test-speed-0" class="edge-thickness-normal edge-pattern-dashed relationshipLine" style="fill:none;stroke-dasharray: 10,7;;;fill:none;stroke-dasharray: 10,7" data-edge="true" data-et="edge" data-id="load_test-speed-0" data-points="W3sieCI6NDMzLjk3NjU2MjUsInkiOjEyMH0seyJ4Ijo0MzMuOTc2NTYyNSwieSI6MTU3fSx7IngiOjQzMy45NzY1NjI1LCJ5IjoxOTR9XQ==" data-look="classic" marker-end="url(#my-svg_requirement-requirement_arrowEnd)"/><path d="M433.977,378L433.977,384.167C433.977,390.333,433.977,402.667,425.51,415C417.044,427.333,400.111,439.667,391.644,445.833L383.178,452" id="my-svg-speed-upload-0" class="edge-thickness-normal edge-pattern-dashed relationshipLine" style="fill:none;stroke-dasharray: 10,7;;;fill:none;stroke-dasharray: 10,7" data-edge="true" data-et="edge" data-id="speed-upload-0" data-points="W3sieCI6NDMzLjk3NjU2MjUsInkiOjM3OH0seyJ4Ijo0MzMuOTc2NTYyNSwieSI6NDE1fSx7IngiOjM4My4xNzc3NDk1MTU1MDM5LCJ5Ijo0NTJ9XQ==" data-look="classic" marker-end="url(#my-svg_requirement-requirement_arrowEnd)"/></g><g class="edgeLabels"><g class="edgeLabel" transform="translate(79.7578125, 415)"><g class="label" data-id="uploader-upload-0" transform="translate(-45.7578125, -12)"><foreignObject width="91.515625" height="24"><div xmlns="http://www.w3.org/1999/xhtml" class="labelBkg" style="display: table-cell; white-space: nowrap; line-height: 1.5; max-width: 200px; text-align: center;"><span class="edgeLabel"><p>&lt;&lt;satisfies&gt;&gt;</p></span></div></foreignObject></g></g><g class="edgeLabel" transform="translate(433.9765625, 157)"><g class="label" data-id="load_test-speed-0" transform="translate(-43.296875, -12)"><foreignObject width="86.59375" height="24"><div xmlns="http://www.w3.org/1999/xhtml" class="labelBkg" style="display: table-cell; white-space: nowrap; line-height: 1.5; max-width: 200px; text-align: center;"><span class="edgeLabel"><p>&lt;&lt;verifies&gt;&gt;</p></span></div></foreignObject></g></g><g class="edgeLabel" transform="translate(433.9765625, 415)"><g class="label" data-id="speed-upload-0" transform="translate(-41.46875, -12)"><foreignObject width="82.9375" height="24"><div xmlns="http://www.w3.org/1999/xhtml" class="labelBkg" style="display: table-cell; white-space: nowrap; line-height: 1.5; max-width: 200px; text-align: center;"><span class="edgeLabel"><p>&lt;&lt;refines&gt;&gt;</p></span></div></foreignObject></g></g></g><g class="nodes"><g class="node default" id="my-svg-upload" data-look="classic" transform="translate(256.8671875, 544)"><g class="basic label-container outer-path" style=""><path d="M-201.2265625 -92 L201.2265625 -92 L201.2265625 92 L-201.2265625 92" stroke="none" stroke-width="0" fill="#eee"/><path d="M-201.2265625 -92 C-99.22788988852906 -92, 2.770782722941874 -92, 201.2265625 -92 M-201.2265625 -92 C-102.72647557859719 -92, -4.226388657194377 -92, 201.2265625 -92 M201.2265625 -92 C201.2265625 -30.880403926678582, 201.2265625 30.239192146642836, 201.2265625 92 M201.2265625 -92 C201.2265625 -54.35352978422148, 201.2265625 -16.707059568442958, 201.2265625 92 M201.2265625 92 C73.43852775428539 92, -54.34950699142922 92, -201.2265625 92 M201.2265625 92 C117.25665931406463 92, 33.28675612812927 92, -201.2265625 92 M-201.2265625 92 C-201.2265625 53.24561926722039, -201.2265625 14.491238534440782, -201.2265625 -92 M-201.2265625 92 C-201.2265625 48.25902506232503, -201.2265625 4.51805012465006, -201.2265625 -92" stroke="#999" stroke-width="1.3" fill="none" stroke-dasharray="0 0"/></g><g class="label" style="" transform="translate(-102.6015625, -84)"><foreignObject width="205.203125" height="24"><div xmlns="http://www.w3.org/1999/xhtml" style="display: table-cell; white-space: nowrap; line-height: 1.5; max-width: 315px; text-align: center;"><span class="nodeLabel markdown-node-label"><p>&lt;&lt;Functional Requirement&gt;&gt;</p></span></div></foreignObject></g><g class="label" style="; font-weight: bold;" transform="translate(-25.1796875, -60)"><foreignObject width="50.359375" height="24"><div style="font-weight: bold; display: table-cell; white-space: nowrap; line-height: 1.5; max-width: 94px; text-align: center;" xmlns="http://www.w3.org/1999/xhtml"><span style="; font-weight: bold;" class="nodeLabel markdown-node-label"><p>upload</p></span></div></foreignObject></g><g class="label" style="" transform="translate(-191.2265625, -16)"><foreignObject width="33.359375" height="24"><div xmlns="http://www.w3.org/1999/xhtml" style="display: table-cell; white-space: nowrap; line-height: 1.5; max-width: 83px; text-align: center;"><span class="nodeLabel markdown-node-label"><p>ID: 1</p></span></div></foreignObject></g><g class="label" style="" transform="translate(-191.2265625, 8)"><foreignObject width="382.453125" height="24"><div xmlns="http://www.w3.org/1999/xhtml" style="display: table-cell; white-space: nowrap; line-height: 1.5; max-width: 396px; text-align: center;"><span class="nodeLabel markdown-node-label"><p>Text: The app must support file upload up to 100 MB.</p></span></div></foreignObject></g><g class="label" style="" transform="translate(-191.2265625, 32)"><foreignObject width="67.71875" height="24"><div xmlns="http://www.w3.org/1999/xhtml" style="display: table-cell; white-space: nowrap; line-height: 1.5; max-width: 117px; text-align: center;"><span class="nodeLabel markdown-node-label"><p>Risk: Low</p></span></div></foreignObject></g><g class="label" style="" transform="translate(-191.2265625, 56)"><foreignObject width="122.171875" height="24"><div xmlns="http://www.w3.org/1999/xhtml" style="display: table-cell; white-space: nowrap; line-height: 1.5; max-width: 160px; text-align: center;"><span class="nodeLabel markdown-node-label"><p>Verification: Test</p></span></div></foreignObject></g><g class="divider"><path d="M-201.2265625 -24 C-53.92618559829137 -24, 93.37419130341726 -24, 201.2265625 -24 M-201.2265625 -24 C-93.55281689787904 -24, 14.12092870424192 -24, 201.2265625 -24" stroke="#999" stroke-width="1.3" fill="none" stroke-dasharray="0 0"/></g></g><g class="node default" id="my-svg-speed" data-look="classic" transform="translate(433.9765625, 286)"><g class="basic label-container outer-path" style=""><path d="M-232.4609375 -92 L232.4609375 -92 L232.4609375 92 L-232.4609375 92" stroke="none" stroke-width="0" fill="#eee"/><path d="M-232.4609375 -92 C-46.79992823726391 -92, 138.86108102547217 -92, 232.4609375 -92 M-232.4609375 -92 C-57.79243880306092 -92, 116.87605989387816 -92, 232.4609375 -92 M232.4609375 -92 C232.4609375 -43.443384813357056, 232.4609375 5.113230373285887, 232.4609375 92 M232.4609375 -92 C232.4609375 -44.670046117129694, 232.4609375 2.6599077657406127, 232.4609375 92 M232.4609375 92 C91.2451784078699 92, -49.9705806842602 92, -232.4609375 92 M232.4609375 92 C66.19045455565441 92, -100.08002838869118 92, -232.4609375 92 M-232.4609375 92 C-232.4609375 43.18631672083165, -232.4609375 -5.627366558336703, -232.4609375 -92 M-232.4609375 92 C-232.4609375 49.9871964207677, -232.4609375 7.974392841535405, -232.4609375 -92" stroke="#999" stroke-width="1.3" fill="none" stroke-dasharray="0 0"/></g><g class="label" style="" transform="translate(-110.4765625, -84)"><foreignObject width="220.953125" height="24"><div xmlns="http://www.w3.org/1999/xhtml" style="display: table-cell; white-space: nowrap; line-height: 1.5; max-width: 329px; text-align: center;"><span class="nodeLabel markdown-node-label"><p>&lt;&lt;Performance Requirement&gt;&gt;</p></span></div></foreignObject></g><g class="label" style="; font-weight: bold;" transform="translate(-21.9453125, -60)"><foreignObject width="43.890625" height="24"><div style="font-weight: bold; display: table-cell; white-space: nowrap; line-height: 1.5; max-width: 86px; text-align: center;" xmlns="http://www.w3.org/1999/xhtml"><span style="; font-weight: bold;" class="nodeLabel markdown-node-label"><p>speed</p></span></div></foreignObject></g><g class="label" style="" transform="translate(-222.4609375, -16)"><foreignObject width="33.359375" height="24"><div xmlns="http://www.w3.org/1999/xhtml" style="display: table-cell; white-space: nowrap; line-height: 1.5; max-width: 83px; text-align: center;"><span class="nodeLabel markdown-node-label"><p>ID: 2</p></span></div></foreignObject></g><g class="label" style="" transform="translate(-222.4609375, 8)"><foreignObject width="444.921875" height="24"><div xmlns="http://www.w3.org/1999/xhtml" style="display: table-cell; white-space: nowrap; line-height: 1.5; max-width: 447px; text-align: center;"><span class="nodeLabel markdown-node-label"><p>Text: Uploads must complete in under 30 seconds on average.</p></span></div></foreignObject></g><g class="label" style="" transform="translate(-222.4609375, 32)"><foreignObject width="94.703125" height="24"><div xmlns="http://www.w3.org/1999/xhtml" style="display: table-cell; white-space: nowrap; line-height: 1.5; max-width: 142px; text-align: center;"><span class="nodeLabel markdown-node-label"><p>Risk: Medium</p></span></div></foreignObject></g><g class="label" style="" transform="translate(-222.4609375, 56)"><foreignObject width="149.4375" height="24"><div xmlns="http://www.w3.org/1999/xhtml" style="display: table-cell; white-space: nowrap; line-height: 1.5; max-width: 189px; text-align: center;"><span class="nodeLabel markdown-node-label"><p>Verification: Analysis</p></span></div></foreignObject></g><g class="divider"><path d="M-232.4609375 -24 C-119.17942400517252 -24, -5.897910510345042 -24, 232.4609375 -24 M-232.4609375 -24 C-113.29957837790114 -24, 5.861780744197716 -24, 232.4609375 -24" stroke="#999" stroke-width="1.3" fill="none" stroke-dasharray="0 0"/></g></g><g class="node default" id="my-svg-uploader" data-look="classic" transform="translate(79.7578125, 286)"><g class="basic label-container outer-path" style=""><path d="M-71.7578125 -56 L71.7578125 -56 L71.7578125 56 L-71.7578125 56" stroke="none" stroke-width="0" fill="#eee"/><path d="M-71.7578125 -56 C-31.41486422517231 -56, 8.928084049655382 -56, 71.7578125 -56 M-71.7578125 -56 C-33.99246117775387 -56, 3.7728901444922656 -56, 71.7578125 -56 M71.7578125 -56 C71.7578125 -22.7249521325881, 71.7578125 10.550095734823799, 71.7578125 56 M71.7578125 -56 C71.7578125 -29.653267870877166, 71.7578125 -3.306535741754331, 71.7578125 56 M71.7578125 56 C41.97813603738874 56, 12.198459574777473 56, -71.7578125 56 M71.7578125 56 C24.10394617543028 56, -23.54992014913944 56, -71.7578125 56 M-71.7578125 56 C-71.7578125 22.153428664923894, -71.7578125 -11.693142670152213, -71.7578125 -56 M-71.7578125 56 C-71.7578125 21.996860095395938, -71.7578125 -12.006279809208124, -71.7578125 -56" stroke="#999" stroke-width="1.3" fill="none" stroke-dasharray="0 0"/></g><g class="label" style="" transform="translate(-46.3359375, -48)"><foreignObject width="92.671875" height="24"><div xmlns="http://www.w3.org/1999/xhtml" style="display: table-cell; white-space: nowrap; line-height: 1.5; max-width: 214px; text-align: center;"><span class="nodeLabel markdown-node-label"><p>&lt;&lt;Element&gt;&gt;</p></span></div></foreignObject></g><g class="label" style="; font-weight: bold;" transform="translate(-33.1953125, -24)"><foreignObject width="66.390625" height="24"><div style="font-weight: bold; display: table-cell; white-space: nowrap; line-height: 1.5; max-width: 106px; text-align: center;" xmlns="http://www.w3.org/1999/xhtml"><span style="; font-weight: bold;" class="nodeLabel markdown-node-label"><p>uploader</p></span></div></foreignObject></g><g class="label" style="" transform="translate(-61.7578125, 20)"><foreignObject width="123.515625" height="24"><div xmlns="http://www.w3.org/1999/xhtml" style="display: table-cell; white-space: nowrap; line-height: 1.5; max-width: 161px; text-align: center;"><span class="nodeLabel markdown-node-label"><p>Type: component</p></span></div></foreignObject></g><g class="divider"><path d="M-71.7578125 12 C-35.95139458917287 12, -0.14497667834574202 12, 71.7578125 12 M-71.7578125 12 C-34.04070396701371 12, 3.6764045659725753 12, 71.7578125 12" stroke="#999" stroke-width="1.3" fill="none" stroke-dasharray="0 0"/></g></g><g class="node default" id="my-svg-load_test" data-look="classic" transform="translate(433.9765625, 64)"><g class="basic label-container outer-path" style=""><path d="M-65.7421875 -56 L65.7421875 -56 L65.7421875 56 L-65.7421875 56" stroke="none" stroke-width="0" fill="#eee"/><path d="M-65.7421875 -56 C-27.122560521074043 -56, 11.497066457851915 -56, 65.7421875 -56 M-65.7421875 -56 C-14.876614799348289 -56, 35.98895790130342 -56, 65.7421875 -56 M65.7421875 -56 C65.7421875 -30.29337678188495, 65.7421875 -4.5867535637699035, 65.7421875 56 M65.7421875 -56 C65.7421875 -19.346987569342346, 65.7421875 17.306024861315308, 65.7421875 56 M65.7421875 56 C22.58010371778981 56, -20.581980064420378 56, -65.7421875 56 M65.7421875 56 C38.24319548603907 56, 10.744203472078148 56, -65.7421875 56 M-65.7421875 56 C-65.7421875 30.465163670236276, -65.7421875 4.930327340472552, -65.7421875 -56 M-65.7421875 56 C-65.7421875 21.231389789694433, -65.7421875 -13.537220420611135, -65.7421875 -56" stroke="#999" stroke-width="1.3" fill="none" stroke-dasharray="0 0"/></g><g class="label" style="" transform="translate(-46.3359375, -48)"><foreignObject width="92.671875" height="24"><div xmlns="http://www.w3.org/1999/xhtml" style="display: table-cell; white-space: nowrap; line-height: 1.5; max-width: 214px; text-align: center;"><span class="nodeLabel markdown-node-label"><p>&lt;&lt;Element&gt;&gt;</p></span></div></foreignObject></g><g class="label" style="; font-weight: bold;" transform="translate(-34.8671875, -24)"><foreignObject width="69.734375" height="24"><div style="font-weight: bold; display: table-cell; white-space: nowrap; line-height: 1.5; max-width: 108px; text-align: center;" xmlns="http://www.w3.org/1999/xhtml"><span style="; font-weight: bold;" class="nodeLabel markdown-node-label"><p>load_test</p></span></div></foreignObject></g><g class="label" style="" transform="translate(-55.7421875, 20)"><foreignObject width="111.484375" height="24"><div xmlns="http://www.w3.org/1999/xhtml" style="display: table-cell; white-space: nowrap; line-height: 1.5; max-width: 148px; text-align: center;"><span class="nodeLabel markdown-node-label"><p>Type: test_case</p></span></div></foreignObject></g><g class="divider"><path d="M-65.7421875 12 C-29.311784164016338 12, 7.118619171967325 12, 65.7421875 12 M-65.7421875 12 C-35.80383386639828 12, -5.865480232796564 12, 65.7421875 12" stroke="#999" stroke-width="1.3" fill="none" stroke-dasharray="0 0"/></g></g></g></g></g><defs><filter id="my-svg-drop-shadow" height="130%" width="130%"><feDropShadow dx="4" dy="4" stdDeviation="0" flood-opacity="0.06" flood-color="#000000"/></filter></defs><defs><filter id="my-svg-drop-shadow-small" height="150%" width="150%"><feDropShadow dx="2" dy="2" stdDeviation="0" flood-opacity="0.06" flood-color="#000000"/></filter></defs><linearGradient id="my-svg-gradient" gradientUnits="objectBoundingBox" x1="0%" y1="0%" x2="100%" y2="0%"><stop offset="0%" stop-color="hsl(0, 0%, 83.3333333333%)" stop-opacity="1"/><stop offset="100%" stop-color="hsl(0, 0%, 88.9215686275%)" stop-opacity="1"/></linearGradient></svg>