<svg id="my-svg" width="100%" xmlns="http://www.w3.org/2000/svg" xmlns:xlink="http://www.w3.org/1999/xlink" class="requirementDiagram" style="max-width: 476.609px; background-color: transparent;" viewBox="0 0 476.609375 644" role="graphics-document document" aria-roledescription="requirement"><style>#my-svg{font-family:"trebuchet ms",verdana,arial,sans-serif;font-size:16px;fill:#000000;}@keyframes edge-animation-frame{from{stroke-dashoffset:0;}}@keyframes dash{to{stroke-dashoffset:0;}}#my-svg .edge-animation-slow{stroke-dasharray:9,5!important;stroke-dashoffset:900;animation:dash 50s linear infinite;stroke-linecap:round;}#my-svg .edge-animation-fast{stroke-dasharray:9,5!important;stroke-dashoffset:900;animation:dash 20s linear infinite;stroke-linecap:round;}#my-svg .error-icon{fill:#552222;}#my-svg .error-text{fill:#552222;stroke:#552222;}#my-svg .edge-thickness-normal{stroke-width:1px;}#my-svg .edge-thickness-thick{stroke-width:3.5px;}#my-svg .edge-pattern-solid{stroke-dasharray:0;}#my-svg .edge-thickness-invisible{stroke-width:0;fill:none;}#my-svg .edge-pattern-dashed{stroke-dasharray:3;}#my-svg .edge-pattern-dotted{stroke-dasharray:2;}#my-svg .marker{fill:#666;stroke:#666;}#my-svg .marker.cross{stroke:#666;}#my-svg svg{font-family:"trebuchet ms",verdana,arial,sans-serif;font-size:16px;}#my-svg p{margin:0;}#my-svg marker{fill:#666;stroke:#666;}#my-svg marker.cross{stroke:#666;}#my-svg svg{font-family:"trebuchet ms",verdana,arial,sans-serif;font-size:16px;}#my-svg .reqBox{fill:#eee;fill-opacity:1.0;stroke:hsl(0, 0%, 83.3333333333%);stroke-width:1;}#my-svg .reqTitle,#my-svg .reqLabel{fill:#111111;}#my-svg .reqLabelBox{fill:white;fill-opacity:1.0;}#my-svg .req-title-line{stroke:hsl(0, 0%, 83.3333333333%);stroke-width:1;}#my-svg .relationshipLine{stroke:#666;stroke-width:1px;}#my-svg .relationshipLabel{fill:#333;}#my-svg .edgeLabel{background-color:white;}#my-svg .edgeLabel .label rect{fill:white;}#my-svg .edgeLabel .label text{fill:#333;}#my-svg .divider{stroke:#999;stroke-width:1;}#my-svg .label{font-family:"trebuchet ms",verdana,arial,sans-serif;color:#000000;}#my-svg .label text,#my-svg span{fill:#000000;color:#000000;}#my-svg .labelBkg{background-color:white;}#my-svg .node .neo-node{stroke:#999;}#my-svg [data-look="neo"].node rect,#my-svg [data-look="neo"].cluster rect,#my-svg [data-look="neo"].node polygon{stroke:url(#my-svg-gradient);filter:drop-shadow( 1px 2px 2px rgba(185,185,185,1));}#my-svg [data-look="neo"].node path{stroke:url(#my-svg-gradient);stroke-width:1px;}#my-svg [data-look="neo"].node .outer-path{filter:drop-shadow( 1px 2px 2px rgba(185,185,185,1));}#my-svg [data-look="neo"].node .neo-line path{stroke:#999;filter:none;}#my-svg [data-look="neo"].node circle{stroke:url(#my-svg-gradient);filter:drop-shadow( 1px 2px 2px rgba(185,185,185,1));}#my-svg [data-look="neo"].node circle .state-start{fill:#000000;}#my-svg [data-look="neo"].icon-shape .icon{fill:url(#my-svg-gradient);filter:drop-shadow( 1px 2px 2px rgba(185,185,185,1));}#my-svg [data-look="neo"].icon-shape .icon-neo path{stroke:url(#my-svg-gradient);filter:drop-shadow( 1px 2px 2px rgba(185,185,185,1));}#my-svg :root{--mermaid-font-family:"trebuchet ms",verdana,arial,sans-serif;}</style><g><defs><marker id="my-svg_requirement-requirement_containsStart" refX="0" refY="10" markerWidth="20" markerHeight="20" orient="auto"><g><circle cx="10" cy="10" r="9" fill="none"/><line x1="1" x2="19" y1="10" y2="10"/><line y1="1" y2="19" x1="10" x2="10"/></g></marker></defs><defs><marker id="my-svg_requirement-requirement_arrowEnd" refX="20" refY="10" markerWidth="20" markerHeight="20" orient="auto"><path d="M0,0&#10;      L20,10&#10;      M20,10&#10;      L0,20"/></marker></defs><g class="root"><g class="clusters"/><g class="edgePaths"><path d="M76.5,342L76.5,354.167C76.5,366.333,76.5,390.667,82.602,409C88.704,427.333,100.909,439.667,107.011,445.833L113.113,452" id="my-svg-monitoring-avail_req-0" class="edge-thickness-normal edge-pattern-dashed relationshipLine" style="fill:none;stroke-dasharray: 10,7;;;fill:none;stroke-dasharray: 10,7" data-edge="true" data-et="edge" data-id="monitoring-avail_req-0" data-points="W3sieCI6NzYuNSwieSI6MzQyfSx7IngiOjc2LjUsInkiOjQxNX0seyJ4IjoxMTMuMTEzNDYyOTM2MDQ2NTIsInkiOjQ1Mn1d" data-look="classic" marker-end="url(#my-svg_requirement-requirement_arrowEnd)"/><path d="M331.805,120L331.805,126.167C331.805,132.333,331.805,144.667,331.805,157C331.805,169.333,331.805,181.667,331.805,187.833L331.805,194" id="my-svg-backup_job-backup_req-0" class="edge-thickness-normal edge-pattern-dashed relationshipLine" style="fill:none;stroke-dasharray: 10,7;;;fill:none;stroke-dasharray: 10,7" data-edge="true" data-et="edge" data-id="backup_job-backup_req-0" data-points="W3sieCI6MzMxLjgwNDY4NzUsInkiOjEyMH0seyJ4IjozMzEuODA0Njg3NSwieSI6MTU3fSx7IngiOjMzMS44MDQ2ODc1LCJ5IjoxOTR9XQ==" data-look="classic" marker-end="url(#my-svg_requirement-requirement_arrowEnd)"/><path d="M331.805,378L331.805,384.167C331.805,390.333,331.805,402.667,325.702,415C319.6,427.333,307.396,439.667,301.293,445.833L295.191,452" id="my-svg-backup_req-avail_req-0" class="edge-thickness-normal edge-pattern-dashed relationshipLine" style="fill:none;stroke-dasharray: 10,7;;;fill:none;stroke-dasharray: 10,7" data-edge="true" data-et="edge" data-id="backup_req-avail_req-0" data-points="W3sieCI6MzMxLjgwNDY4NzUsInkiOjM3OH0seyJ4IjozMzEuODA0Njg3NSwieSI6NDE1fSx7IngiOjI5NS4xOTEyMjQ1NjM5NTM1LCJ5Ijo0NTJ9XQ==" data-look="classic" marker-end="url(#my-svg_requirement-requirement_arrowEnd)"/></g><g class="edgeLabels"><g class="edgeLabel" transform="translate(76.5, 415)"><g class="label" data-id="monitoring-avail_req-0" transform="translate(-43.296875, -12)"><foreignObject width="86.59375" height="24"><div xmlns="http://www.w3.org/1999/xhtml" class="labelBkg" style="display: table-cell; white-space: nowrap; line-height: 1.5; max-width: 200px; text-align: center;"><span class="edgeLabel"><p>&lt;&lt;verifies&gt;&gt;</p></span></div></foreignObject></g></g><g class="edgeLabel" transform="translate(331.8046875, 157)"><g class="label" data-id="backup_job-backup_req-0" transform="translate(-45.7578125, -12)"><foreignObject width="91.515625" height="24"><div xmlns="http://www.w3.org/1999/xhtml" class="labelBkg" style="display: table-cell; white-space: nowrap; line-height: 1.5; max-width: 200px; text-align: center;"><span class="edgeLabel"><p>&lt;&lt;satisfies&gt;&gt;</p></span></div></foreignObject></g></g><g class="edgeLabel" transform="translate(331.8046875, 415)"><g class="label" data-id="backup_req-avail_req-0" transform="translate(-42.515625, -12)"><foreignObject width="85.03125" height="24"><div xmlns="http://www.w3.org/1999/xhtml" class="labelBkg" style="display: table-cell; white-space: nowrap; line-height: 1.5; max-width: 200px; text-align: center;"><span class="edgeLabel"><p>&lt;&lt;derives&gt;&gt;</p></span></div></foreignObject></g></g></g><g class="nodes"><g class="node default" id="my-svg-avail_req" data-look="classic" transform="translate(204.15234375, 544)"><g class="basic label-container outer-path" style=""><path d="M-190.71875 -92 L190.71875 -92 L190.71875 92 L-190.71875 92" stroke="none" stroke-width="0" fill="#eee"/><path d="M-190.71875 -92 C-84.59575303467041 -92, 21.527243930659182 -92, 190.71875 -92 M-190.71875 -92 C-83.55304283063697 -92, 23.612664338726063 -92, 190.71875 -92 M190.71875 -92 C190.71875 -29.336404764614052, 190.71875 33.327190470771896, 190.71875 92 M190.71875 -92 C190.71875 -18.475105774725733, 190.71875 55.04978845054853, 190.71875 92 M190.71875 92 C100.55146258813666 92, 10.384175176273317 92, -190.71875 92 M190.71875 92 C68.0373551564728 92, -54.6440396870544 92, -190.71875 92 M-190.71875 92 C-190.71875 42.3042309447666, -190.71875 -7.391538110466797, -190.71875 -92 M-190.71875 92 C-190.71875 29.540455960094256, -190.71875 -32.91908807981149, -190.71875 -92" stroke="#999" stroke-width="1.3" fill="none" stroke-dasharray="0 0"/></g><g class="label" style="" transform="translate(-62.609375, -84)"><foreignObject width="125.21875" height="24"><div xmlns="http://www.w3.org/1999/xhtml" style="display: table-cell; white-space: nowrap; line-height: 1.5; max-width: 243px; text-align: center;"><span class="nodeLabel markdown-node-label"><p>&lt;&lt;Requirement&gt;&gt;</p></span></div></foreignObject></g><g class="label" style="; font-weight: bold;" transform="translate(-34.8671875, -60)"><foreignObject width="69.734375" height="24"><div style="font-weight: bold; display: table-cell; white-space: nowrap; line-height: 1.5; max-width: 110px; text-align: center;" xmlns="http://www.w3.org/1999/xhtml"><span style="; font-weight: bold;" class="nodeLabel markdown-node-label"><p>avail_req</p></span></div></foreignObject></g><g class="label" style="" transform="translate(-180.71875, -16)"><foreignObject width="33.359375" height="24"><div xmlns="http://www.w3.org/1999/xhtml" style="display: table-cell; white-space: nowrap; line-height: 1.5; max-width: 83px; text-align: center;"><span class="nodeLabel markdown-node-label"><p>ID: 1</p></span></div></foreignObject></g><g class="label" style="" transform="translate(-180.71875, 8)"><foreignObject width="361.4375" height="24"><div xmlns="http://www.w3.org/1999/xhtml" style="display: table-cell; white-space: nowrap; line-height: 1.5; max-width: 373px; text-align: center;"><span class="nodeLabel markdown-node-label"><p>Text: Service must be available 99.9% of the time.</p></span></div></foreignObject></g><g class="label" style="" transform="translate(-180.71875, 32)"><foreignObject width="70.921875" height="24"><div xmlns="http://www.w3.org/1999/xhtml" style="display: table-cell; white-space: nowrap; line-height: 1.5; max-width: 120px; text-align: center;"><span class="nodeLabel markdown-node-label"><p>Risk: High</p></span></div></foreignObject></g><g class="label" style="" transform="translate(-180.71875, 56)"><foreignObject width="149.4375" height="24"><div xmlns="http://www.w3.org/1999/xhtml" style="display: table-cell; white-space: nowrap; line-height: 1.5; max-width: 189px; text-align: center;"><span class="nodeLabel markdown-node-label"><p>Verification: Analysis</p></span></div></foreignObject></g><g class="divider"><path d="M-190.71875 -24 C-42.51251563812275 -24, 105.6937187237545 -24, 190.71875 -24 M-190.71875 -24 C-112.39879264526681 -24, -34.07883529053362 -24, 190.71875 -24" stroke="#999" stroke-width="1.3" fill="none" stroke-dasharray="0 0"/></g></g><g class="node default" id="my-svg-backup_req" data-look="classic" transform="translate(331.8046875, 286)"><g class="basic label-container outer-path" style=""><path d="M-136.8046875 -92 L136.8046875 -92 L136.8046875 92 L-136.8046875 92" stroke="none" stroke-width="0" fill="#eee"/><path d="M-136.8046875 -92 C-43.67151885791536 -92, 49.46164978416928 -92, 136.8046875 -92 M-136.8046875 -92 C-49.73416376372815 -92, 37.336359972543704 -92, 136.8046875 -92 M136.8046875 -92 C136.8046875 -23.018199599881015, 136.8046875 45.96360080023797, 136.8046875 92 M136.8046875 -92 C136.8046875 -32.52524971683915, 136.8046875 26.949500566321703, 136.8046875 92 M136.8046875 92 C39.93885483178724 92, -56.92697783642552 92, -136.8046875 92 M136.8046875 92 C76.434276063159 92, 16.063864626318008 92, -136.8046875 92 M-136.8046875 92 C-136.8046875 50.81645747414651, -136.8046875 9.63291494829302, -136.8046875 -92 M-136.8046875 92 C-136.8046875 40.6588894686592, -136.8046875 -10.682221062681606, -136.8046875 -92" stroke="#999" stroke-width="1.3" fill="none" stroke-dasharray="0 0"/></g><g class="label" style="" transform="translate(-62.609375, -84)"><foreignObject width="125.21875" height="24"><div xmlns="http://www.w3.org/1999/xhtml" style="display: table-cell; white-space: nowrap; line-height: 1.5; max-width: 243px; text-align: center;"><span class="nodeLabel markdown-node-label"><p>&lt;&lt;Requirement&gt;&gt;</p></span></div></foreignObject></g><g class="label" style="; font-weight: bold;" transform="translate(-44.15625, -60)"><foreignObject width="88.3125" height="24"><div style="font-weight: bold; display: table-cell; white-space: nowrap; line-height: 1.5; max-width: 125px; text-align: center;" xmlns="http://www.w3.org/1999/xhtml"><span style="; font-weight: bold;" class="nodeLabel markdown-node-label"><p>backup_req</p></span></div></foreignObject></g><g class="label" style="" transform="translate(-126.8046875, -16)"><foreignObject width="33.359375" height="24"><div xmlns="http://www.w3.org/1999/xhtml" style="display: table-cell; white-space: nowrap; line-height: 1.5; max-width: 83px; text-align: center;"><span class="nodeLabel markdown-node-label"><p>ID: 2</p></span></div></foreignObject></g><g class="label" style="" transform="translate(-126.8046875, 8)"><foreignObject width="253.609375" height="24"><div xmlns="http://www.w3.org/1999/xhtml" style="display: table-cell; white-space: nowrap; line-height: 1.5; max-width: 278px; text-align: center;"><span class="nodeLabel markdown-node-label"><p>Text: Backups must complete daily.</p></span></div></foreignObject></g><g class="label" style="" transform="translate(-126.8046875, 32)"><foreignObject width="94.703125" height="24"><div xmlns="http://www.w3.org/1999/xhtml" style="display: table-cell; white-space: nowrap; line-height: 1.5; max-width: 142px; text-align: center;"><span class="nodeLabel markdown-node-label"><p>Risk: Medium</p></span></div></foreignObject></g><g class="label" style="" transform="translate(-126.8046875, 56)"><foreignObject width="167.078125" height="24"><div xmlns="http://www.w3.org/1999/xhtml" style="display: table-cell; white-space: nowrap; line-height: 1.5; max-width: 201px; text-align: center;"><span class="nodeLabel markdown-node-label"><p>Verification: Inspection</p></span></div></foreignObject></g><g class="divider"><path d="M-136.8046875 -24 C-64.28277008832416 -24, 8.239147323351688 -24, 136.8046875 -24 M-136.8046875 -24 C-51.04857837015905 -24, 34.7075307596819 -24, 136.8046875 -24" stroke="#999" stroke-width="1.3" fill="none" stroke-dasharray="0 0"/></g></g><g class="node default" id="my-svg-monitoring" data-look="classic" transform="translate(76.5, 286)"><g class="basic label-container outer-path" style=""><path d="M-68.5 -56 L68.5 -56 L68.5 56 L-68.5 56" stroke="none" stroke-width="0" fill="#eee"/><path d="M-68.5 -56 C-14.784195057339403 -56, 38.931609885321194 -56, 68.5 -56 M-68.5 -56 C-24.976496547577852 -56, 18.547006904844295 -56, 68.5 -56 M68.5 -56 C68.5 -28.34067059853716, 68.5 -0.6813411970743175, 68.5 56 M68.5 -56 C68.5 -19.770508877917543, 68.5 16.458982244164915, 68.5 56 M68.5 56 C28.28438831639619 56, -11.931223367207622 56, -68.5 56 M68.5 56 C34.92214360452817 56, 1.344287209056347 56, -68.5 56 M-68.5 56 C-68.5 26.933416271122496, -68.5 -2.1331674577550075, -68.5 -56 M-68.5 56 C-68.5 25.94458183615623, -68.5 -4.110836327687537, -68.5 -56" stroke="#999" stroke-width="1.3" fill="none" stroke-dasharray="0 0"/></g><g class="label" style="" transform="translate(-46.3359375, -48)"><foreignObject width="92.671875" height="24"><div xmlns="http://www.w3.org/1999/xhtml" style="display: table-cell; white-space: nowrap; line-height: 1.5; max-width: 214px; text-align: center;"><span class="nodeLabel markdown-node-label"><p>&lt;&lt;Element&gt;&gt;</p></span></div></foreignObject></g><g class="label" style="; font-weight: bold;" transform="translate(-40.7578125, -24)"><foreignObject width="81.515625" height="24"><div style="font-weight: bold; display: table-cell; white-space: nowrap; line-height: 1.5; max-width: 121px; text-align: center;" xmlns="http://www.w3.org/1999/xhtml"><span style="; font-weight: bold;" class="nodeLabel markdown-node-label"><p>monitoring</p></span></div></foreignObject></g><g class="label" style="" transform="translate(-58.5, 20)"><foreignObject width="117" height="24"><div xmlns="http://www.w3.org/1999/xhtml" style="display: table-cell; white-space: nowrap; line-height: 1.5; max-width: 157px; text-align: center;"><span class="nodeLabel markdown-node-label"><p>Type: subsystem</p></span></div></foreignObject></g><g class="divider"><path d="M-68.5 12 C-32.996737692474206 12, 2.506524615051589 12, 68.5 12 M-68.5 12 C-38.33780559032577 12, -8.175611180651543 12, 68.5 12" stroke="#999" stroke-width="1.3" fill="none" stroke-dasharray="0 0"/></g></g><g class="node default" id="my-svg-backup_job" data-look="classic" transform="translate(331.8046875, 64)"><g class="basic label-container outer-path" style=""><path d="M-56.3359375 -56 L56.3359375 -56 L56.3359375 56 L-56.3359375 56" stroke="none" stroke-width="0" fill="#eee"/><path d="M-56.3359375 -56 C-28.857412739353904 -56, -1.3788879787078088 -56, 56.3359375 -56 M-56.3359375 -56 C-18.655400131464795 -56, 19.02513723707041 -56, 56.3359375 -56 M56.3359375 -56 C56.3359375 -32.81326995826288, 56.3359375 -9.626539916525765, 56.3359375 56 M56.3359375 -56 C56.3359375 -26.393756538357675, 56.3359375 3.2124869232846507, 56.3359375 56 M56.3359375 56 C30.34663003226428 56, 4.357322564528559 56, -56.3359375 56 M56.3359375 56 C16.453919569850257 56, -23.428098360299487 56, -56.3359375 56 M-56.3359375 56 C-56.3359375 14.36012558462172, -56.3359375 -27.27974883075656, -56.3359375 -56 M-56.3359375 56 C-56.3359375 24.423684784044784, -56.3359375 -7.152630431910431, -56.3359375 -56" stroke="#999" stroke-width="1.3" fill="none" stroke-dasharray="0 0"/></g><g class="label" style="" transform="translate(-46.3359375, -48)"><foreignObject width="92.671875" height="24"><div xmlns="http://www.w3.org/1999/xhtml" style="display: table-cell; white-space: nowrap; line-height: 1.5; max-width: 214px; text-align: center;"><span class="nodeLabel markdown-node-label"><p>&lt;&lt;Element&gt;&gt;</p></span></div></foreignObject></g><g class="label" style="; font-weight: bold;" transform="translate(-43.578125, -24)"><foreignObject width="87.15625" height="24"><div style="font-weight: bold; display: table-cell; white-space: nowrap; line-height: 1.5; max-width: 125px; text-align: center;" xmlns="http://www.w3.org/1999/xhtml"><span style="; font-weight: bold;" class="nodeLabel markdown-node-label"><p>backup_job</p></span></div></foreignObject></g><g class="label" style="" transform="translate(-46.3359375, 20)"><foreignObject width="75.140625" height="24"><div xmlns="http://www.w3.org/1999/xhtml" style="display: table-cell; white-space: nowrap; line-height: 1.5; max-width: 119px; text-align: center;"><span class="nodeLabel markdown-node-label"><p>Type: cron</p></span></div></foreignObject></g><g class="divider"><path d="M-56.3359375 12 C-21.77142290121379 12, 12.793091697572422 12, 56.3359375 12 M-56.3359375 12 C-11.542920570507746 12, 33.25009635898451 12, 56.3359375 12" stroke="#999" stroke-width="1.3" fill="none" stroke-dasharray="0 0"/></g></g></g></g></g><defs><filter id="my-svg-drop-shadow" height="130%" width="130%"><feDropShadow dx="4" dy="4" stdDeviation="0" flood-opacity="0.06" flood-color="#000000"/></filter></defs><defs><filter id="my-svg-drop-shadow-small" height="150%" width="150%"><feDropShadow dx="2" dy="2" stdDeviation="0" flood-opacity="0.06" flood-color="#000000"/></filter></defs><linearGradient id="my-svg-gradient" gradientUnits="objectBoundingBox" x1="0%" y1="0%" x2="100%" y2="0%"><stop offset="0%" stop-color="hsl(0, 0%, 83.3333333333%)" stop-opacity="1"/><stop offset="100%" stop-color="hsl(0, 0%, 88.9215686275%)" stop-opacity="1"/></linearGradient></svg>