<svg id="my-svg" width="100%" xmlns="http://www.w3.org/2000/svg" xmlns:xlink="http://www.w3.org/1999/xlink" class="requirementDiagram" style="max-width: 674.438px; background-color: transparent;" viewBox="0 0 674.4375 644" role="graphics-document document" aria-roledescription="requirement"><style>#my-svg{font-family:"trebuchet ms",verdana,arial,sans-serif;font-size:16px;fill:#000000;}@keyframes edge-animation-frame{from{stroke-dashoffset:0;}}@keyframes dash{to{stroke-dashoffset:0;}}#my-svg .edge-animation-slow{stroke-dasharray:9,5!important;stroke-dashoffset:900;animation:dash 50s linear infinite;stroke-linecap:round;}#my-svg .edge-animation-fast{stroke-dasharray:9,5!important;stroke-dashoffset:900;animation:dash 20s linear infinite;stroke-linecap:round;}#my-svg .error-icon{fill:#552222;}#my-svg .error-text{fill:#552222;stroke:#552222;}#my-svg .edge-thickness-normal{stroke-width:1px;}#my-svg .edge-thickness-thick{stroke-width:3.5px;}#my-svg .edge-pattern-solid{stroke-dasharray:0;}#my-svg .edge-thickness-invisible{stroke-width:0;fill:none;}#my-svg .edge-pattern-dashed{stroke-dasharray:3;}#my-svg .edge-pattern-dotted{stroke-dasharray:2;}#my-svg .marker{fill:#666;stroke:#666;}#my-svg .marker.cross{stroke:#666;}#my-svg svg{font-family:"trebuchet ms",verdana,arial,sans-serif;font-size:16px;}#my-svg p{margin:0;}#my-svg marker{fill:#666;stroke:#666;}#my-svg marker.cross{stroke:#666;}#my-svg svg{font-family:"trebuchet ms",verdana,arial,sans-serif;font-size:16px;}#my-svg .reqBox{fill:#eee;fill-opacity:1.0;stroke:hsl(0, 0%, 83.3333333333%);stroke-width:1;}#my-svg .reqTitle,#my-svg .reqLabel{fill:#111111;}#my-svg .reqLabelBox{fill:white;fill-opacity:1.0;}#my-svg .req-title-line{stroke:hsl(0, 0%, 83.3333333333%);stroke-width:1;}#my-svg .relationshipLine{stroke:#666;stroke-width:1px;}#my-svg .relationshipLabel{fill:#333;}#my-svg .edgeLabel{background-color:white;}#my-svg .edgeLabel .label rect{fill:white;}#my-svg .edgeLabel .label text{fill:#333;}#my-svg .divider{stroke:#999;stroke-width:1;}#my-svg .label{font-family:"trebuchet ms",verdana,arial,sans-serif;color:#000000;}#my-svg .label text,#my-svg span{fill:#000000;color:#000000;}#my-svg .labelBkg{background-color:white;}#my-svg .node .neo-node{stroke:#999;}#my-svg [data-look="neo"].node rect,#my-svg [data-look="neo"].cluster rect,#my-svg [data-look="neo"].node polygon{stroke:url(#my-svg-gradient);filter:drop-shadow( 1px 2px 2px rgba(185,185,185,1));}#my-svg [data-look="neo"].node path{stroke:url(#my-svg-gradient);stroke-width:1px;}#my-svg [data-look="neo"].node .outer-path{filter:drop-shadow( 1px 2px 2px rgba(185,185,185,1));}#my-svg [data-look="neo"].node .neo-line path{stroke:#999;filter:none;}#my-svg [data-look="neo"].node circle{stroke:url(#my-svg-gradient);filter:drop-shadow( 1px 2px 2px rgba(185,185,185,1));}#my-svg [data-look="neo"].node circle .state-start{fill:#000000;}#my-svg [data-look="neo"].icon-shape .icon{fill:url(#my-svg-gradient);filter:drop-shadow( 1px 2px 2px rgba(185,185,185,1));}#my-svg [data-look="neo"].icon-shape .icon-neo path{stroke:url(#my-svg-gradient);filter:drop-shadow( 1px 2px 2px rgba(185,185,185,1));}#my-svg :root{--mermaid-font-family:"trebuchet ms",verdana,arial,sans-serif;}</style><g><defs><marker id="my-svg_requirement-requirement_containsStart" refX="0" refY="10" markerWidth="20" markerHeight="20" orient="auto"><g><circle cx="10" cy="10" r="9" fill="none"/><line x1="1" x2="19" y1="10" y2="10"/><line y1="1" y2="19" x1="10" x2="10"/></g></marker></defs><defs><marker id="my-svg_requirement-requirement_arrowEnd" refX="20" refY="10" markerWidth="20" markerHeight="20" orient="auto"><path d="M0,0&#10;      L20,10&#10;      M20,10&#10;      L0,20"/></marker></defs><g class="root"><g class="clusters"/><g class="edgePaths"><path d="M79.758,342L79.758,354.167C79.758,366.333,79.758,390.667,88.224,409C96.691,427.333,113.624,439.667,122.09,445.833L130.557,452" id="my-svg-uploader-upload-0" class="edge-thickness-normal edge-pattern-dashed relationshipLine" style="fill:none;stroke-dasharray: 10,7;;;fill:none;stroke-dasharray: 10,7" data-edge="true" data-et="edge" data-id="uploader-upload-0" data-points="W3sieCI6NzkuNzU3ODEyNSwieSI6MzQyfSx7IngiOjc5Ljc1NzgxMjUsInkiOjQxNX0seyJ4IjoxMzAuNTU2NjI1NDg0NDk2MTIsInkiOjQ1Mn1d" data-look="classic" marker-end="url(#my-svg_requirement-requirement_arrowEnd)"/><path d="M433.977,120L433.977,126.167C433.977,132.333,433.977,144.667,433.977,157C433.977,169.333,433.977,181.667,433.977,187.833L433.977,194" id="my-svg-load_test-speed-0" class="edge-thickness-normal edge-pattern-dashed relationshipLine" style="fill:none;stroke-dasharray: 10,7;;;fill:none;stroke-dasharray: 10,7" data-edge="true" data-et="edge" data-id="load_test-speed-0" data-points="W3sieCI6NDMzLjk3NjU2MjUsInkiOjEyMH0seyJ4Ijo0MzMuOTc2NTYyNSwieSI6MTU3fSx7IngiOjQzMy45NzY1NjI1LCJ5IjoxOTR9XQ==" data-look="classic" marker-end="url(#my-svg_requirement-requirement_arrowEnd)"/><path d="M433.977,378L433.977,384.167C433.977,390.333,433.977,402.667,425.51,415C417.044,427.333,400.111,439.667,391.644,445.833L383.178,452" id="my-svg-speed-upload-0" class="edge-thickness-normal edge-pattern-dashed relationshipLine" style="fill:none;stroke-dasharray: 10,7;;;fill:none;stroke-dasharray: 10,7" data-edge="true" data-et="edge" data-id="speed-upload-0" data-points="W3sieCI6NDMzLjk3NjU2MjUsInkiOjM3OH0seyJ4Ijo0MzMuOTc2NTYyNSwieSI6NDE1fSx7IngiOjM4My4xNzc3NDk1MTU1MDM5LCJ5Ijo0NTJ9XQ==" data-look="classic" marker-end="url(#my-svg_requirement-requirement_arrowEnd)"/></g><g class="edgeLabels"><g class="edgeLabel" transform="translate(79.7578125, 415)"><g class="label" data-id="uploader-upload-0" transform="translate(-45.7578125, -12)"><foreignObject width="91.515625" height="24"><div xmlns="http://www.w3.org/1999/xhtml" class="labelBkg" style="display: table-cell; white-space: nowrap; line-height: 1.5; max-width: 200px; text-align: center;"><span class="edgeLabel"><p>&lt;&lt;satisfies&gt;&gt;</p></span></div></foreignObject></g></g><g class="edgeLabel" transform="translate(433.9765625, 157)"><g class="label" data-id="load_test-speed-0" transform="translate(-43.296875, -12)"><foreignObject width="86.59375" height="24"><div xmlns="http://www.w3.org/1999/xhtml" class="labelBkg" style="display: table-cell; white-space: nowrap; line-height: 1.5; max-width: 200px; text-align: center;"><span class="edgeLabel"><p>&lt;&lt;verifies&gt;&gt;</p></span></div></foreignObject></g></g><g class="edgeLabel" transform="translate(433.9765625, 415)"><g class="label" data-id="speed-upload-0" transform="translate(-41.46875, -12)"><foreignObject width="82.9375" height="24"><div xmlns="http://www.w3.org/1999/xhtml" class="labelBkg" style="display: table-cell; white-space: nowrap; line-height: 1.5; max-width: 200px; text-align: center;"><span class="edgeLabel"><p>&lt;&lt;refines&gt;&gt;</p></span></div></foreignObject></g></g></g><g class="nodes"><g class="node default" id="my-svg-upload" data-look="classic" transform="translate(256.8671875, 544)"><g class="basic label-container outer-path" style=""><path d="M-201.2265625 -92 L201.2265625 -92 L201.2265625 92 L-201.2265625 92" stroke="none" stroke-width="0" fill="#eee"/><path d="M-201.2265625 -92 C-100.62153651625857 -92, -0.016510532517145293 -92, 201.2265625 -92 M-201.2265625 -92 C-60.95573935240134 -92, 79.31508379519732 -92, 201.2265625 -92 M201.2265625 -92 C201.2265625 -26.231787192819652, 201.2265625 39.536425614360695, 201.2265625 92 M201.2265625 -92 C201.2265625 -35.36135480161871, 201.2265625 21.27729039676258, 201.2265625 92 M201.2265625 92 C111.62903307075234 92, 22.031503641504685 92, -201.2265625 92 M201.2265625 92 C114.68207739372981 92, 28.137592287459626 92, -201.2265625 92 M-201.2265625 92 C-201.2265625 21.76729965495454, -201.2265625 -48.46540069009092, -201.2265625 -92 M-201.2265625 92 C-201.2265625 48.15476949132467, -201.2265625 4.309538982649343, -201.2265625 -92" stroke="#999" stroke-width="1.3" fill="none" stroke-dasharray="0 0"/></g><g class="label" style="" transform="translate(-102.6015625, -84)"><foreignObject width="205.203125" height="24"><div xmlns="http://www.w3.org/1999/xhtml" style="display: table-cell; white-space: nowrap; line-height: 1.5; max-width: 315px; text-align: center;"><span class="nodeLabel markdown-node-label"><p>&lt;&lt;Functional Requirement&gt;&gt;</p></span></div></foreignObject></g><g class="label" style="; font-weight: bold;" transform="translate(-25.1796875, -60)"><foreignObject width="50.359375" height="24"><div style="font-weight: bold; display: table-cell; white-space: nowrap; line-height: 1.5; max-width: 94px; text-align: center;" xmlns="http://www.w3.org/1999/xhtml"><span style="; font-weight: bold;" class="nodeLabel markdown-node-label"><p>upload</p></span></div></foreignObject></g><g class="label" style="" transform="translate(-191.2265625, -16)"><foreignObject width="33.359375" height="24"><div xmlns="http://www.w3.org/1999/xhtml" style="display: table-cell; white-space: nowrap; line-height: 1.5; max-width: 83px; text-align: center;"><span class="nodeLabel markdown-node-label"><p>ID: 1</p></span></div></foreignObject></g><g class="label" style="" transform="translate(-191.2265625, 8)"><foreignObject width="382.453125" height="24"><div xmlns="http://www.w3.org/1999/xhtml" style="display: table-cell; white-space: nowrap; line-height: 1.5; max-width: 396px; text-align: center;"><span class="nodeLabel markdown-node-label"><p>Text: The app must support file upload up to 100 MB.</p></span></div></foreignObject></g><g class="label" style="" transform="translate(-191.2265625, 32)"><foreignObject width="67.71875" height="24"><div xmlns="http://www.w3.org/1999/xhtml" style="display: table-cell; white-space: nowrap; line-height: 1.5; max-width: 117px; text-align: center;"><span class="nodeLabel markdown-node-label"><p>Risk: Low</p></span></div></foreignObject></g><g class="label" style="" transform="translate(-191.2265625, 56)"><foreignObject width="122.171875" height="24"><div xmlns="http://www.w3.org/1999/xhtml" style="display: table-cell; white-space: nowrap; line-height: 1.5; max-width: 160px; text-align: center;"><span class="nodeLabel markdown-node-label"><p>Verification: Test</p></span></div></foreignObject></g><g class="divider"><path d="M-201.2265625 -24 C-54.70795041060501 -24, 91.81066167878998 -24, 201.2265625 -24 M-201.2265625 -24 C-84.47788797154311 -24, 32.27078655691378 -24, 201.2265625 -24" stroke="#999" stroke-width="1.3" fill="none" stroke-dasharray="0 0"/></g></g><g class="node default" id="my-svg-speed" data-look="classic" transform="translate(433.9765625, 286)"><g class="basic label-container outer-path" style=""><path d="M-232.4609375 -92 L232.4609375 -92 L232.4609375 92 L-232.4609375 92" stroke="none" stroke-width="0" fill="#eee"/><path d="M-232.4609375 -92 C-91.09772084662518 -92, 50.26549580674964 -92, 232.4609375 -92 M-232.4609375 -92 C-123.02943757838719 -92, -13.597937656774377 -92, 232.4609375 -92 M232.4609375 -92 C232.4609375 -37.95942958152457, 232.4609375 16.081140836950865, 232.4609375 92 M232.4609375 -92 C232.4609375 -39.27280374566552, 232.4609375 13.45439250866896, 232.4609375 92 M232.4609375 92 C106.98034378105106 92, -18.500249937897877 92, -232.4609375 92 M232.4609375 92 C52.77606125623012 92, -126.90881498753976 92, -232.4609375 92 M-232.4609375 92 C-232.4609375 28.474594910560207, -232.4609375 -35.05081017887959, -232.4609375 -92 M-232.4609375 92 C-232.4609375 50.64337859023678, -232.4609375 9.286757180473558, -232.4609375 -92" stroke="#999" stroke-width="1.3" fill="none" stroke-dasharray="0 0"/></g><g class="label" style="" transform="translate(-110.4765625, -84)"><foreignObject width="220.953125" height="24"><div xmlns="http://www.w3.org/1999/xhtml" style="display: table-cell; white-space: nowrap; line-height: 1.5; max-width: 329px; text-align: center;"><span class="nodeLabel markdown-node-label"><p>&lt;&lt;Performance Requirement&gt;&gt;</p></span></div></foreignObject></g><g class="label" style="; font-weight: bold;" transform="translate(-21.9453125, -60)"><foreignObject width="43.890625" height="24"><div style="font-weight: bold; display: table-cell; white-space: nowrap; line-height: 1.5; max-width: 86px; text-align: center;" xmlns="http://www.w3.org/1999/xhtml"><span style="; font-weight: bold;" class="nodeLabel markdown-node-label"><p>speed</p></span></div></foreignObject></g><g class="label" style="" transform="translate(-222.4609375, -16)"><foreignObject width="33.359375" height="24"><div xmlns="http://www.w3.org/1999/xhtml" style="display: table-cell; white-space: nowrap; line-height: 1.5; max-width: 83px; text-align: center;"><span class="nodeLabel markdown-node-label"><p>ID: 2</p></span></div></foreignObject></g><g class="label" style="" transform="translate(-222.4609375, 8)"><foreignObject width="444.921875" height="24"><div xmlns="http://www.w3.org/1999/xhtml" style="display: table-cell; white-space: nowrap; line-height: 1.5; max-width: 447px; text-align: center;"><span class="nodeLabel markdown-node-label"><p>Text: Uploads must complete in under 30 seconds on average.</p></span></div></foreignObject></g><g class="label" style="" transform="translate(-222.4609375, 32)"><foreignObject width="94.703125" height="24"><div xmlns="http://www.w3.org/1999/xhtml" style="display: table-cell; white-space: nowrap; line-height: 1.5; max-width: 142px; text-align: center;"><span class="nodeLabel markdown-node-label"><p>Risk: Medium</p></span></div></foreignObject></g><g class="label" style="" transform="translate(-222.4609375, 56)"><foreignObject width="149.4375" height="24"><div xmlns="http://www.w3.org/1999/xhtml" style="display: table-cell; white-space: nowrap; line-height: 1.5; max-width: 189px; text-align: center;"><span class="nodeLabel markdown-node-label"><p>Verification: Analysis</p></span></div></foreignObject></g><g class="divider"><path d="M-232.4609375 -24 C-108.44973247057217 -24, 15.561472558855655 -24, 232.4609375 -24 M-232.4609375 -24 C-118.11387005207348 -24, -3.76680260414696 -24, 232.4609375 -24" stroke="#999" stroke-width="1.3" fill="none" stroke-dasharray="0 0"/></g></g><g class="node default" id="my-svg-uploader" data-look="classic" transform="translate(79.7578125, 286)"><g class="basic label-container outer-path" style=""><path d="M-71.7578125 -56 L71.7578125 -56 L71.7578125 56 L-71.7578125 56" stroke="none" stroke-width="0" fill="#eee"/><path d="M-71.7578125 -56 C-30.79712869010445 -56, 10.163555119791098 -56, 71.7578125 -56 M-71.7578125 -56 C-34.478537029280574 -56, 2.8007384414388525 -56, 71.7578125 -56 M71.7578125 -56 C71.7578125 -27.044485926122004, 71.7578125 1.9110281477559923, 71.7578125 56 M71.7578125 -56 C71.7578125 -13.134397415320578, 71.7578125 29.731205169358844, 71.7578125 56 M71.7578125 56 C28.79819327952405 56, -14.1614259409519 56, -71.7578125 56 M71.7578125 56 C24.45595894929569 56, -22.845894601408617 56, -71.7578125 56 M-71.7578125 56 C-71.7578125 29.586911153816896, -71.7578125 3.1738223076337917, -71.7578125 -56 M-71.7578125 56 C-71.7578125 30.806319175754943, -71.7578125 5.6126383515098865, -71.7578125 -56" stroke="#999" stroke-width="1.3" fill="none" stroke-dasharray="0 0"/></g><g class="label" style="" transform="translate(-46.3359375, -48)"><foreignObject width="92.671875" height="24"><div xmlns="http://www.w3.org/1999/xhtml" style="display: table-cell; white-space: nowrap; line-height: 1.5; max-width: 214px; text-align: center;"><span class="nodeLabel markdown-node-label"><p>&lt;&lt;Element&gt;&gt;</p></span></div></foreignObject></g><g class="label" style="; font-weight: bold;" transform="translate(-33.1953125, -24)"><foreignObject width="66.390625" height="24"><div style="font-weight: bold; display: table-cell; white-space: nowrap; line-height: 1.5; max-width: 106px; text-align: center;" xmlns="http://www.w3.org/1999/xhtml"><span style="; font-weight: bold;" class="nodeLabel markdown-node-label"><p>uploader</p></span></div></foreignObject></g><g class="label" style="" transform="translate(-61.7578125, 20)"><foreignObject width="123.515625" height="24"><div xmlns="http://www.w3.org/1999/xhtml" style="display: table-cell; white-space: nowrap; line-height: 1.5; max-width: 161px; text-align: center;"><span class="nodeLabel markdown-node-label"><p>Type: component</p></span></div></foreignObject></g><g class="divider"><path d="M-71.7578125 12 C-29.20267317547151 12, 13.35246614905698 12, 71.7578125 12 M-71.7578125 12 C-18.556996963412438 12, 34.643818573175125 12, 71.7578125 12" stroke="#999" stroke-width="1.3" fill="none" stroke-dasharray="0 0"/></g></g><g class="node default" id="my-svg-load_test" data-look="classic" transform="translate(433.9765625, 64)"><g class="basic label-container outer-path" style=""><path d="M-65.7421875 -56 L65.7421875 -56 L65.7421875 56 L-65.7421875 56" stroke="none" stroke-width="0" fill="#eee"/><path d="M-65.7421875 -56 C-35.273501899315136 -56, -4.804816298630264 -56, 65.7421875 -56 M-65.7421875 -56 C-20.58765498880343 -56, 24.566877522393142 -56, 65.7421875 -56 M65.7421875 -56 C65.7421875 -18.04871502584472, 65.7421875 19.902569948310557, 65.7421875 56 M65.7421875 -56 C65.7421875 -28.68788976257276, 65.7421875 -1.3757795251455178, 65.7421875 56 M65.7421875 56 C21.708214895554555 56, -22.32575770889089 56, -65.7421875 56 M65.7421875 56 C23.115518032671986 56, -19.51115143465603 56, -65.7421875 56 M-65.7421875 56 C-65.7421875 25.40200195297357, -65.7421875 -5.195996094052859, -65.7421875 -56 M-65.7421875 56 C-65.7421875 27.205155644922964, -65.7421875 -1.5896887101540713, -65.7421875 -56" stroke="#999" stroke-width="1.3" fill="none" stroke-dasharray="0 0"/></g><g class="label" style="" transform="translate(-46.3359375, -48)"><foreignObject width="92.671875" height="24"><div xmlns="http://www.w3.org/1999/xhtml" style="display: table-cell; white-space: nowrap; line-height: 1.5; max-width: 214px; text-align: center;"><span class="nodeLabel markdown-node-label"><p>&lt;&lt;Element&gt;&gt;</p></span></div></foreignObject></g><g class="label" style="; font-weight: bold;" transform="translate(-34.8671875, -24)"><foreignObject width="69.734375" height="24"><div style="font-weight: bold; display: table-cell; white-space: nowrap; line-height: 1.5; max-width: 108px; text-align: center;" xmlns="http://www.w3.org/1999/xhtml"><span style="; font-weight: bold;" class="nodeLabel markdown-node-label"><p>load_test</p></span></div></foreignObject></g><g class="label" style="" transform="translate(-55.7421875, 20)"><foreignObject width="111.484375" height="24"><div xmlns="http://www.w3.org/1999/xhtml" style="display: table-cell; white-space: nowrap; line-height: 1.5; max-width: 148px; text-align: center;"><span class="nodeLabel markdown-node-label"><p>Type: test_case</p></span></div></foreignObject></g><g class="divider"><path d="M-65.7421875 12 C-32.895183529798885 12, -0.048179559597770094 12, 65.7421875 12 M-65.7421875 12 C-14.943806458955613 12, 35.85457458208877 12, 65.7421875 12" stroke="#999" stroke-width="1.3" fill="none" stroke-dasharray="0 0"/></g></g></g></g></g><defs><filter id="my-svg-drop-shadow" height="130%" width="130%"><feDropShadow dx="4" dy="4" stdDeviation="0" flood-opacity="0.06" flood-color="#000000"/></filter></defs><defs><filter id="my-svg-drop-shadow-small" height="150%" width="150%"><feDropShadow dx="2" dy="2" stdDeviation="0" flood-opacity="0.06" flood-color="#000000"/></filter></defs><linearGradient id="my-svg-gradient" gradientUnits="objectBoundingBox" x1="0%" y1="0%" x2="100%" y2="0%"><stop offset="0%" stop-color="hsl(0, 0%, 83.3333333333%)" stop-opacity="1"/><stop offset="100%" stop-color="hsl(0, 0%, 88.9215686275%)" stop-opacity="1"/></linearGradient></svg>